<svg width="24" height="24" viewBox="0 0 24 24" fill="none" xmlns="http://www.w3.org/2000/svg">
<path fill-rule="evenodd" clip-rule="evenodd" d="M2.31793 11.8802C2.31793 6.5746 6.68482 2.26862 12.0775 2.26862C17.4799 2.26862 21.8566 6.5746 21.8566 11.8802C21.8566 17.1858 17.4799 21.4917 12.0775 21.4917C6.68482 21.4917 2.31793 17.1858 2.31793 11.8802ZM4.27181 11.8802C4.27181 16.1285 7.76923 19.5694 12.0873 19.5694C16.4053 19.5694 19.9027 16.1285 19.9027 11.8802C19.9027 7.63186 16.4053 4.19093 12.0873 4.19093C7.76923 4.19093 4.27181 7.63186 4.27181 11.8802ZM11.1103 7.0744H12.5757V12.1205L16.9719 14.6868L16.2392 15.869L11.1103 12.8413V7.0744Z" fill="black"/>
<mask id="mask0" mask-type="alpha" maskUnits="userSpaceOnUse" x="2" y="2" width="20" height="20">
<path fill-rule="evenodd" clip-rule="evenodd" d="M2.31793 11.8802C2.31793 6.5746 6.68482 2.26862 12.0775 2.26862C17.4799 2.26862 21.8566 6.5746 21.8566 11.8802C21.8566 17.1858 17.4799 21.4917 12.0775 21.4917C6.68482 21.4917 2.31793 17.1858 2.31793 11.8802ZM4.27181 11.8802C4.27181 16.1285 7.76923 19.5694 12.0873 19.5694C16.4053 19.5694 19.9027 16.1285 19.9027 11.8802C19.9027 7.63186 16.4053 4.19093 12.0873 4.19093C7.76923 4.19093 4.27181 7.63186 4.27181 11.8802ZM11.1103 7.0744H12.5757V12.1205L16.9719 14.6868L16.2392 15.869L11.1103 12.8413V7.0744Z" fill="white"/>
</mask>
<g mask="url(#mask0)">
<rect x="0.364075" y="0.346313" width="23.4464" height="23.0677" fill="#373D61"/>
</g>
</svg>
