<svg width="21" height="18" viewBox="0 0 21 18" fill="none" xmlns="http://www.w3.org/2000/svg">
<mask id="mask0" mask-type="alpha" maskUnits="userSpaceOnUse" x="0" y="0" width="21" height="18">
<path fill-rule="evenodd" clip-rule="evenodd" d="M10.6343 4.0441V0.166138H0.909119V17.617H20.3594V4.0441H10.6343V4.0441ZM4.79918 15.678H2.85415V13.739H4.79918V15.678V15.678ZM4.79918 11.8H2.85415V9.86105H4.79918V11.8V11.8ZM4.79918 7.92206H2.85415V5.98308H4.79918V7.92206V7.92206ZM4.79918 4.0441H2.85415V2.10512H4.79918V4.0441V4.0441ZM8.68924 15.678H6.74421V13.739H8.68924V15.678V15.678ZM8.68924 11.8H6.74421V9.86105H8.68924V11.8V11.8ZM8.68924 7.92206H6.74421V5.98308H8.68924V7.92206V7.92206ZM8.68924 4.0441H6.74421V2.10512H8.68924V4.0441V4.0441ZM18.4144 15.678H10.6343V13.739H12.5793V11.8H10.6343V9.86105H12.5793V7.92206H10.6343V5.98308H18.4144V15.678V15.678ZM16.4694 7.92206H14.5243V9.86105H16.4694V7.92206V7.92206ZM16.4694 11.8H14.5243V13.739H16.4694V11.8V11.8Z" fill="white"/>
</mask>
<g mask="url(#mask0)">
<rect x="-1.03589" y="-2.74231" width="23.3404" height="23.2678" fill="#373D61"/>
</g>
</svg>
