<svg height="10" viewBox="0 0 24 10" width="24" xmlns="http://www.w3.org/2000/svg" xmlns:xlink="http://www.w3.org/1999/xlink"><defs><path id="a" d="m17.668504 1.15085924 5.6426996 3.90583c.0994865.03649283.1938571.08904151.2789304.15706037.2478563.17341845.409866.46091473.409866.78625039 0 .32444555-.1611244.61125849-.4077214.78478714-.0854128.06840555-.1801555.12138398-.2800766.15815679l-5.643698 3.90619687c-.4282106.2965423-1.012339.2147291-1.3426032-.1880453l-.0433685-.0528902c-.3197733-.3899802-.2628593-.96534918.1271209-1.2851225.0190954-.0156577.0388181-.03053438.0591194-.04459334l3.3482274-2.31956312-18.85804505.00002861c-.5296162 0-.95895495-.42933876-.95895495-.95895495s.42933875-.95895495.95895495-.95895495l18.85904505-.00011871-3.3492274-2.3194158c-.4146085-.2871226-.5179562-.85598804-.2308336-1.27059651.0140589-.0203013.0289356-.04002397.0445933-.05911935l.0433685-.05289018c.3302642-.40277444.9143926-.48458756 1.3426032-.18804526z"/><mask id="b" fill="#fff"><use fill="#fff" fill-rule="evenodd" xlink:href="#a"/></mask></defs><g fill="none" fill-rule="evenodd" transform="translate(0 -1)"><use fill="#428dfb" xlink:href="#a"/><g fill="#428bfb" mask="url(#b)"><path d="m0 0h200v200h-200z" transform="translate(-10 -5)"/></g></g></svg>