<svg width="15" height="22" viewBox="0 0 15 22" fill="none" xmlns="http://www.w3.org/2000/svg">
<mask id="mask0" mask-type="alpha" maskUnits="userSpaceOnUse" x="0" y="0" width="15" height="22">
<path fill-rule="evenodd" clip-rule="evenodd" d="M7.56236 0.545776C3.5299 0.545776 0.268494 3.88374 0.268494 8.01086C0.268494 13.6097 7.56236 21.8746 7.56236 21.8746C7.56236 21.8746 14.8562 13.6097 14.8562 8.01086C14.8562 3.88374 11.5948 0.545776 7.56236 0.545776V0.545776ZM7.56237 10.677C6.12443 10.677 4.95741 9.48255 4.95741 8.01086C4.95741 6.53917 6.12443 5.34476 7.56237 5.34476C9.0003 5.34476 10.1673 6.53917 10.1673 8.01086C10.1673 9.48255 9.0003 10.677 7.56237 10.677V10.677Z" fill="white"/>
</mask>
<g mask="url(#mask0)">
<rect x="-4.94141" y="-1.5871" width="25.0075" height="25.5946" fill="#373D61"/>
</g>
</svg>
