<svg width="31" height="20" viewBox="0 0 31 20" fill="none" xmlns="http://www.w3.org/2000/svg">
<path fill-rule="evenodd" clip-rule="evenodd" d="M20.602 8.53161C22.8768 8.53161 24.6994 6.67572 24.6994 4.37664C24.6994 2.07756 22.8768 0.22168 20.602 0.22168C18.3272 0.22168 16.4909 2.07756 16.4909 4.37664C16.4909 6.67572 18.3272 8.53161 20.602 8.53161V8.53161ZM9.63905 8.53161C11.9139 8.53161 13.7364 6.67572 13.7364 4.37664C13.7364 2.07756 11.9139 0.22168 9.63905 0.22168C7.36424 0.22168 5.52796 2.07756 5.52796 4.37664C5.52796 6.67572 7.36424 8.53161 9.63905 8.53161V8.53161ZM9.63906 11.3016C6.44611 11.3016 0.0465088 12.922 0.0465088 16.149V19.6115H19.2316V16.149C19.2316 12.922 12.832 11.3016 9.63906 11.3016V11.3016ZM20.602 11.3016C20.2046 11.3016 19.7524 11.3293 19.2727 11.3708C20.8624 12.5342 21.9723 14.0993 21.9723 16.149V19.6115H30.1945V16.149C30.1945 12.922 23.7949 11.3016 20.602 11.3016V11.3016Z" fill="black"/>
<mask id="mask0" mask-type="alpha" maskUnits="userSpaceOnUse" x="0" y="0" width="31" height="20">
<path fill-rule="evenodd" clip-rule="evenodd" d="M20.602 8.53161C22.8768 8.53161 24.6994 6.67572 24.6994 4.37664C24.6994 2.07756 22.8768 0.22168 20.602 0.22168C18.3272 0.22168 16.4909 2.07756 16.4909 4.37664C16.4909 6.67572 18.3272 8.53161 20.602 8.53161V8.53161ZM9.63905 8.53161C11.9139 8.53161 13.7364 6.67572 13.7364 4.37664C13.7364 2.07756 11.9139 0.22168 9.63905 0.22168C7.36424 0.22168 5.52796 2.07756 5.52796 4.37664C5.52796 6.67572 7.36424 8.53161 9.63905 8.53161V8.53161ZM9.63906 11.3016C6.44611 11.3016 0.0465088 12.922 0.0465088 16.149V19.6115H19.2316V16.149C19.2316 12.922 12.832 11.3016 9.63906 11.3016V11.3016ZM20.602 11.3016C20.2046 11.3016 19.7524 11.3293 19.2727 11.3708C20.8624 12.5342 21.9723 14.0993 21.9723 16.149V19.6115H30.1945V16.149C30.1945 12.922 23.7949 11.3016 20.602 11.3016V11.3016Z" fill="white"/>
</mask>
<g mask="url(#mask0)">
<rect x="-1.32385" y="-6.70325" width="32.8887" height="33.2397" fill="#373D61"/>
</g>
</svg>
