<svg id="Layer_1" data-name="Layer 1" xmlns="http://www.w3.org/2000/svg" viewBox="0 0 391.79 184.84"><title>2-way-syncing</title><path d="M167.29,111.94h24v24h-24Z" transform="translate(-2.5 -1.41)" style="fill:none"/><path d="M343.29,114.94h24v24h-24Z" transform="translate(-2.5 -1.41)" style="fill:none"/><path d="M196.15,67.94a24.61,24.61,0,0,0-7.78,48c1.23.23,1.69-.53,1.69-1.18s0-2.53,0-4.58c-6.84,1.48-8.29-2.91-8.29-2.91-1.12-2.84-2.73-3.6-2.73-3.6-2.23-1.53.17-1.49.17-1.49a5.16,5.16,0,0,1,3.77,2.53c2.19,3.76,5.76,2.68,7.16,2a5.24,5.24,0,0,1,1.56-3.29c-5.46-.63-11.21-2.74-11.21-12.17a9.49,9.49,0,0,1,2.54-6.6,8.79,8.79,0,0,1,.24-6.51s2.06-.66,6.76,2.52a23.31,23.31,0,0,1,12.33,0c4.7-3.18,6.76-2.52,6.76-2.52a8.79,8.79,0,0,1,.24,6.51,9.49,9.49,0,0,1,2.53,6.6c0,9.46-5.75,11.54-11.23,12.15a5.88,5.88,0,0,1,1.67,4.55c0,3.3,0,6,0,6.76,0,.65.44,1.42,1.69,1.18a24.62,24.62,0,0,0-7.8-48Z" transform="translate(-2.5 -1.41)" style="fill:#181616;fill-rule:evenodd"/><path d="M180.87,103.27c-.06.13-.25.16-.43.08s-.27-.25-.22-.37.25-.16.43-.08.28.25.22.37Zm-.31-.22" transform="translate(-2.5 -1.41)" style="fill:#181616"/><path d="M181.86,104.39c-.11.1-.34,0-.5-.12a.37.37,0,0,1-.07-.51c.12-.11.34-.06.5.11s.2.41.07.52Zm-.23-.26" transform="translate(-2.5 -1.41)" style="fill:#181616"/><path d="M182.83,105.8c-.15.11-.39,0-.55-.21s-.15-.48,0-.59.39,0,.55.21.15.49,0,.59Zm0,0" transform="translate(-2.5 -1.41)" style="fill:#181616"/><path d="M184.16,107.17c-.13.15-.42.11-.63-.09a.49.49,0,0,1-.14-.63.47.47,0,0,1,.64.09c.21.2.28.48.13.63Zm0,0" transform="translate(-2.5 -1.41)" style="fill:#181616"/><path d="M186,108c-.06.19-.34.28-.62.2s-.46-.31-.4-.51.33-.28.61-.2.46.31.41.51Zm0,0" transform="translate(-2.5 -1.41)" style="fill:#181616"/><path d="M188,108.11c0,.21-.23.38-.52.38s-.53-.16-.54-.36.23-.37.53-.37.53.15.53.35Zm0,0" transform="translate(-2.5 -1.41)" style="fill:#181616"/><path d="M189.88,107.8c0,.19-.16.4-.45.45s-.55-.07-.59-.27.17-.4.46-.45.55.06.58.27Zm0,0" transform="translate(-2.5 -1.41)" style="fill:#181616"/><path d="M346.32,84.16a10,10,0,0,0-7.09-7.92,8.33,8.33,0,0,0,.11-1.12,7.1,7.1,0,0,0-12.18-5,2.46,2.46,0,0,0-2.31-1.62A2.5,2.5,0,0,0,322.36,71c0,1.37.94,2,2.92,2.91l.78.41.46.27.34.21.19.13a14.77,14.77,0,0,1,1.69,1.33.71.71,0,0,1,.09.07,7.52,7.52,0,0,1,.62.64c.06.05.11.13.16.18a7.79,7.79,0,0,1,.64.78,13.11,13.11,0,0,1,0,15.86c-.19.27-.42.51-.64.78-.05,0-.1.13-.16.18-.19.21-.41.43-.62.64a.71.71,0,0,1-.09.07,12.85,12.85,0,0,1-1.69,1.33l-.19.13-.34.21-.46.27-.78.41c-2,.92-2.92,1.53-2.92,2.91a2.5,2.5,0,0,0,2.49,2.49,2.46,2.46,0,0,0,2.31-1.62,7.1,7.1,0,0,0,12.18-5,8,8,0,0,0-.11-1.12,10.06,10.06,0,0,0,7.09-7.92,9.93,9.93,0,0,0,0-3.44Zm-31,13.6-.78-.41-.46-.27-.34-.21c-.07,0-.12-.09-.2-.13a13.44,13.44,0,0,1-1.68-1.33.71.71,0,0,1-.09-.07c-.22-.22-.43-.41-.63-.64a1.37,1.37,0,0,0-.16-.18c-.23-.25-.44-.52-.64-.78a13.15,13.15,0,0,1,0-15.86c.2-.27.43-.52.64-.78l.16-.18c.2-.21.41-.43.63-.64a.71.71,0,0,1,.09-.07,13.44,13.44,0,0,1,1.68-1.33c.08,0,.13-.09.2-.13s.21-.14.34-.21l.46-.27.78-.41c2-.92,2.92-1.53,2.92-2.91a2.5,2.5,0,0,0-2.49-2.49,2.45,2.45,0,0,0-2.31,1.62,7.1,7.1,0,0,0-12.18,5,6.86,6.86,0,0,0,.11,1.12,10.09,10.09,0,0,0-7.1,7.91,10.48,10.48,0,0,0-.14,1.68,10.36,10.36,0,0,0,.14,1.67,10,10,0,0,0,7.1,7.91,7,7,0,0,0-.11,1.12,7.11,7.11,0,0,0,12.18,5,2.46,2.46,0,0,0,2.31,1.61,2.5,2.5,0,0,0,2.49-2.49c0-1.28-.93-1.88-2.92-2.8Z" transform="translate(-2.5 -1.41)" style="fill:#407afc"/><path d="M328.05,85.83a7.75,7.75,0,1,0-7.75,7.75A7.74,7.74,0,0,0,328.05,85.83Z" transform="translate(-2.5 -1.41)" style="fill:#407afc"/><path d="M290.38,115.09a.27.27,0,0,1-.13.23,3.09,3.09,0,1,1-1.88-5.55,2.91,2.91,0,0,1,1.88.66.26.26,0,0,1-.16.48.3.3,0,0,1-.16,0,2.66,2.66,0,0,0-1.56-.55,2.55,2.55,0,0,0,0,5.1,2.46,2.46,0,0,0,1.56-.52.28.28,0,0,1,.45.2Zm1.63-7a.15.15,0,0,0-.09-.16c-.19-.11-.21-.22-.21-.29a.28.28,0,0,1,.29-.28c.16,0,.55.16.55.73v7.09a.16.16,0,0,0,.09.16c.19.11.21.21.21.28a.28.28,0,0,1-.29.29c-.16,0-.55-.16-.55-.73Zm2.17,4.8a3.09,3.09,0,1,1,6.17,0,3.09,3.09,0,0,1-6.17,0Zm.54,0a2.55,2.55,0,1,0,2.56-2.56A2.55,2.55,0,0,0,294.72,112.87Zm11.57,1.9a2.23,2.23,0,0,1-1.92,1.12,2.33,2.33,0,0,1-2.61-2.63v-2.72a.16.16,0,0,0-.09-.16c-.2-.11-.22-.22-.22-.29a.28.28,0,0,1,.29-.28c.16,0,.55.16.55.73v2.72a1.84,1.84,0,0,0,2.08,2.11,1.86,1.86,0,0,0,1.92-1.86v-3c0-.57.39-.73.55-.73a.27.27,0,0,1,.28.28c0,.06,0,.18-.21.29a.2.2,0,0,0-.09.16v4.62a.18.18,0,0,0,.09.16c.2.11.21.21.21.28a.28.28,0,0,1-.28.29c-.16,0-.55-.16-.55-.73v-.39Zm7.06-6.7c0-.57.39-.73.55-.73a.27.27,0,0,1,.28.28c0,.06,0,.18-.21.29a.2.2,0,0,0-.09.16v7.09a.18.18,0,0,0,.09.16c.19.11.21.21.21.28a.28.28,0,0,1-.28.29c-.16,0-.55-.16-.55-.73v-.66a2.37,2.37,0,0,1-2.26,1.39,2.9,2.9,0,0,1-2.76-3.09,2.87,2.87,0,0,1,2.76-3,2.41,2.41,0,0,1,2.26,1.24v-3Zm0,4.6a2.24,2.24,0,1,0-4.48.09,2.26,2.26,0,1,0,4.48,0Zm7.29-1.81a.58.58,0,0,1-.59.58.63.63,0,0,1-.36-.1,1.91,1.91,0,0,0-1.15-.45,2,2,0,0,0-2,2,1.9,1.9,0,0,0,3.11,1.51.64.64,0,0,1,.36-.11.56.56,0,0,1,.34,1,2.91,2.91,0,0,1-1.85.64,3.08,3.08,0,1,1,0-6.16,2.86,2.86,0,0,1,1.86.64.59.59,0,0,1,.24.46Zm4.74,4.3a1.75,1.75,0,0,1-1.54.78,2.15,2.15,0,0,1-2.3-2.06c0-1.42,1.14-2,2.35-2a3.28,3.28,0,0,1,1.44.34c0-1.19-.52-1.37-1.19-1.37A3.33,3.33,0,0,0,323,111a.53.53,0,0,1-.72-.48.57.57,0,0,1,.42-.57,5.06,5.06,0,0,1,1.44-.21c1.62,0,2.42.76,2.42,2.08v2.79a.22.22,0,0,0,.11.21s.19.09.19.44a.56.56,0,0,1-.6.59.74.74,0,0,1-.84-.71Zm-1.17-2.33c-.71,0-1.49.21-1.49,1.07a1,1,0,0,0,1.13.92,1.4,1.4,0,0,0,1.51-1.17v-.46A2.09,2.09,0,0,0,324.21,112.83Zm8.23-.32a1.47,1.47,0,0,0-1.58-1.58,1.59,1.59,0,0,0-1.58,1.53V115a.84.84,0,0,1-.88.89.58.58,0,0,1-.6-.59.5.5,0,0,1,.21-.46.2.2,0,0,0,.11-.2v-3.57a.18.18,0,0,0-.11-.19.51.51,0,0,1-.21-.47.58.58,0,0,1,.6-.58.86.86,0,0,1,.88.78,2.42,2.42,0,0,1,1.67-.84c1.88,0,2.66.91,2.66,2.83v2a.21.21,0,0,0,.11.2.5.5,0,0,1,.21.46.58.58,0,0,1-.6.59.83.83,0,0,1-.87-.89v-2.49Zm7.22,0a1.47,1.47,0,0,0-1.58-1.58,1.6,1.6,0,0,0-1.59,1.53V115a.83.83,0,0,1-.87.89.58.58,0,0,1-.6-.59.5.5,0,0,1,.21-.46.21.21,0,0,0,.11-.2v-3.57a.19.19,0,0,0-.11-.19.51.51,0,0,1-.21-.47.58.58,0,0,1,.6-.58.84.84,0,0,1,.87.78,2.46,2.46,0,0,1,1.67-.84c1.89,0,2.67.91,2.67,2.83v2a.2.2,0,0,0,.11.2.5.5,0,0,1,.21.46.58.58,0,0,1-.6.59.83.83,0,0,1-.87-.89v-2.49Zm2.33.34a3.09,3.09,0,1,1,3.09,3.09,3.1,3.1,0,0,1-3.09-3.09Zm1.15,0a1.92,1.92,0,1,0,1.92-1.92A1.92,1.92,0,0,0,343.14,112.85Zm10.58-.34a1.47,1.47,0,0,0-1.58-1.58,1.59,1.59,0,0,0-1.58,1.53V115a.84.84,0,0,1-.88.89.58.58,0,0,1-.6-.59.5.5,0,0,1,.21-.46.2.2,0,0,0,.11-.2v-3.57a.18.18,0,0,0-.11-.19.51.51,0,0,1-.21-.47.58.58,0,0,1,.6-.58.86.86,0,0,1,.88.78,2.42,2.42,0,0,1,1.67-.84c1.88,0,2.66.91,2.66,2.83v2a.21.21,0,0,0,.11.2.5.5,0,0,1,.21.46.58.58,0,0,1-.6.59.83.83,0,0,1-.87-.89v-2.49Z" transform="translate(-2.5 -1.41)" style="fill:#407afc"/><path d="M139.29,111.94h24v24h-24Z" transform="translate(-2.5 -1.41)" style="fill:none"/><path d="M97.94,110.3a5.64,5.64,0,0,0,5.62-5.65l0-31.06a5.66,5.66,0,0,0-5.65-5.65H52.76a5.66,5.66,0,0,0-5.64,5.65v31.06a5.67,5.67,0,0,0,5.64,5.65H41.47a5.66,5.66,0,0,0,5.65,5.64h56.47a5.66,5.66,0,0,0,5.64-5.64ZM52.76,73.59H97.94v31.06H52.76Zm22.59,39.53a2.83,2.83,0,1,1,2.83-2.82A2.83,2.83,0,0,1,75.35,113.12Z" transform="translate(-2.5 -1.41)" style="fill:#333"/><path d="M75.29,57.94s50.57-60.48,111.23-.76" transform="translate(-2.5 -1.41)" style="fill:none;stroke:#333;stroke-miterlimit:10"/><polygon points="178.79 56.49 178.79 55.49 183.72 55.53 183.4 50.61 184.4 50.54 184.79 56.54 178.79 56.49" style="fill:#333"/><path d="M208.29,57.94s50.57-60.48,111.23-.76" transform="translate(-2.5 -1.41)" style="fill:none;stroke:#333;stroke-miterlimit:10"/><polygon points="311.79 56.49 311.79 55.49 316.72 55.53 316.4 50.61 317.4 50.54 317.79 56.54 311.79 56.49" style="fill:#333"/><path d="M320.29,125.83s-50.57,60.49-111.22.77" transform="translate(-2.5 -1.41)" style="fill:none;stroke:#333;stroke-miterlimit:10"/><polygon points="211.8 124.47 211.79 125.47 206.86 125.43 207.19 130.35 206.19 130.42 205.79 124.42 211.8 124.47" style="fill:#333"/><path d="M187.29,125.83s-50.57,60.49-111.22.77" transform="translate(-2.5 -1.41)" style="fill:none;stroke:#333;stroke-miterlimit:10"/><polygon points="78.8 124.47 78.79 125.47 73.86 125.43 74.19 130.35 73.19 130.42 72.79 124.42 78.8 124.47" style="fill:#333"/><path d="M86.57,4.22a2.49,2.49,0,0,1-.69,1.89,2.79,2.79,0,0,1-2,.65H82.5v-5h1.55a2.54,2.54,0,0,1,1.85.64A2.38,2.38,0,0,1,86.57,4.22Zm-.86,0c0-1.19-.56-1.79-1.68-1.79h-.71V6.08h.58A1.62,1.62,0,0,0,85.71,4.24Z" transform="translate(-2.5 -1.41)" style="fill:#333"/><path d="M89.21,6.83a1.83,1.83,0,0,1-1.38-.51,2,2,0,0,1-.5-1.42,2.15,2.15,0,0,1,.46-1.46,1.61,1.61,0,0,1,1.27-.53,1.57,1.57,0,0,1,1.18.46,1.73,1.73,0,0,1,.44,1.25v.43H88.16a1.28,1.28,0,0,0,.29.85,1,1,0,0,0,.79.3,3.12,3.12,0,0,0,.63-.07,3,3,0,0,0,.62-.21v.65a2.35,2.35,0,0,1-.6.2A3.51,3.51,0,0,1,89.21,6.83Zm-.15-3.31a.76.76,0,0,0-.61.25,1.1,1.1,0,0,0-.28.7h1.72a1.06,1.06,0,0,0-.23-.71A.78.78,0,0,0,89.06,3.52Z" transform="translate(-2.5 -1.41)" style="fill:#333"/><path d="M92.45,6.76,91,3h.85l.77,2.2a4.71,4.71,0,0,1,.24.9h0a5.61,5.61,0,0,1,.24-.9L93.91,3h.85L93.32,6.76Z" transform="translate(-2.5 -1.41)" style="fill:#333"/><path d="M97,6.83a1.83,1.83,0,0,1-1.38-.51,1.94,1.94,0,0,1-.5-1.42,2.15,2.15,0,0,1,.46-1.46,1.61,1.61,0,0,1,1.27-.53A1.57,1.57,0,0,1,98,3.37a1.73,1.73,0,0,1,.44,1.25v.43H95.94a1.28,1.28,0,0,0,.29.85,1,1,0,0,0,.79.3,3.12,3.12,0,0,0,.63-.07,3,3,0,0,0,.62-.21v.65a2.35,2.35,0,0,1-.6.2A3.51,3.51,0,0,1,97,6.83Zm-.15-3.31a.76.76,0,0,0-.61.25,1.1,1.1,0,0,0-.28.7h1.72a1.06,1.06,0,0,0-.23-.71A.78.78,0,0,0,96.84,3.52Z" transform="translate(-2.5 -1.41)" style="fill:#333"/><path d="M100.17,6.76h-.8V1.44h.8Z" transform="translate(-2.5 -1.41)" style="fill:#333"/><path d="M104.67,4.87a2.08,2.08,0,0,1-.47,1.44,1.7,1.7,0,0,1-1.33.52,1.79,1.79,0,0,1-.93-.24,1.62,1.62,0,0,1-.63-.69,2.37,2.37,0,0,1-.22-1,2,2,0,0,1,.48-1.44,1.71,1.71,0,0,1,1.33-.52,1.65,1.65,0,0,1,1.29.53A2,2,0,0,1,104.67,4.87Zm-2.75,0c0,.87.32,1.3,1,1.3s1-.43,1-1.3-.33-1.3-1-1.3a.8.8,0,0,0-.73.34A1.7,1.7,0,0,0,101.92,4.87Z" transform="translate(-2.5 -1.41)" style="fill:#333"/><path d="M107.51,6.83a1.3,1.3,0,0,1-1.11-.52h-.05c0,.32.05.52.05.59V8.44h-.8V3h.64q0,.1.12.51h0a1.26,1.26,0,0,1,1.13-.58,1.29,1.29,0,0,1,1.1.52A2.33,2.33,0,0,1,109,4.87a2.28,2.28,0,0,1-.4,1.44A1.32,1.32,0,0,1,107.51,6.83Zm-.19-3.26a.83.83,0,0,0-.7.28,1.45,1.45,0,0,0-.22.9v.12a1.74,1.74,0,0,0,.22,1,.81.81,0,0,0,.71.3.71.71,0,0,0,.64-.34,1.76,1.76,0,0,0,.23-1,1.66,1.66,0,0,0-.22-1A.75.75,0,0,0,107.32,3.57Z" transform="translate(-2.5 -1.41)" style="fill:#333"/><path d="M111.61,6.83a1.83,1.83,0,0,1-1.38-.51,2,2,0,0,1-.5-1.42,2.15,2.15,0,0,1,.46-1.46,1.61,1.61,0,0,1,1.27-.53,1.57,1.57,0,0,1,1.18.46,1.73,1.73,0,0,1,.44,1.25v.43h-2.52a1.23,1.23,0,0,0,.3.85,1,1,0,0,0,.79.3,3,3,0,0,0,1.24-.28v.65a2.23,2.23,0,0,1-.6.2A3.51,3.51,0,0,1,111.61,6.83Zm-.15-3.31a.78.78,0,0,0-.61.25,1.1,1.1,0,0,0-.28.7h1.72a1.06,1.06,0,0,0-.23-.71A.75.75,0,0,0,111.46,3.52Z" transform="translate(-2.5 -1.41)" style="fill:#333"/><path d="M115.91,2.91a2.15,2.15,0,0,1,.4,0l-.08.75a1.42,1.42,0,0,0-.36,0,1,1,0,0,0-.78.31,1.13,1.13,0,0,0-.3.82v2H114V3h.63l.1.67h0a1.35,1.35,0,0,1,.49-.54A1.16,1.16,0,0,1,115.91,2.91Z" transform="translate(-2.5 -1.41)" style="fill:#333"/><path d="M122,6.76h-.8V4.43a1.07,1.07,0,0,0-.17-.65.61.61,0,0,0-.51-.21.78.78,0,0,0-.68.3,1.74,1.74,0,0,0-.22,1V6.76h-.8V3h.63l.11.5h0a1,1,0,0,1,.46-.42,1.38,1.38,0,0,1,.65-.15,1.16,1.16,0,0,1,1.16.6h.05a1.17,1.17,0,0,1,.47-.44,1.6,1.6,0,0,1,.7-.16,1.28,1.28,0,0,1,1,.35,1.52,1.52,0,0,1,.31,1V6.76h-.81V4.43a1.08,1.08,0,0,0-.16-.65.62.62,0,0,0-.52-.21.8.8,0,0,0-.68.29,1.49,1.49,0,0,0-.22.9Z" transform="translate(-2.5 -1.41)" style="fill:#333"/><path d="M127.88,6.76l-.16-.52h0a1.75,1.75,0,0,1-.55.47,1.87,1.87,0,0,1-.72.12,1.21,1.21,0,0,1-.87-.3,1.15,1.15,0,0,1-.31-.85,1,1,0,0,1,.44-.88A2.5,2.5,0,0,1,127,4.47l.65,0v-.2a.73.73,0,0,0-.17-.54.68.68,0,0,0-.52-.18,2,2,0,0,0-.56.08,3.89,3.89,0,0,0-.51.21l-.26-.58a2.8,2.8,0,0,1,.67-.24,3,3,0,0,1,.69-.09,1.63,1.63,0,0,1,1.09.32,1.22,1.22,0,0,1,.37,1V6.76Zm-1.19-.54a1,1,0,0,0,.7-.25.86.86,0,0,0,.26-.68V5l-.48,0a1.69,1.69,0,0,0-.83.19.57.57,0,0,0-.25.52.51.51,0,0,0,.15.39A.65.65,0,0,0,126.69,6.22Z" transform="translate(-2.5 -1.41)" style="fill:#333"/><path d="M130.36,4.77l.45-.57L132,3h.93l-1.52,1.63L133,6.76H132L130.82,5.1l-.44.37V6.76h-.8V1.44h.8V4l0,.73Z" transform="translate(-2.5 -1.41)" style="fill:#333"/><path d="M135.23,6.83a1.85,1.85,0,0,1-1.38-.51,2,2,0,0,1-.49-1.42,2.15,2.15,0,0,1,.46-1.46,1.61,1.61,0,0,1,1.27-.53,1.58,1.58,0,0,1,1.18.46,1.73,1.73,0,0,1,.43,1.25v.43h-2.52a1.23,1.23,0,0,0,.3.85,1,1,0,0,0,.79.3,3,3,0,0,0,.62-.07,2.84,2.84,0,0,0,.62-.21v.65a2.17,2.17,0,0,1-.59.2A3.54,3.54,0,0,1,135.23,6.83Zm-.14-3.31a.8.8,0,0,0-.62.25,1.15,1.15,0,0,0-.27.7h1.71a1.06,1.06,0,0,0-.22-.71A.78.78,0,0,0,135.09,3.52Z" transform="translate(-2.5 -1.41)" style="fill:#333"/><path d="M140.15,5.69a1,1,0,0,1-.4.85,2,2,0,0,1-1.15.29,2.79,2.79,0,0,1-1.22-.23V5.91a3.09,3.09,0,0,0,1.24.31c.5,0,.74-.15.74-.45a.32.32,0,0,0-.08-.24.78.78,0,0,0-.27-.2,3.39,3.39,0,0,0-.52-.23,2.32,2.32,0,0,1-.88-.51.91.91,0,0,1-.23-.65.87.87,0,0,1,.39-.76,1.83,1.83,0,0,1,1.06-.27,3,3,0,0,1,1.26.27l-.26.61a2.73,2.73,0,0,0-1-.25q-.63,0-.63.36a.35.35,0,0,0,.16.3,4.39,4.39,0,0,0,.73.34,3.31,3.31,0,0,1,.68.33.94.94,0,0,1,.31.35A1,1,0,0,1,140.15,5.69Z" transform="translate(-2.5 -1.41)" style="fill:#333"/><path d="M144.37,6.83a1.67,1.67,0,0,1-1.31-.5,2.07,2.07,0,0,1-.44-1.44,2.1,2.1,0,0,1,.46-1.46,1.71,1.71,0,0,1,1.35-.52,2.52,2.52,0,0,1,1.08.23l-.25.64a2.5,2.5,0,0,0-.84-.2c-.65,0-1,.44-1,1.31a1.5,1.5,0,0,0,.25,1,.84.84,0,0,0,.71.32,2,2,0,0,0,1-.27V6.6a2,2,0,0,1-.46.18A3.25,3.25,0,0,1,144.37,6.83Z" transform="translate(-2.5 -1.41)" style="fill:#333"/><path d="M149.63,6.76h-.8V4.44a1,1,0,0,0-.18-.65.66.66,0,0,0-.56-.22.88.88,0,0,0-.74.3,1.66,1.66,0,0,0-.24,1V6.76h-.8V1.44h.8V2.79a5.8,5.8,0,0,1,0,.7h.05a1.12,1.12,0,0,1,.46-.43,1.45,1.45,0,0,1,.68-.15,1.22,1.22,0,0,1,1.37,1.39Z" transform="translate(-2.5 -1.41)" style="fill:#333"/><path d="M153.12,6.76,153,6.24h0a1.64,1.64,0,0,1-.55.47,1.81,1.81,0,0,1-.71.12,1.18,1.18,0,0,1-.87-.3,1.12,1.12,0,0,1-.32-.85,1,1,0,0,1,.44-.88,2.5,2.5,0,0,1,1.32-.33l.65,0v-.2a.73.73,0,0,0-.17-.54.67.67,0,0,0-.52-.18,2.1,2.1,0,0,0-.56.08,3.89,3.89,0,0,0-.51.21l-.26-.58a2.8,2.8,0,0,1,.67-.24,3,3,0,0,1,.69-.09,1.63,1.63,0,0,1,1.09.32,1.22,1.22,0,0,1,.37,1V6.76Zm-1.2-.54a1,1,0,0,0,.7-.25.87.87,0,0,0,.27-.68V5l-.49,0a1.62,1.62,0,0,0-.82.19.55.55,0,0,0-.26.52.51.51,0,0,0,.15.39A.65.65,0,0,0,151.92,6.22Z" transform="translate(-2.5 -1.41)" style="fill:#333"/><path d="M158.14,6.76h-.81V4.44a1,1,0,0,0-.18-.65.65.65,0,0,0-.56-.22.89.89,0,0,0-.74.3,1.65,1.65,0,0,0-.24,1V6.76h-.8V3h.63l.11.5h0a1.19,1.19,0,0,1,.49-.42,1.6,1.6,0,0,1,.7-.15,1.22,1.22,0,0,1,1.36,1.39Z" transform="translate(-2.5 -1.41)" style="fill:#333"/><path d="M162.45,3v.44l-.65.12a1.05,1.05,0,0,1,.15.3,1.1,1.1,0,0,1,.06.37,1.14,1.14,0,0,1-.41.92,1.71,1.71,0,0,1-1.11.33,1.69,1.69,0,0,1-.33,0,.47.47,0,0,0-.26.38A.2.2,0,0,0,160,6a1,1,0,0,0,.45.07h.66a1.45,1.45,0,0,1,1,.27.91.91,0,0,1,.33.76,1.15,1.15,0,0,1-.53,1,2.86,2.86,0,0,1-1.54.34,2.11,2.11,0,0,1-1.17-.27.86.86,0,0,1-.41-.78.79.79,0,0,1,.22-.58,1.16,1.16,0,0,1,.62-.33.6.6,0,0,1-.27-.23.57.57,0,0,1,0-.67,1.17,1.17,0,0,1,.35-.29A1.14,1.14,0,0,1,159,4.21a1.21,1.21,0,0,1,.39-1,1.67,1.67,0,0,1,1.11-.34l.33,0,.27,0Zm-3,4.37a.43.43,0,0,0,.23.4,1.35,1.35,0,0,0,.66.14,2,2,0,0,0,1-.19.56.56,0,0,0,.32-.5.38.38,0,0,0-.18-.35,1.4,1.4,0,0,0-.65-.1h-.61a.86.86,0,0,0-.55.16A.53.53,0,0,0,159.48,7.35Zm.34-3.14a.75.75,0,0,0,.18.54.7.7,0,0,0,.53.19c.46,0,.7-.24.7-.74a.81.81,0,0,0-.18-.57.66.66,0,0,0-.52-.2.69.69,0,0,0-.53.2A.82.82,0,0,0,159.82,4.21Z" transform="translate(-2.5 -1.41)" style="fill:#333"/><path d="M164.8,6.83a1.83,1.83,0,0,1-1.38-.51,2,2,0,0,1-.5-1.42,2.2,2.2,0,0,1,.46-1.46,1.61,1.61,0,0,1,1.27-.53,1.57,1.57,0,0,1,1.18.46,1.73,1.73,0,0,1,.44,1.25v.43h-2.52a1.23,1.23,0,0,0,.3.85,1,1,0,0,0,.79.3,3,3,0,0,0,1.24-.28v.65a2.23,2.23,0,0,1-.6.2A3.44,3.44,0,0,1,164.8,6.83Zm-.15-3.31a.78.78,0,0,0-.61.25,1.1,1.1,0,0,0-.28.7h1.72a1.06,1.06,0,0,0-.23-.71A.75.75,0,0,0,164.65,3.52Z" transform="translate(-2.5 -1.41)" style="fill:#333"/><path d="M169.72,5.69a1,1,0,0,1-.4.85,2,2,0,0,1-1.16.29A2.74,2.74,0,0,1,167,6.6V5.91a3.06,3.06,0,0,0,1.24.31c.49,0,.74-.15.74-.45a.36.36,0,0,0-.08-.24,1,1,0,0,0-.27-.2,3.91,3.91,0,0,0-.52-.23,2.47,2.47,0,0,1-.89-.51,1,1,0,0,1-.23-.65.87.87,0,0,1,.39-.76,1.86,1.86,0,0,1,1.07-.27,3,3,0,0,1,1.26.27l-.26.61a2.77,2.77,0,0,0-1-.25c-.42,0-.64.12-.64.36a.36.36,0,0,0,.17.3,4.16,4.16,0,0,0,.72.34,3.31,3.31,0,0,1,.68.33.91.91,0,0,1,.42.82Z" transform="translate(-2.5 -1.41)" style="fill:#333"/><path d="M173.21,6.76h-.8V1.44h.8Z" transform="translate(-2.5 -1.41)" style="fill:#333"/><path d="M177.71,4.87a2.08,2.08,0,0,1-.47,1.44,1.7,1.7,0,0,1-1.33.52,1.79,1.79,0,0,1-.93-.24,1.62,1.62,0,0,1-.63-.69,2.37,2.37,0,0,1-.22-1,2.06,2.06,0,0,1,.47-1.44,1.74,1.74,0,0,1,1.33-.52,1.67,1.67,0,0,1,1.3.53A2,2,0,0,1,177.71,4.87Zm-2.75,0c0,.87.32,1.3,1,1.3s.95-.43.95-1.3-.32-1.3-1-1.3a.8.8,0,0,0-.73.34A1.7,1.7,0,0,0,175,4.87Z" transform="translate(-2.5 -1.41)" style="fill:#333"/><path d="M180.16,6.83a1.69,1.69,0,0,1-1.31-.5,2.12,2.12,0,0,1-.44-1.44,2.05,2.05,0,0,1,.47-1.46,1.7,1.7,0,0,1,1.34-.52,2.52,2.52,0,0,1,1.08.23l-.24.64a2.5,2.5,0,0,0-.84-.2c-.66,0-1,.44-1,1.31a1.56,1.56,0,0,0,.24,1,.85.85,0,0,0,.72.32,2,2,0,0,0,1-.27V6.6a1.83,1.83,0,0,1-.46.18A3.25,3.25,0,0,1,180.16,6.83Z" transform="translate(-2.5 -1.41)" style="fill:#333"/><path d="M184.46,6.76l-.16-.52h0a1.75,1.75,0,0,1-.55.47,1.81,1.81,0,0,1-.71.12,1.18,1.18,0,0,1-.87-.3,1.12,1.12,0,0,1-.32-.85,1,1,0,0,1,.44-.88,2.5,2.5,0,0,1,1.32-.33l.65,0v-.2a.73.73,0,0,0-.17-.54.67.67,0,0,0-.52-.18,2.1,2.1,0,0,0-.56.08,3.89,3.89,0,0,0-.51.21l-.26-.58a2.8,2.8,0,0,1,.67-.24,3,3,0,0,1,.69-.09,1.63,1.63,0,0,1,1.09.32,1.22,1.22,0,0,1,.37,1V6.76Zm-1.19-.54A1,1,0,0,0,184,6a.87.87,0,0,0,.27-.68V5l-.49,0a1.69,1.69,0,0,0-.83.19.57.57,0,0,0-.25.52.51.51,0,0,0,.15.39A.65.65,0,0,0,183.27,6.22Z" transform="translate(-2.5 -1.41)" style="fill:#333"/><path d="M187,6.76h-.8V1.44h.8Z" transform="translate(-2.5 -1.41)" style="fill:#333"/><path d="M188.92,6.76h-.81V1.44h.81Z" transform="translate(-2.5 -1.41)" style="fill:#333"/><path d="M189.49,3h.87l.77,2.15a3.86,3.86,0,0,1,.24.86h0a2.87,2.87,0,0,1,.12-.46c.05-.18.34-1,.86-2.55h.87l-1.61,4.29a1.54,1.54,0,0,1-1.47,1.17,2.87,2.87,0,0,1-.52,0V7.75a1.73,1.73,0,0,0,.41,0,.85.85,0,0,0,.82-.67l.14-.36Z" transform="translate(-2.5 -1.41)" style="fill:#333"/><path d="M103.84,15.16l-.16-.52h0a1.64,1.64,0,0,1-.55.47,1.81,1.81,0,0,1-.71.12,1.21,1.21,0,0,1-.87-.3,1.11,1.11,0,0,1-.31-.85,1,1,0,0,1,.43-.88,2.5,2.5,0,0,1,1.32-.33l.65,0v-.2a.77.77,0,0,0-.16-.54.71.71,0,0,0-.53-.18,2.1,2.1,0,0,0-.56.08l-.51.21-.26-.58a3.29,3.29,0,0,1,1.37-.33,1.6,1.6,0,0,1,1.08.32,1.22,1.22,0,0,1,.37,1v2.54Zm-1.2-.54a1,1,0,0,0,.7-.25.87.87,0,0,0,.27-.68v-.33l-.49,0a1.62,1.62,0,0,0-.82.19.57.57,0,0,0-.26.52.51.51,0,0,0,.15.39A.65.65,0,0,0,102.64,14.62Z" transform="translate(-2.5 -1.41)" style="fill:#333"/><path d="M108.86,15.16h-.81V12.84a1.05,1.05,0,0,0-.17-.65.68.68,0,0,0-.56-.22.9.9,0,0,0-.75.3,1.65,1.65,0,0,0-.23,1v1.88h-.81V11.38h.63l.11.5h0a1.1,1.1,0,0,1,.48-.42,1.6,1.6,0,0,1,.7-.15,1.22,1.22,0,0,1,1.36,1.39Z" transform="translate(-2.5 -1.41)" style="fill:#333"/><path d="M111.25,15.23a1.31,1.31,0,0,1-1.1-.51,2.26,2.26,0,0,1-.4-1.44,2.31,2.31,0,0,1,.4-1.45,1.35,1.35,0,0,1,1.11-.52,1.33,1.33,0,0,1,1.14.55h0a4.58,4.58,0,0,1-.06-.64V9.84h.81v5.32h-.63l-.14-.49h0A1.29,1.29,0,0,1,111.25,15.23Zm.22-.65a.86.86,0,0,0,.72-.28,1.41,1.41,0,0,0,.23-.9v-.11a1.74,1.74,0,0,0-.23-1,.87.87,0,0,0-.73-.3.73.73,0,0,0-.65.34,1.71,1.71,0,0,0-.23,1,1.71,1.71,0,0,0,.22,1A.75.75,0,0,0,111.47,14.58Z" transform="translate(-2.5 -1.41)" style="fill:#333"/><path d="M118.07,15.23a1.3,1.3,0,0,1-1.11-.52h0c0,.32,0,.52,0,.59v1.54h-.8V11.38h.64q0,.1.12.51h0a1.27,1.27,0,0,1,1.13-.58,1.29,1.29,0,0,1,1.1.52,2.33,2.33,0,0,1,.39,1.44,2.28,2.28,0,0,1-.4,1.44A1.32,1.32,0,0,1,118.07,15.23ZM117.88,12a.83.83,0,0,0-.7.28,1.45,1.45,0,0,0-.22.9v.12a1.74,1.74,0,0,0,.22,1,.81.81,0,0,0,.71.3.71.71,0,0,0,.64-.34,1.76,1.76,0,0,0,.23-1,1.66,1.66,0,0,0-.22-1A.75.75,0,0,0,117.88,12Z" transform="translate(-2.5 -1.41)" style="fill:#333"/><path d="M123.18,15.16l-.11-.49h0a1.14,1.14,0,0,1-.48.41,1.57,1.57,0,0,1-.7.15,1.39,1.39,0,0,1-1-.34,1.44,1.44,0,0,1-.34-1V11.38h.81v2.33a1,1,0,0,0,.18.65.66.66,0,0,0,.56.22.89.89,0,0,0,.74-.3,1.65,1.65,0,0,0,.24-1V11.38h.81v3.78Z" transform="translate(-2.5 -1.41)" style="fill:#333"/><path d="M127.5,14.09a1,1,0,0,1-.4.84,1.93,1.93,0,0,1-1.16.3,2.74,2.74,0,0,1-1.21-.23v-.69a3.06,3.06,0,0,0,1.24.31c.49,0,.74-.15.74-.45a.36.36,0,0,0-.08-.24,1,1,0,0,0-.27-.2,3.91,3.91,0,0,0-.52-.23A2.47,2.47,0,0,1,125,13a1,1,0,0,1-.23-.65.87.87,0,0,1,.39-.76,1.86,1.86,0,0,1,1.07-.27,3,3,0,0,1,1.26.27l-.26.61a2.77,2.77,0,0,0-1-.25c-.42,0-.64.12-.64.36a.36.36,0,0,0,.17.3,4.16,4.16,0,0,0,.72.34,3.31,3.31,0,0,1,.68.33.91.91,0,0,1,.42.82Z" transform="translate(-2.5 -1.41)" style="fill:#333"/><path d="M131.69,15.16h-.8V12.84a1,1,0,0,0-.18-.65.66.66,0,0,0-.56-.22.88.88,0,0,0-.74.3,1.66,1.66,0,0,0-.24,1v1.87h-.8V9.84h.8v1.35a5.8,5.8,0,0,1,0,.7h.05a1.12,1.12,0,0,1,.46-.43,1.45,1.45,0,0,1,.68-.15,1.22,1.22,0,0,1,1.37,1.39Z" transform="translate(-2.5 -1.41)" style="fill:#333"/><path d="M134.46,15.23a1.83,1.83,0,0,1-1.38-.51,2,2,0,0,1-.49-1.42,2.15,2.15,0,0,1,.46-1.46,1.77,1.77,0,0,1,2.45-.07,1.73,1.73,0,0,1,.43,1.25v.43h-2.52a1.23,1.23,0,0,0,.3.85,1,1,0,0,0,.79.3,3,3,0,0,0,.62-.07,2.84,2.84,0,0,0,.62-.21V15a2.17,2.17,0,0,1-.59.2A3.54,3.54,0,0,1,134.46,15.23Zm-.14-3.31a.83.83,0,0,0-.62.24,1.21,1.21,0,0,0-.27.71h1.71a1.06,1.06,0,0,0-.22-.71A.78.78,0,0,0,134.32,11.92Z" transform="translate(-2.5 -1.41)" style="fill:#333"/><path d="M139.38,14.09a1,1,0,0,1-.4.84,1.9,1.9,0,0,1-1.15.3,2.79,2.79,0,0,1-1.22-.23v-.69a3.09,3.09,0,0,0,1.24.31c.5,0,.74-.15.74-.45a.32.32,0,0,0-.08-.24.78.78,0,0,0-.27-.2,3.39,3.39,0,0,0-.52-.23,2.32,2.32,0,0,1-.88-.51.91.91,0,0,1-.23-.65.87.87,0,0,1,.39-.76,1.83,1.83,0,0,1,1.06-.27,3,3,0,0,1,1.26.27l-.26.61a2.77,2.77,0,0,0-1-.25q-.63,0-.63.36a.35.35,0,0,0,.16.3,4.39,4.39,0,0,0,.73.34,3.31,3.31,0,0,1,.68.33.94.94,0,0,1,.31.35A1,1,0,0,1,139.38,14.09Z" transform="translate(-2.5 -1.41)" style="fill:#333"/><path d="M143.48,14.58a2.06,2.06,0,0,0,.59-.09v.6a1.34,1.34,0,0,1-.35.1,2,2,0,0,1-.43,0q-1.14,0-1.14-1.2V12h-.52v-.35l.55-.3.28-.8H143v.84H144V12H143v2a.55.55,0,0,0,.15.43A.48.48,0,0,0,143.48,14.58Z" transform="translate(-2.5 -1.41)" style="fill:#333"/><path d="M148.17,13.27a2,2,0,0,1-.47,1.44,1.7,1.7,0,0,1-1.32.52,1.8,1.8,0,0,1-.94-.24,1.54,1.54,0,0,1-.62-.69,2.23,2.23,0,0,1-.22-1,2,2,0,0,1,.47-1.44,1.72,1.72,0,0,1,1.33-.52,1.69,1.69,0,0,1,1.3.53A2,2,0,0,1,148.17,13.27Zm-2.75,0c0,.87.33,1.3,1,1.3s1-.43,1-1.3-.32-1.3-1-1.3a.81.81,0,0,0-.73.34A1.7,1.7,0,0,0,145.42,13.27Z" transform="translate(-2.5 -1.41)" style="fill:#333"/><path d="M153.05,12.45h1.83V15a5.11,5.11,0,0,1-.86.21,6.37,6.37,0,0,1-.9.06,2.24,2.24,0,0,1-1.75-.67,2.71,2.71,0,0,1-.61-1.9,2.51,2.51,0,0,1,.69-1.88,2.59,2.59,0,0,1,1.91-.69,3.69,3.69,0,0,1,1.48.3l-.28.68a3,3,0,0,0-1.22-.28,1.64,1.64,0,0,0-1.27.51,1.93,1.93,0,0,0-.46,1.37,2,2,0,0,0,.42,1.39,1.51,1.51,0,0,0,1.2.48,3.71,3.71,0,0,0,.85-.1V13.15h-1Z" transform="translate(-2.5 -1.41)" style="fill:#333"/><path d="M156,10.38a.45.45,0,0,1,.12-.33.45.45,0,0,1,.34-.12.41.41,0,0,1,.32.12.45.45,0,0,1,.12.33.41.41,0,0,1-.44.44.45.45,0,0,1-.34-.12A.41.41,0,0,1,156,10.38Zm.85,4.78H156V11.38h.8Z" transform="translate(-2.5 -1.41)" style="fill:#333"/><path d="M159.36,14.58a2.06,2.06,0,0,0,.59-.09v.6a1.34,1.34,0,0,1-.35.1,2,2,0,0,1-.43,0Q158,15.23,158,14V12h-.52v-.35l.55-.3.28-.8h.49v.84h1.08V12h-1.08v2a.55.55,0,0,0,.15.43A.48.48,0,0,0,159.36,14.58Z" transform="translate(-2.5 -1.41)" style="fill:#333"/><path d="M164.73,15.16h-.82V12.91H161.6v2.25h-.81v-5h.81v2h2.31v-2h.82Z" transform="translate(-2.5 -1.41)" style="fill:#333"/><path d="M168.62,15.16l-.11-.49h0a1.14,1.14,0,0,1-.48.41,1.57,1.57,0,0,1-.7.15,1.39,1.39,0,0,1-1-.34,1.44,1.44,0,0,1-.34-1V11.38h.81v2.33a1,1,0,0,0,.18.65.68.68,0,0,0,.56.22.88.88,0,0,0,.74-.3,1.65,1.65,0,0,0,.24-1V11.38h.81v3.78Z" transform="translate(-2.5 -1.41)" style="fill:#333"/><path d="M172.33,11.31a1.32,1.32,0,0,1,1.11.52,2.33,2.33,0,0,1,.39,1.44,2.26,2.26,0,0,1-.4,1.44,1.32,1.32,0,0,1-1.11.52,1.3,1.3,0,0,1-1.11-.52h-.06l-.15.45h-.6V9.84h.81v1.27c0,.09,0,.23,0,.42s0,.3,0,.35h0A1.26,1.26,0,0,1,172.33,11.31Zm-.21.66a.8.8,0,0,0-.69.29,1.54,1.54,0,0,0-.22,1v.06a1.84,1.84,0,0,0,.21,1,.84.84,0,0,0,.72.3.74.74,0,0,0,.65-.33,1.9,1.9,0,0,0,.22-1C173,12.4,172.71,12,172.12,12Z" transform="translate(-2.5 -1.41)" style="fill:#333"/><path d="M207.44,2.39a1.36,1.36,0,0,0-1.11.5,2.16,2.16,0,0,0-.4,1.38,2.13,2.13,0,0,0,.39,1.39,1.35,1.35,0,0,0,1.12.47,3.18,3.18,0,0,0,.62-.06l.61-.16v.7a3.67,3.67,0,0,1-1.33.22,2.13,2.13,0,0,1-1.68-.66,2.77,2.77,0,0,1-.59-1.91,3.06,3.06,0,0,1,.28-1.36,2.07,2.07,0,0,1,.83-.9,2.57,2.57,0,0,1,1.27-.31,3.05,3.05,0,0,1,1.41.33l-.29.68a4.33,4.33,0,0,0-.54-.21A1.66,1.66,0,0,0,207.44,2.39Z" transform="translate(-2.5 -1.41)" style="fill:#333"/><path d="M210.47,6.76h-.8V1.44h.8Z" transform="translate(-2.5 -1.41)" style="fill:#333"/><path d="M215,4.87a2,2,0,0,1-.48,1.44,1.67,1.67,0,0,1-1.32.52,1.79,1.79,0,0,1-.93-.24,1.56,1.56,0,0,1-.63-.69,2.23,2.23,0,0,1-.22-1,2.06,2.06,0,0,1,.47-1.44,1.74,1.74,0,0,1,1.33-.52,1.67,1.67,0,0,1,1.3.53A2,2,0,0,1,215,4.87Zm-2.75,0c0,.87.32,1.3,1,1.3s.95-.43.95-1.3-.32-1.3-1-1.3a.8.8,0,0,0-.73.34A1.62,1.62,0,0,0,212.22,4.87Z" transform="translate(-2.5 -1.41)" style="fill:#333"/><path d="M218.56,6.76l-.11-.49h0a1.18,1.18,0,0,1-.47.41,1.61,1.61,0,0,1-.71.15,1.35,1.35,0,0,1-1-.34,1.4,1.4,0,0,1-.34-1V3h.81V5.31a1,1,0,0,0,.18.65.64.64,0,0,0,.55.22.9.9,0,0,0,.75-.3,1.65,1.65,0,0,0,.23-1V3h.81V6.76Z" transform="translate(-2.5 -1.41)" style="fill:#333"/><path d="M221.61,6.83a1.31,1.31,0,0,1-1.1-.51,2.26,2.26,0,0,1-.4-1.44,2.31,2.31,0,0,1,.4-1.45,1.35,1.35,0,0,1,1.11-.52,1.33,1.33,0,0,1,1.14.55h0a4.58,4.58,0,0,1-.06-.64V1.44h.81V6.76h-.63l-.14-.49h0A1.29,1.29,0,0,1,221.61,6.83Zm.22-.65a.86.86,0,0,0,.72-.28,1.41,1.41,0,0,0,.23-.9V4.89a1.74,1.74,0,0,0-.23-1,.87.87,0,0,0-.73-.3.73.73,0,0,0-.65.34,1.71,1.71,0,0,0-.23,1,1.71,1.71,0,0,0,.22,1A.75.75,0,0,0,221.83,6.18Z" transform="translate(-2.5 -1.41)" style="fill:#333"/><path d="M226.91,2.39a1.36,1.36,0,0,0-1.11.5,2.16,2.16,0,0,0-.4,1.38,2.13,2.13,0,0,0,.39,1.39,1.34,1.34,0,0,0,1.12.47,3,3,0,0,0,.61-.06c.2,0,.41-.1.62-.16v.7a3.67,3.67,0,0,1-1.33.22,2.16,2.16,0,0,1-1.69-.66,2.81,2.81,0,0,1-.58-1.91,3.06,3.06,0,0,1,.28-1.36,2.07,2.07,0,0,1,.83-.9,2.57,2.57,0,0,1,1.27-.31,3.05,3.05,0,0,1,1.41.33L228,2.7a4.33,4.33,0,0,0-.54-.21A1.66,1.66,0,0,0,226.91,2.39Z" transform="translate(-2.5 -1.41)" style="fill:#333"/><path d="M231.5,6.76l-.16-.52h0a1.55,1.55,0,0,1-.55.47,1.78,1.78,0,0,1-.71.12,1.21,1.21,0,0,1-.87-.3,1.11,1.11,0,0,1-.31-.85,1,1,0,0,1,.43-.88,2.5,2.5,0,0,1,1.32-.33l.66,0v-.2a.78.78,0,0,0-.17-.54.69.69,0,0,0-.53-.18,2,2,0,0,0-.55.08,4.71,4.71,0,0,0-.52.21l-.26-.58a2.88,2.88,0,0,1,.68-.24,2.84,2.84,0,0,1,.69-.09,1.65,1.65,0,0,1,1.09.32,1.25,1.25,0,0,1,.36,1V6.76Zm-1.2-.54A1,1,0,0,0,231,6a.87.87,0,0,0,.27-.68V5l-.49,0a1.65,1.65,0,0,0-.82.19.57.57,0,0,0-.26.52.51.51,0,0,0,.15.39A.65.65,0,0,0,230.3,6.22Z" transform="translate(-2.5 -1.41)" style="fill:#333"/><path d="M236.52,6.76h-.81V4.44a1.05,1.05,0,0,0-.17-.65.68.68,0,0,0-.56-.22.9.9,0,0,0-.75.3,1.73,1.73,0,0,0-.23,1V6.76h-.81V3h.63l.12.5h0a1.1,1.1,0,0,1,.48-.42,1.6,1.6,0,0,1,.7-.15,1.22,1.22,0,0,1,1.36,1.39Z" transform="translate(-2.5 -1.41)" style="fill:#333"/><path d="M241,6.76h-.8V4.44a1,1,0,0,0-.18-.65.66.66,0,0,0-.56-.22.87.87,0,0,0-.74.3,1.65,1.65,0,0,0-.24,1V6.76h-.8V3h.63l.11.5h0a1.13,1.13,0,0,1,.49-.42,1.58,1.58,0,0,1,.69-.15A1.22,1.22,0,0,1,241,4.3Z" transform="translate(-2.5 -1.41)" style="fill:#333"/><path d="M245.43,4.87A2,2,0,0,1,245,6.31a1.7,1.7,0,0,1-1.32.52,1.8,1.8,0,0,1-.94-.24,1.62,1.62,0,0,1-.63-.69,2.37,2.37,0,0,1-.21-1,2,2,0,0,1,.47-1.44,1.72,1.72,0,0,1,1.33-.52,1.69,1.69,0,0,1,1.3.53A2.09,2.09,0,0,1,245.43,4.87Zm-2.75,0c0,.87.32,1.3,1,1.3s1-.43,1-1.3-.32-1.3-1-1.3a.81.81,0,0,0-.73.34A1.7,1.7,0,0,0,242.68,4.87Z" transform="translate(-2.5 -1.41)" style="fill:#333"/><path d="M249.68,6.76h-.8V4.44a1,1,0,0,0-.18-.65.66.66,0,0,0-.56-.22.87.87,0,0,0-.74.3,1.65,1.65,0,0,0-.24,1V6.76h-.8V3H247l.11.5h0a1.13,1.13,0,0,1,.49-.42,1.55,1.55,0,0,1,.69-.15,1.22,1.22,0,0,1,1.36,1.39Z" transform="translate(-2.5 -1.41)" style="fill:#333"/><path d="M255.16,5.69a1,1,0,0,1-.41.85,2,2,0,0,1-1.15.29,2.74,2.74,0,0,1-1.21-.23V5.91a3,3,0,0,0,1.24.31c.49,0,.74-.15.74-.45a.36.36,0,0,0-.08-.24,1,1,0,0,0-.27-.2,3.58,3.58,0,0,0-.53-.23,2.41,2.41,0,0,1-.88-.51,1,1,0,0,1-.23-.65.87.87,0,0,1,.39-.76,1.86,1.86,0,0,1,1.07-.27,3,3,0,0,1,1.26.27l-.26.61a2.77,2.77,0,0,0-1-.25c-.43,0-.64.12-.64.36a.36.36,0,0,0,.17.3,4.16,4.16,0,0,0,.72.34,3.31,3.31,0,0,1,.68.33,1,1,0,0,1,.32.35A1.09,1.09,0,0,1,255.16,5.69Z" transform="translate(-2.5 -1.41)" style="fill:#333"/><path d="M255.45,3h.88l.77,2.15a4.42,4.42,0,0,1,.23.86h0a2.72,2.72,0,0,1,.11-.46q.07-.27.87-2.55h.87l-1.62,4.29a1.54,1.54,0,0,1-1.47,1.17,3,3,0,0,1-.52,0V7.75a1.73,1.73,0,0,0,.41,0,.85.85,0,0,0,.82-.67l.14-.36Z" transform="translate(-2.5 -1.41)" style="fill:#333"/><path d="M263.11,6.76h-.81V4.44a1,1,0,0,0-.18-.65.66.66,0,0,0-.56-.22.88.88,0,0,0-.74.3,1.65,1.65,0,0,0-.24,1V6.76h-.8V3h.63l.11.5h0a1.19,1.19,0,0,1,.49-.42,1.58,1.58,0,0,1,.69-.15,1.22,1.22,0,0,1,1.37,1.39Z" transform="translate(-2.5 -1.41)" style="fill:#333"/><path d="M265.75,6.83a1.69,1.69,0,0,1-1.31-.5A2.12,2.12,0,0,1,264,4.89a2.1,2.1,0,0,1,.46-1.46,1.71,1.71,0,0,1,1.35-.52,2.52,2.52,0,0,1,1.08.23l-.24.64a2.5,2.5,0,0,0-.84-.2c-.66,0-1,.44-1,1.31a1.56,1.56,0,0,0,.25,1,.84.84,0,0,0,.71.32,2,2,0,0,0,1-.27V6.6a1.83,1.83,0,0,1-.46.18A3.25,3.25,0,0,1,265.75,6.83Z" transform="translate(-2.5 -1.41)" style="fill:#333"/><path d="M270.23,5.69a1,1,0,0,1-.41.85,2,2,0,0,1-1.15.29,2.74,2.74,0,0,1-1.21-.23V5.91a3,3,0,0,0,1.24.31c.49,0,.74-.15.74-.45a.36.36,0,0,0-.08-.24,1,1,0,0,0-.27-.2,3.58,3.58,0,0,0-.53-.23,2.41,2.41,0,0,1-.88-.51,1,1,0,0,1-.23-.65.87.87,0,0,1,.39-.76,1.86,1.86,0,0,1,1.07-.27,3,3,0,0,1,1.26.27l-.26.61a2.77,2.77,0,0,0-1-.25c-.43,0-.64.12-.64.36a.36.36,0,0,0,.17.3,4.16,4.16,0,0,0,.72.34,3.31,3.31,0,0,1,.68.33,1,1,0,0,1,.32.35A1.09,1.09,0,0,1,270.23,5.69Z" transform="translate(-2.5 -1.41)" style="fill:#333"/><path d="M274.44,6.83a1.65,1.65,0,0,1-1.3-.5,2.07,2.07,0,0,1-.45-1.44,2.05,2.05,0,0,1,.47-1.46,1.7,1.7,0,0,1,1.34-.52,2.52,2.52,0,0,1,1.08.23l-.24.64a2.5,2.5,0,0,0-.84-.2c-.66,0-1,.44-1,1.31a1.56,1.56,0,0,0,.24,1,.85.85,0,0,0,.72.32,2,2,0,0,0,1-.27V6.6a1.83,1.83,0,0,1-.46.18A3.25,3.25,0,0,1,274.44,6.83Z" transform="translate(-2.5 -1.41)" style="fill:#333"/><path d="M279.71,6.76h-.81V4.44a1,1,0,0,0-.18-.65.65.65,0,0,0-.56-.22.89.89,0,0,0-.74.3,1.66,1.66,0,0,0-.24,1V6.76h-.8V1.44h.8V2.79a5.8,5.8,0,0,1,0,.7h.05a1.19,1.19,0,0,1,.46-.43,1.48,1.48,0,0,1,.68-.15,1.23,1.23,0,0,1,1.38,1.39Z" transform="translate(-2.5 -1.41)" style="fill:#333"/><path d="M283.19,6.76,283,6.24h0a1.55,1.55,0,0,1-.55.47,1.78,1.78,0,0,1-.71.12,1.21,1.21,0,0,1-.87-.3,1.11,1.11,0,0,1-.31-.85A1,1,0,0,1,281,4.8a2.5,2.5,0,0,1,1.32-.33l.66,0v-.2a.78.78,0,0,0-.17-.54.69.69,0,0,0-.53-.18,2,2,0,0,0-.55.08,4.71,4.71,0,0,0-.52.21l-.26-.58a2.88,2.88,0,0,1,.68-.24,2.84,2.84,0,0,1,.69-.09,1.65,1.65,0,0,1,1.09.32,1.25,1.25,0,0,1,.36,1V6.76ZM282,6.22a1,1,0,0,0,.7-.25.87.87,0,0,0,.27-.68V5l-.49,0a1.65,1.65,0,0,0-.82.19.57.57,0,0,0-.26.52.51.51,0,0,0,.15.39A.65.65,0,0,0,282,6.22Z" transform="translate(-2.5 -1.41)" style="fill:#333"/><path d="M288.21,6.76h-.81V4.44a1.05,1.05,0,0,0-.17-.65.68.68,0,0,0-.56-.22.9.9,0,0,0-.75.3,1.73,1.73,0,0,0-.23,1V6.76h-.81V3h.63l.12.5h0a1.1,1.1,0,0,1,.48-.42,1.6,1.6,0,0,1,.7-.15,1.22,1.22,0,0,1,1.36,1.39Z" transform="translate(-2.5 -1.41)" style="fill:#333"/><path d="M292.52,3v.44l-.65.12a1.05,1.05,0,0,1,.15.3,1.1,1.1,0,0,1,.06.37,1.17,1.17,0,0,1-.4.92,1.71,1.71,0,0,1-1.11.33,1.61,1.61,0,0,1-.33,0,.45.45,0,0,0-.26.38.2.2,0,0,0,.12.19.92.92,0,0,0,.44.07h.66a1.44,1.44,0,0,1,.95.27.91.91,0,0,1,.33.76,1.15,1.15,0,0,1-.53,1,2.8,2.8,0,0,1-1.53.34,2.12,2.12,0,0,1-1.18-.27.88.88,0,0,1-.41-.78.83.83,0,0,1,.22-.58,1.2,1.2,0,0,1,.62-.33.62.62,0,0,1-.37-.54.52.52,0,0,1,.12-.36,1.23,1.23,0,0,1,.36-.29,1.08,1.08,0,0,1-.48-.42,1.21,1.21,0,0,1-.18-.66,1.24,1.24,0,0,1,.38-1,1.67,1.67,0,0,1,1.11-.34l.34,0,.26,0Zm-3,4.37a.45.45,0,0,0,.23.4,1.35,1.35,0,0,0,.66.14,1.93,1.93,0,0,0,1-.19.56.56,0,0,0,.32-.5.39.39,0,0,0-.17-.35,1.45,1.45,0,0,0-.66-.1h-.61a.86.86,0,0,0-.55.16A.56.56,0,0,0,289.55,7.35Zm.35-3.14a.75.75,0,0,0,.18.54.67.67,0,0,0,.52.19c.47,0,.7-.24.7-.74a.86.86,0,0,0-.17-.57.68.68,0,0,0-.53-.2.69.69,0,0,0-.53.2A.82.82,0,0,0,289.9,4.21Z" transform="translate(-2.5 -1.41)" style="fill:#333"/><path d="M294.87,6.83a1.83,1.83,0,0,1-1.38-.51A2,2,0,0,1,293,4.9a2.15,2.15,0,0,1,.46-1.46,1.77,1.77,0,0,1,2.45-.07,1.73,1.73,0,0,1,.43,1.25v.43h-2.52a1.23,1.23,0,0,0,.3.85,1,1,0,0,0,.79.3,3,3,0,0,0,.62-.07,2.84,2.84,0,0,0,.62-.21v.65a2.17,2.17,0,0,1-.59.2A3.54,3.54,0,0,1,294.87,6.83Zm-.15-3.31a.78.78,0,0,0-.61.25,1.15,1.15,0,0,0-.27.7h1.71a1.06,1.06,0,0,0-.22-.71A.79.79,0,0,0,294.72,3.52Z" transform="translate(-2.5 -1.41)" style="fill:#333"/><path d="M299.79,5.69a1,1,0,0,1-.4.85,2,2,0,0,1-1.16.29A2.77,2.77,0,0,1,297,6.6V5.91a3.09,3.09,0,0,0,1.24.31c.5,0,.74-.15.74-.45a.32.32,0,0,0-.08-.24.78.78,0,0,0-.27-.2,3.39,3.39,0,0,0-.52-.23,2.32,2.32,0,0,1-.88-.51.92.92,0,0,1-.24-.65.88.88,0,0,1,.4-.76,1.83,1.83,0,0,1,1.06-.27,3,3,0,0,1,1.26.27l-.26.61a2.77,2.77,0,0,0-1-.25q-.63,0-.63.36a.35.35,0,0,0,.16.3,4,4,0,0,0,.73.34,3.31,3.31,0,0,1,.68.33.94.94,0,0,1,.31.35A1,1,0,0,1,299.79,5.69Z" transform="translate(-2.5 -1.41)" style="fill:#333"/><path d="M304.38,3.59h-.93V6.76h-.8V3.59H302V3.21l.62-.24V2.72a1.38,1.38,0,0,1,.31-1,1.27,1.27,0,0,1,1-.32,2.43,2.43,0,0,1,.84.14l-.22.61a1.62,1.62,0,0,0-.56-.1.46.46,0,0,0-.4.17.87.87,0,0,0-.13.51V3h.93Z" transform="translate(-2.5 -1.41)" style="fill:#333"/><path d="M306.94,2.91a2.15,2.15,0,0,1,.4,0l-.08.75a1.42,1.42,0,0,0-.36,0,1,1,0,0,0-.78.31,1.13,1.13,0,0,0-.3.82v2H305V3h.63l.1.67h.05a1.35,1.35,0,0,1,.49-.54A1.16,1.16,0,0,1,306.94,2.91Z" transform="translate(-2.5 -1.41)" style="fill:#333"/><path d="M311.39,4.87a2.08,2.08,0,0,1-.47,1.44,1.7,1.7,0,0,1-1.33.52,1.79,1.79,0,0,1-.93-.24A1.62,1.62,0,0,1,308,5.9a2.23,2.23,0,0,1-.22-1,2.06,2.06,0,0,1,.47-1.44,1.74,1.74,0,0,1,1.33-.52,1.67,1.67,0,0,1,1.3.53A2,2,0,0,1,311.39,4.87Zm-2.75,0c0,.87.32,1.3,1,1.3s.95-.43.95-1.3-.32-1.3-1-1.3a.8.8,0,0,0-.73.34A1.62,1.62,0,0,0,308.64,4.87Z" transform="translate(-2.5 -1.41)" style="fill:#333"/><path d="M315.5,6.76h-.81V4.43a1.08,1.08,0,0,0-.16-.65.61.61,0,0,0-.51-.21.81.81,0,0,0-.69.3,1.83,1.83,0,0,0-.21,1V6.76h-.81V3h.63l.12.5h0a1,1,0,0,1,.45-.42,1.45,1.45,0,0,1,.66-.15,1.16,1.16,0,0,1,1.16.6h.05a1.17,1.17,0,0,1,.47-.44,1.57,1.57,0,0,1,.7-.16,1.28,1.28,0,0,1,1,.35,1.52,1.52,0,0,1,.3,1V6.76h-.8V4.43a1.08,1.08,0,0,0-.16-.65.63.63,0,0,0-.52-.21.8.8,0,0,0-.68.29,1.49,1.49,0,0,0-.22.9Z" transform="translate(-2.5 -1.41)" style="fill:#333"/><path d="M202.68,12.45h1.84V15a5.11,5.11,0,0,1-.86.21,6.37,6.37,0,0,1-.9.06,2.24,2.24,0,0,1-1.75-.67,2.72,2.72,0,0,1-.62-1.9,2.52,2.52,0,0,1,.7-1.88,2.59,2.59,0,0,1,1.91-.69,3.73,3.73,0,0,1,1.48.3l-.29.68a3,3,0,0,0-1.21-.28,1.63,1.63,0,0,0-1.27.51,1.93,1.93,0,0,0-.46,1.37,2,2,0,0,0,.42,1.39,1.51,1.51,0,0,0,1.2.48,3.71,3.71,0,0,0,.85-.1V13.15h-1Z" transform="translate(-2.5 -1.41)" style="fill:#333"/><path d="M205.59,10.38a.42.42,0,0,1,.45-.45.42.42,0,0,1,.33.12.45.45,0,0,1,.12.33.41.41,0,0,1-.12.32.42.42,0,0,1-.33.12.45.45,0,0,1-.33-.12A.41.41,0,0,1,205.59,10.38Zm.85,4.78h-.8V11.38h.8Z" transform="translate(-2.5 -1.41)" style="fill:#333"/><path d="M209,14.58a2.06,2.06,0,0,0,.59-.09v.6a1.34,1.34,0,0,1-.35.1,2,2,0,0,1-.43,0c-.77,0-1.15-.4-1.15-1.2V12h-.51v-.35l.55-.3.28-.8h.49v.84h1.08V12h-1.08v2a.55.55,0,0,0,.15.43A.48.48,0,0,0,209,14.58Z" transform="translate(-2.5 -1.41)" style="fill:#333"/><path d="M214.37,15.16h-.82V12.91h-2.31v2.25h-.81v-5h.81v2h2.31v-2h.82Z" transform="translate(-2.5 -1.41)" style="fill:#333"/><path d="M218.26,15.16l-.11-.49h0a1.14,1.14,0,0,1-.48.41,1.57,1.57,0,0,1-.7.15,1.39,1.39,0,0,1-1-.34,1.44,1.44,0,0,1-.34-1V11.38h.81v2.33a1,1,0,0,0,.18.65.68.68,0,0,0,.56.22.88.88,0,0,0,.74-.3,1.65,1.65,0,0,0,.24-1V11.38h.81v3.78Z" transform="translate(-2.5 -1.41)" style="fill:#333"/><path d="M222,11.31a1.29,1.29,0,0,1,1.1.52,2.26,2.26,0,0,1,.4,1.44,2.26,2.26,0,0,1-.4,1.44,1.46,1.46,0,0,1-2.23,0h-.05l-.15.45H220V9.84h.8v1.27c0,.09,0,.23,0,.42s0,.3,0,.35h0A1.29,1.29,0,0,1,222,11.31Zm-.21.66a.84.84,0,0,0-.7.29,1.7,1.7,0,0,0-.22,1v.06a1.83,1.83,0,0,0,.22,1,.84.84,0,0,0,.72.3.71.71,0,0,0,.64-.33,1.8,1.8,0,0,0,.23-1C222.65,12.4,222.35,12,221.76,12Z" transform="translate(-2.5 -1.41)" style="fill:#333"/><path d="M228.59,15.16l-.17-.52h0a1.64,1.64,0,0,1-.55.47,1.81,1.81,0,0,1-.71.12,1.19,1.19,0,0,1-.87-.3,1.12,1.12,0,0,1-.32-.85,1,1,0,0,1,.44-.88,2.5,2.5,0,0,1,1.32-.33l.65,0v-.2a.73.73,0,0,0-.17-.54.67.67,0,0,0-.52-.18,2.1,2.1,0,0,0-.56.08,3.89,3.89,0,0,0-.51.21l-.26-.58a2.8,2.8,0,0,1,.67-.24,3,3,0,0,1,.69-.09,1.63,1.63,0,0,1,1.09.32,1.22,1.22,0,0,1,.37,1v2.54Zm-1.2-.54a1,1,0,0,0,.7-.25.87.87,0,0,0,.27-.68v-.33l-.49,0a1.62,1.62,0,0,0-.82.19.55.55,0,0,0-.26.52.51.51,0,0,0,.15.39A.65.65,0,0,0,227.39,14.62Z" transform="translate(-2.5 -1.41)" style="fill:#333"/><path d="M233.61,15.16h-.81V12.84a1,1,0,0,0-.18-.65.64.64,0,0,0-.55-.22.9.9,0,0,0-.75.3,1.65,1.65,0,0,0-.24,1v1.88h-.8V11.38h.63l.11.5h0a1.19,1.19,0,0,1,.49-.42,1.6,1.6,0,0,1,.7-.15,1.22,1.22,0,0,1,1.36,1.39Z" transform="translate(-2.5 -1.41)" style="fill:#333"/><path d="M236,15.23a1.31,1.31,0,0,1-1.1-.51,2.26,2.26,0,0,1-.4-1.44,2.31,2.31,0,0,1,.4-1.45,1.35,1.35,0,0,1,1.11-.52,1.33,1.33,0,0,1,1.14.55h0a4.58,4.58,0,0,1-.06-.64V9.84h.81v5.32h-.63l-.14-.49h0A1.29,1.29,0,0,1,236,15.23Zm.21-.65a.88.88,0,0,0,.73-.28,1.48,1.48,0,0,0,.23-.9v-.11a1.74,1.74,0,0,0-.23-1,.87.87,0,0,0-.73-.3.75.75,0,0,0-.66.34,1.8,1.8,0,0,0-.22,1,1.71,1.71,0,0,0,.22,1A.75.75,0,0,0,236.21,14.58Z" transform="translate(-2.5 -1.41)" style="fill:#333"/><path d="M244.09,15.16h-.81V12.83a1.08,1.08,0,0,0-.16-.65.61.61,0,0,0-.51-.21.81.81,0,0,0-.69.3,1.83,1.83,0,0,0-.21,1v1.88h-.81V11.38h.63l.12.5h0a1,1,0,0,1,.45-.42,1.45,1.45,0,0,1,.66-.15,1.16,1.16,0,0,1,1.16.6h0a1.17,1.17,0,0,1,.47-.44,1.6,1.6,0,0,1,.7-.16,1.28,1.28,0,0,1,1,.35,1.52,1.52,0,0,1,.31,1v2.46h-.81V12.83a1.08,1.08,0,0,0-.16-.65A.63.63,0,0,0,245,12a.8.8,0,0,0-.68.29,1.49,1.49,0,0,0-.22.9Z" transform="translate(-2.5 -1.41)" style="fill:#333"/><path d="M250,15.16l-.16-.52h0a1.55,1.55,0,0,1-.55.47,1.78,1.78,0,0,1-.71.12,1.21,1.21,0,0,1-.87-.3,1.11,1.11,0,0,1-.31-.85,1,1,0,0,1,.43-.88,2.51,2.51,0,0,1,1.33-.33l.65,0v-.2a.78.78,0,0,0-.17-.54.68.68,0,0,0-.52-.18,2,2,0,0,0-.56.08,3.89,3.89,0,0,0-.51.21l-.26-.58a2.8,2.8,0,0,1,.67-.24,2.84,2.84,0,0,1,.69-.09,1.65,1.65,0,0,1,1.09.32,1.25,1.25,0,0,1,.37,1v2.54Zm-1.19-.54a1,1,0,0,0,.7-.25.9.9,0,0,0,.26-.68v-.33l-.48,0a1.66,1.66,0,0,0-.83.19.57.57,0,0,0-.26.52.51.51,0,0,0,.15.39A.67.67,0,0,0,248.77,14.62Z" transform="translate(-2.5 -1.41)" style="fill:#333"/><path d="M252.43,13.17l.46-.57L254,11.38H255L253.43,13l1.62,2.15h-.94l-1.22-1.66-.44.37v1.29h-.79V9.84h.79v2.6l0,.73Z" transform="translate(-2.5 -1.41)" style="fill:#333"/><path d="M257.31,15.23a1.83,1.83,0,0,1-1.38-.51,2,2,0,0,1-.5-1.42,2.15,2.15,0,0,1,.47-1.46,1.77,1.77,0,0,1,2.45-.07,1.73,1.73,0,0,1,.43,1.25v.43h-2.52a1.23,1.23,0,0,0,.3.85,1,1,0,0,0,.79.3,3,3,0,0,0,1.24-.28V15a2.17,2.17,0,0,1-.59.2A3.54,3.54,0,0,1,257.31,15.23Zm-.15-3.31a.81.81,0,0,0-.61.24,1.21,1.21,0,0,0-.28.71H258a1,1,0,0,0-.23-.71A.75.75,0,0,0,257.16,11.92Z" transform="translate(-2.5 -1.41)" style="fill:#333"/><path d="M262.23,14.09a1,1,0,0,1-.4.84,1.93,1.93,0,0,1-1.16.3,2.77,2.77,0,0,1-1.21-.23v-.69a3.06,3.06,0,0,0,1.24.31c.5,0,.74-.15.74-.45a.32.32,0,0,0-.08-.24.78.78,0,0,0-.27-.2,3.91,3.91,0,0,0-.52-.23,2.47,2.47,0,0,1-.89-.51,1,1,0,0,1-.23-.65.87.87,0,0,1,.39-.76,1.88,1.88,0,0,1,1.07-.27,3,3,0,0,1,1.26.27l-.26.61a2.77,2.77,0,0,0-1-.25q-.63,0-.63.36a.35.35,0,0,0,.16.3,4.16,4.16,0,0,0,.72.34,3.45,3.45,0,0,1,.69.33.94.94,0,0,1,.31.35A1,1,0,0,1,262.23,14.09Z" transform="translate(-2.5 -1.41)" style="fill:#333"/><path d="M266.33,14.58a2,2,0,0,0,.58-.09v.6a1.15,1.15,0,0,1-.34.1,2,2,0,0,1-.43,0c-.77,0-1.15-.4-1.15-1.2V12h-.51v-.35l.55-.3.27-.8h.5v.84h1.08V12H265.8v2a.55.55,0,0,0,.15.43A.48.48,0,0,0,266.33,14.58Z" transform="translate(-2.5 -1.41)" style="fill:#333"/><path d="M271,15.16h-.81V12.84a1,1,0,0,0-.18-.65.65.65,0,0,0-.56-.22.89.89,0,0,0-.74.3,1.66,1.66,0,0,0-.24,1v1.87h-.8V9.84h.8v1.35a5.8,5.8,0,0,1,0,.7h.05a1.19,1.19,0,0,1,.46-.43,1.45,1.45,0,0,1,.68-.15A1.23,1.23,0,0,1,271,12.7Z" transform="translate(-2.5 -1.41)" style="fill:#333"/><path d="M273.76,15.23a1.86,1.86,0,0,1-1.38-.51,2,2,0,0,1-.49-1.42,2.15,2.15,0,0,1,.46-1.46,1.61,1.61,0,0,1,1.27-.53,1.57,1.57,0,0,1,1.18.46,1.73,1.73,0,0,1,.43,1.25v.43h-2.52a1.33,1.33,0,0,0,.3.85,1,1,0,0,0,.79.3,3.2,3.2,0,0,0,.63-.07,3.24,3.24,0,0,0,.62-.21V15a2.35,2.35,0,0,1-.6.2A3.54,3.54,0,0,1,273.76,15.23Zm-.14-3.31a.83.83,0,0,0-.62.24,1.21,1.21,0,0,0-.27.71h1.71a1.06,1.06,0,0,0-.22-.71A.78.78,0,0,0,273.62,11.92Z" transform="translate(-2.5 -1.41)" style="fill:#333"/><path d="M279.33,15.16h-.8V12.83a1.07,1.07,0,0,0-.17-.65.61.61,0,0,0-.51-.21.78.78,0,0,0-.68.3,1.74,1.74,0,0,0-.22,1v1.88h-.8V11.38h.63l.11.5h0a1,1,0,0,1,.46-.42,1.41,1.41,0,0,1,.65-.15,1.16,1.16,0,0,1,1.16.6h.05a1.2,1.2,0,0,1,.48-.44,1.53,1.53,0,0,1,.69-.16,1.28,1.28,0,0,1,1,.35,1.52,1.52,0,0,1,.31,1v2.46h-.81V12.83a1.08,1.08,0,0,0-.16-.65.62.62,0,0,0-.52-.21.8.8,0,0,0-.68.29,1.49,1.49,0,0,0-.22.9Z" transform="translate(-2.5 -1.41)" style="fill:#333"/><path d="M287,15.16l-.16-.52h0a1.55,1.55,0,0,1-.55.47,1.78,1.78,0,0,1-.71.12,1.21,1.21,0,0,1-.87-.3,1.15,1.15,0,0,1-.31-.85,1,1,0,0,1,.43-.88,2.54,2.54,0,0,1,1.33-.33l.65,0v-.2a.78.78,0,0,0-.17-.54.68.68,0,0,0-.52-.18,2,2,0,0,0-.56.08,3.89,3.89,0,0,0-.51.21l-.26-.58a2.8,2.8,0,0,1,.67-.24,2.84,2.84,0,0,1,.69-.09,1.65,1.65,0,0,1,1.09.32,1.25,1.25,0,0,1,.37,1v2.54Zm-1.19-.54a1,1,0,0,0,.7-.25.86.86,0,0,0,.26-.68v-.33l-.48,0a1.66,1.66,0,0,0-.83.19.57.57,0,0,0-.26.52.48.48,0,0,0,.16.39A.65.65,0,0,0,285.83,14.62Z" transform="translate(-2.5 -1.41)" style="fill:#333"/><path d="M289.58,15.16l-1.44-3.78H289l.77,2.2a4.71,4.71,0,0,1,.24.9h0a5.61,5.61,0,0,1,.24-.9l.77-2.2h.85l-1.44,3.78Z" transform="translate(-2.5 -1.41)" style="fill:#333"/><path d="M294.83,15.16l-.16-.52h0a1.55,1.55,0,0,1-.55.47,1.78,1.78,0,0,1-.71.12,1.21,1.21,0,0,1-.87-.3,1.11,1.11,0,0,1-.31-.85,1,1,0,0,1,.43-.88,2.5,2.5,0,0,1,1.32-.33l.66,0v-.2a.78.78,0,0,0-.17-.54.69.69,0,0,0-.53-.18,2,2,0,0,0-.55.08,4.71,4.71,0,0,0-.52.21l-.26-.58a2.88,2.88,0,0,1,.68-.24,2.84,2.84,0,0,1,.69-.09,1.65,1.65,0,0,1,1.09.32,1.25,1.25,0,0,1,.36,1v2.54Zm-1.2-.54a1,1,0,0,0,.71-.25.9.9,0,0,0,.26-.68v-.33l-.49,0a1.65,1.65,0,0,0-.82.19.57.57,0,0,0-.26.52.51.51,0,0,0,.15.39A.65.65,0,0,0,293.63,14.62Z" transform="translate(-2.5 -1.41)" style="fill:#333"/><path d="M296.48,10.38a.49.49,0,0,1,.11-.33.47.47,0,0,1,.34-.12.42.42,0,0,1,.45.45.41.41,0,0,1-.12.32.45.45,0,0,1-.33.12.47.47,0,0,1-.34-.12A.44.44,0,0,1,296.48,10.38Zm.85,4.78h-.81V11.38h.81Z" transform="translate(-2.5 -1.41)" style="fill:#333"/><path d="M299.28,15.16h-.8V9.84h.8Z" transform="translate(-2.5 -1.41)" style="fill:#333"/><path d="M302.79,15.16l-.16-.52h0a1.67,1.67,0,0,1-.56.47,1.78,1.78,0,0,1-.71.12,1.21,1.21,0,0,1-.87-.3,1.15,1.15,0,0,1-.31-.85,1,1,0,0,1,.44-.88,2.47,2.47,0,0,1,1.32-.33l.65,0v-.2a.78.78,0,0,0-.17-.54.68.68,0,0,0-.52-.18,2,2,0,0,0-.56.08,3.89,3.89,0,0,0-.51.21l-.26-.58a2.8,2.8,0,0,1,.67-.24,2.84,2.84,0,0,1,.69-.09,1.65,1.65,0,0,1,1.09.32,1.25,1.25,0,0,1,.37,1v2.54Zm-1.19-.54a1,1,0,0,0,.7-.25.86.86,0,0,0,.26-.68v-.33l-.48,0a1.69,1.69,0,0,0-.83.19.57.57,0,0,0-.25.52.51.51,0,0,0,.15.39A.65.65,0,0,0,301.6,14.62Z" transform="translate(-2.5 -1.41)" style="fill:#333"/><path d="M306.42,11.31a1.29,1.29,0,0,1,1.1.52,2.26,2.26,0,0,1,.4,1.44,2.33,2.33,0,0,1-.4,1.44,1.46,1.46,0,0,1-2.23,0h-.05l-.15.45h-.6V9.84h.8v1.27c0,.09,0,.23,0,.42s0,.3,0,.35h0A1.28,1.28,0,0,1,306.42,11.31Zm-.21.66a.82.82,0,0,0-.7.29,1.7,1.7,0,0,0-.22,1v.06a1.74,1.74,0,0,0,.22,1,.82.82,0,0,0,.71.3.72.72,0,0,0,.65-.33,1.8,1.8,0,0,0,.22-1C307.09,12.4,306.8,12,306.21,12Z" transform="translate(-2.5 -1.41)" style="fill:#333"/><path d="M309.65,15.16h-.8V9.84h.8Z" transform="translate(-2.5 -1.41)" style="fill:#333"/><path d="M312.45,15.23a1.83,1.83,0,0,1-1.38-.51,2,2,0,0,1-.49-1.42,2.15,2.15,0,0,1,.46-1.46,1.77,1.77,0,0,1,2.45-.07,1.73,1.73,0,0,1,.43,1.25v.43H311.4a1.23,1.23,0,0,0,.3.85,1,1,0,0,0,.79.3,3,3,0,0,0,.62-.07,2.84,2.84,0,0,0,.62-.21V15a2.17,2.17,0,0,1-.59.2A3.54,3.54,0,0,1,312.45,15.23Zm-.14-3.31a.83.83,0,0,0-.62.24,1.21,1.21,0,0,0-.27.71h1.71a1.06,1.06,0,0,0-.22-.71A.78.78,0,0,0,312.31,11.92Z" transform="translate(-2.5 -1.41)" style="fill:#333"/><path d="M318.06,14.58a2,2,0,0,0,.59-.09v.6a1.25,1.25,0,0,1-.34.1,2.12,2.12,0,0,1-.44,0q-1.14,0-1.14-1.2V12h-.52v-.35l.56-.3.27-.8h.49v.84h1.08V12h-1.08v2a.55.55,0,0,0,.15.43A.5.5,0,0,0,318.06,14.58Z" transform="translate(-2.5 -1.41)" style="fill:#333"/><path d="M322.76,13.27a2,2,0,0,1-.48,1.44,1.68,1.68,0,0,1-1.32.52A1.83,1.83,0,0,1,320,15a1.54,1.54,0,0,1-.62-.69,2.23,2.23,0,0,1-.22-1,2.06,2.06,0,0,1,.47-1.44,1.72,1.72,0,0,1,1.33-.52,1.67,1.67,0,0,1,1.3.53A2,2,0,0,1,322.76,13.27Zm-2.75,0c0,.87.32,1.3,1,1.3s1-.43,1-1.3-.32-1.3-1-1.3a.82.82,0,0,0-.74.34A1.71,1.71,0,0,0,320,13.27Z" transform="translate(-2.5 -1.41)" style="fill:#333"/><path d="M251.87,23.63a1.83,1.83,0,0,1-1.38-.51,2,2,0,0,1-.5-1.42,2.2,2.2,0,0,1,.46-1.46,1.61,1.61,0,0,1,1.27-.53,1.57,1.57,0,0,1,1.18.46,1.73,1.73,0,0,1,.44,1.25v.43h-2.52a1.23,1.23,0,0,0,.3.85,1,1,0,0,0,.79.3,3,3,0,0,0,1.24-.28v.65a2.29,2.29,0,0,1-.59.2A3.54,3.54,0,0,1,251.87,23.63Zm-.15-3.31a.78.78,0,0,0-.61.25,1.1,1.1,0,0,0-.28.7h1.72a1.06,1.06,0,0,0-.23-.71A.75.75,0,0,0,251.72,20.32Z" transform="translate(-2.5 -1.41)" style="fill:#333"/><path d="M255.53,23.63a1.33,1.33,0,0,1-1.11-.51,2.33,2.33,0,0,1-.39-1.44,2.31,2.31,0,0,1,.4-1.45,1.34,1.34,0,0,1,1.11-.52,1.31,1.31,0,0,1,1.13.55h.05a4.58,4.58,0,0,1-.06-.64V18.24h.8v5.32h-.62l-.15-.49h0A1.3,1.3,0,0,1,255.53,23.63Zm.21-.65a.86.86,0,0,0,.72-.28,1.41,1.41,0,0,0,.23-.9v-.11a1.67,1.67,0,0,0-.23-1,.85.85,0,0,0-.73-.3.73.73,0,0,0-.65.34,2.2,2.2,0,0,0,0,1.94A.75.75,0,0,0,255.74,23Z" transform="translate(-2.5 -1.41)" style="fill:#333"/><path d="M258.56,18.78a.45.45,0,0,1,.12-.33.45.45,0,0,1,.34-.12.42.42,0,0,1,.45.45.41.41,0,0,1-.12.32.45.45,0,0,1-.33.12.45.45,0,0,1-.34-.12A.41.41,0,0,1,258.56,18.78Zm.86,4.78h-.81V19.78h.81Z" transform="translate(-2.5 -1.41)" style="fill:#333"/><path d="M262,23a2,2,0,0,0,.59-.09v.6a1.25,1.25,0,0,1-.34.1,2.12,2.12,0,0,1-.44,0q-1.14,0-1.14-1.2v-2h-.52V20l.56-.3.27-.8h.5v.84h1.07v.61h-1.07v2a.54.54,0,0,0,.14.43A.51.51,0,0,0,262,23Z" transform="translate(-2.5 -1.41)" style="fill:#333"/><path d="M266.67,21.67a2,2,0,0,1-.48,1.44,1.67,1.67,0,0,1-1.32.52,1.85,1.85,0,0,1-.94-.24,1.54,1.54,0,0,1-.62-.69,2.23,2.23,0,0,1-.22-1,2.06,2.06,0,0,1,.47-1.44,1.74,1.74,0,0,1,1.33-.52,1.67,1.67,0,0,1,1.3.53A2,2,0,0,1,266.67,21.67Zm-2.75,0c0,.87.32,1.3,1,1.3s1-.43,1-1.3-.32-1.3-1-1.3a.83.83,0,0,0-.74.34A1.71,1.71,0,0,0,263.92,21.67Z" transform="translate(-2.5 -1.41)" style="fill:#333"/><path d="M269.51,19.71a2.15,2.15,0,0,1,.4,0l-.08.75a1.37,1.37,0,0,0-.36,0,1,1,0,0,0-.78.31,1.13,1.13,0,0,0-.3.82v2h-.8V19.78h.63l.11.67h0a1.42,1.42,0,0,1,.49-.54A1.18,1.18,0,0,1,269.51,19.71Z" transform="translate(-2.5 -1.41)" style="fill:#333"/><path d="M273.15,22.49a1,1,0,0,1-.4.85,2,2,0,0,1-1.16.29,2.61,2.61,0,0,1-1.21-.23v-.69a3,3,0,0,0,1.24.31c.49,0,.74-.15.74-.45a.36.36,0,0,0-.08-.24,1.35,1.35,0,0,0-.27-.2,3.58,3.58,0,0,0-.53-.23,2.41,2.41,0,0,1-.88-.51.94.94,0,0,1-.23-.65.87.87,0,0,1,.39-.76,1.86,1.86,0,0,1,1.07-.27,3,3,0,0,1,1.26.27l-.26.61a2.77,2.77,0,0,0-1-.25c-.42,0-.64.12-.64.36a.36.36,0,0,0,.17.3,4.16,4.16,0,0,0,.72.34,3.31,3.31,0,0,1,.68.33,1.05,1.05,0,0,1,.32.35A1.09,1.09,0,0,1,273.15,22.49Z" transform="translate(-2.5 -1.41)" style="fill:#333"/><path d="M206.28,167.76h-2.83v-5h2.83v.69h-2v1.36h1.88v.68h-1.88v1.57h2Z" transform="translate(-2.5 -1.41)" style="fill:#333"/><path d="M208.55,167.83a1.34,1.34,0,0,1-1.11-.51,2.84,2.84,0,0,1,0-2.89,1.35,1.35,0,0,1,1.11-.52,1.33,1.33,0,0,1,1.14.55h0a4.58,4.58,0,0,1-.06-.64v-1.38h.81v5.32h-.63l-.14-.49h0A1.3,1.3,0,0,1,208.55,167.83Zm.21-.65a.86.86,0,0,0,.72-.28,1.47,1.47,0,0,0,.24-.9v-.11a1.66,1.66,0,0,0-.24-1,.84.84,0,0,0-.72-.3.75.75,0,0,0-.66.34,1.8,1.8,0,0,0-.23,1,1.7,1.7,0,0,0,.23,1A.74.74,0,0,0,208.76,167.18Z" transform="translate(-2.5 -1.41)" style="fill:#333"/><path d="M211.59,163a.49.49,0,0,1,.11-.33.45.45,0,0,1,.34-.12.42.42,0,0,1,.45.45.41.41,0,0,1-.12.32.45.45,0,0,1-.33.12.45.45,0,0,1-.34-.12A.44.44,0,0,1,211.59,163Zm.85,4.78h-.81V164h.81Z" transform="translate(-2.5 -1.41)" style="fill:#333"/><path d="M215,167.18a2,2,0,0,0,.59-.09v.6a1.25,1.25,0,0,1-.34.1,2.12,2.12,0,0,1-.44,0q-1.14,0-1.14-1.2v-2h-.52v-.35l.56-.3.27-.8h.5V164h1.07v.61h-1.07v2a.58.58,0,0,0,.14.43A.51.51,0,0,0,215,167.18Z" transform="translate(-2.5 -1.41)" style="fill:#333"/><path d="M219.69,165.87a2,2,0,0,1-.48,1.44,1.67,1.67,0,0,1-1.32.52,1.79,1.79,0,0,1-.93-.24,1.56,1.56,0,0,1-.63-.69,2.23,2.23,0,0,1-.22-1,2.06,2.06,0,0,1,.47-1.44,1.74,1.74,0,0,1,1.33-.52,1.67,1.67,0,0,1,1.3.53A2,2,0,0,1,219.69,165.87Zm-2.75,0c0,.87.32,1.31,1,1.31s1-.44,1-1.31-.32-1.3-1-1.3a.8.8,0,0,0-.73.34A1.62,1.62,0,0,0,216.94,165.87Z" transform="translate(-2.5 -1.41)" style="fill:#333"/><path d="M222.53,163.91a2.06,2.06,0,0,1,.4,0l-.08.75a1.34,1.34,0,0,0-.35,0,1,1,0,0,0-.78.31,1.13,1.13,0,0,0-.3.82v2h-.81V164h.63l.11.67h0a1.42,1.42,0,0,1,.49-.54A1.18,1.18,0,0,1,222.53,163.91Z" transform="translate(-2.5 -1.41)" style="fill:#333"/><path d="M226.17,166.69a1,1,0,0,1-.4.84,1.93,1.93,0,0,1-1.16.3,2.61,2.61,0,0,1-1.21-.23v-.69a3.06,3.06,0,0,0,1.24.31c.49,0,.74-.15.74-.45a.36.36,0,0,0-.08-.24,1,1,0,0,0-.27-.2,3.91,3.91,0,0,0-.52-.23,2.47,2.47,0,0,1-.89-.51,1,1,0,0,1-.23-.65.87.87,0,0,1,.39-.76,1.86,1.86,0,0,1,1.07-.27,3,3,0,0,1,1.26.27l-.26.61a2.77,2.77,0,0,0-1-.25c-.42,0-.64.12-.64.36a.36.36,0,0,0,.17.3,4.16,4.16,0,0,0,.72.34,3.06,3.06,0,0,1,.68.33,1.05,1.05,0,0,1,.32.35A1,1,0,0,1,226.17,166.69Z" transform="translate(-2.5 -1.41)" style="fill:#333"/><path d="M231.52,167.76l-.11-.49h0a1.14,1.14,0,0,1-.48.41,1.57,1.57,0,0,1-.7.15,1.39,1.39,0,0,1-1-.34,1.44,1.44,0,0,1-.34-1V164h.81v2.33a1,1,0,0,0,.18.65.66.66,0,0,0,.56.22.88.88,0,0,0,.74-.3,1.65,1.65,0,0,0,.24-1V164h.81v3.78Z" transform="translate(-2.5 -1.41)" style="fill:#333"/><path d="M235.22,167.83a1.33,1.33,0,0,1-1.12-.52h0c0,.32,0,.52,0,.59v1.54h-.8V164H234c0,.07.06.24.11.51h0a1.25,1.25,0,0,1,1.13-.58,1.32,1.32,0,0,1,1.1.52,2.26,2.26,0,0,1,.4,1.44,2.35,2.35,0,0,1-.4,1.44A1.32,1.32,0,0,1,235.22,167.83Zm-.2-3.26a.83.83,0,0,0-.7.28,1.52,1.52,0,0,0-.22.9v.12a1.77,1.77,0,0,0,.22,1,.83.83,0,0,0,.72.32.73.73,0,0,0,.64-.35,1.76,1.76,0,0,0,.22-1,1.66,1.66,0,0,0-.22-1A.75.75,0,0,0,235,164.57Z" transform="translate(-2.5 -1.41)" style="fill:#333"/><path d="M238.94,167.83a1.33,1.33,0,0,1-1.11-.51,2.84,2.84,0,0,1,0-2.89,1.35,1.35,0,0,1,1.11-.52,1.33,1.33,0,0,1,1.14.55h0a4.58,4.58,0,0,1-.06-.64v-1.38h.8v5.32h-.62l-.14-.49h0A1.3,1.3,0,0,1,238.94,167.83Zm.21-.65a.86.86,0,0,0,.72-.28,1.47,1.47,0,0,0,.24-.9v-.11a1.66,1.66,0,0,0-.24-1,.84.84,0,0,0-.72-.3.75.75,0,0,0-.66.34,1.8,1.8,0,0,0-.23,1,1.7,1.7,0,0,0,.23,1A.74.74,0,0,0,239.15,167.18Z" transform="translate(-2.5 -1.41)" style="fill:#333"/><path d="M244.39,167.76l-.16-.52h0a1.64,1.64,0,0,1-.55.47,1.78,1.78,0,0,1-.71.12,1.21,1.21,0,0,1-.87-.3,1.11,1.11,0,0,1-.31-.85,1,1,0,0,1,.43-.88,2.5,2.5,0,0,1,1.32-.33l.66,0v-.2a.78.78,0,0,0-.17-.54.71.71,0,0,0-.53-.18,2,2,0,0,0-.55.08,4.71,4.71,0,0,0-.52.21l-.26-.58a2.88,2.88,0,0,1,.68-.24,2.84,2.84,0,0,1,.69-.09,1.65,1.65,0,0,1,1.09.32,1.25,1.25,0,0,1,.36,1v2.54Zm-1.2-.54a1,1,0,0,0,.7-.25.87.87,0,0,0,.27-.68V166l-.49,0a1.65,1.65,0,0,0-.82.19.57.57,0,0,0-.26.52.51.51,0,0,0,.15.39A.65.65,0,0,0,243.19,167.22Z" transform="translate(-2.5 -1.41)" style="fill:#333"/><path d="M247.49,167.18a2,2,0,0,0,.59-.09v.6a1.25,1.25,0,0,1-.34.1,2.12,2.12,0,0,1-.44,0q-1.14,0-1.14-1.2v-2h-.52v-.35l.56-.3.27-.8h.5V164H248v.61H247v2a.54.54,0,0,0,.14.43A.5.5,0,0,0,247.49,167.18Z" transform="translate(-2.5 -1.41)" style="fill:#333"/><path d="M250.49,167.83a1.83,1.83,0,0,1-1.38-.51,2,2,0,0,1-.5-1.42,2.15,2.15,0,0,1,.46-1.46,1.61,1.61,0,0,1,1.27-.53,1.57,1.57,0,0,1,1.18.46,1.73,1.73,0,0,1,.44,1.25v.43h-2.52a1.28,1.28,0,0,0,.29.85,1,1,0,0,0,.79.29,3.13,3.13,0,0,0,.63-.06,3,3,0,0,0,.62-.21v.65a2.35,2.35,0,0,1-.6.2A3.51,3.51,0,0,1,250.49,167.83Zm-.15-3.31a.76.76,0,0,0-.61.25,1.1,1.1,0,0,0-.28.7h1.72a1.06,1.06,0,0,0-.23-.71A.78.78,0,0,0,250.34,164.52Z" transform="translate(-2.5 -1.41)" style="fill:#333"/><path d="M256.21,167.83a1.65,1.65,0,0,1-1.3-.5,2.07,2.07,0,0,1-.45-1.44,2.1,2.1,0,0,1,.47-1.46,1.74,1.74,0,0,1,1.35-.52,2.5,2.5,0,0,1,1.07.23l-.24.64a2.5,2.5,0,0,0-.84-.2c-.65,0-1,.44-1,1.31a1.56,1.56,0,0,0,.24,1,.86.86,0,0,0,.72.32,2,2,0,0,0,1-.27v.71a1.7,1.7,0,0,1-.46.18A3.25,3.25,0,0,1,256.21,167.83Z" transform="translate(-2.5 -1.41)" style="fill:#333"/><path d="M261.51,165.87a2,2,0,0,1-.48,1.44,1.7,1.7,0,0,1-1.32.52,1.8,1.8,0,0,1-.94-.24,1.54,1.54,0,0,1-.62-.69,2.23,2.23,0,0,1-.22-1,2,2,0,0,1,.47-1.44,1.72,1.72,0,0,1,1.33-.52,1.69,1.69,0,0,1,1.3.53A2,2,0,0,1,261.51,165.87Zm-2.76,0c0,.87.33,1.31,1,1.31s1-.44,1-1.31-.32-1.3-1-1.3a.81.81,0,0,0-.73.34A1.7,1.7,0,0,0,258.75,165.87Z" transform="translate(-2.5 -1.41)" style="fill:#333"/><path d="M265.75,167.76H265v-2.32a1,1,0,0,0-.18-.65.66.66,0,0,0-.56-.22.87.87,0,0,0-.74.3,1.65,1.65,0,0,0-.24,1v1.88h-.8V164h.63l.11.5h0a1.13,1.13,0,0,1,.49-.42,1.58,1.58,0,0,1,.69-.15,1.22,1.22,0,0,1,1.36,1.39Z" transform="translate(-2.5 -1.41)" style="fill:#333"/><path d="M268.28,167.18a2,2,0,0,0,.59-.09v.6a1.34,1.34,0,0,1-.35.1,2,2,0,0,1-.43,0q-1.14,0-1.14-1.2v-2h-.52v-.35l.55-.3.28-.8h.49V164h1.08v.61h-1.08v2a.55.55,0,0,0,.15.43A.5.5,0,0,0,268.28,167.18Z" transform="translate(-2.5 -1.41)" style="fill:#333"/><path d="M271.27,167.83a1.86,1.86,0,0,1-1.38-.51,2,2,0,0,1-.49-1.42,2.15,2.15,0,0,1,.46-1.46,1.61,1.61,0,0,1,1.27-.53,1.57,1.57,0,0,1,1.18.46,1.73,1.73,0,0,1,.43,1.25v.43h-2.52a1.33,1.33,0,0,0,.3.85,1,1,0,0,0,.79.29,3.21,3.21,0,0,0,.63-.06,3.24,3.24,0,0,0,.62-.21v.65a2.35,2.35,0,0,1-.6.2A3.54,3.54,0,0,1,271.27,167.83Zm-.14-3.31a.8.8,0,0,0-.62.25,1.15,1.15,0,0,0-.27.7H272a1.06,1.06,0,0,0-.22-.71A.78.78,0,0,0,271.13,164.52Z" transform="translate(-2.5 -1.41)" style="fill:#333"/><path d="M277,167.76h-.8v-2.32a1,1,0,0,0-.18-.65.66.66,0,0,0-.56-.22.87.87,0,0,0-.74.3,1.65,1.65,0,0,0-.24,1v1.88h-.8V164h.63l.11.5h0a1.1,1.1,0,0,1,.48-.42,1.63,1.63,0,0,1,.7-.15A1.22,1.22,0,0,1,277,165.3Z" transform="translate(-2.5 -1.41)" style="fill:#333"/><path d="M279.51,167.18a2.06,2.06,0,0,0,.59-.09v.6a1.34,1.34,0,0,1-.35.1,2,2,0,0,1-.43,0c-.76,0-1.15-.4-1.15-1.2v-2h-.51v-.35l.55-.3.28-.8H279V164h1.08v.61H279v2a.55.55,0,0,0,.15.43A.48.48,0,0,0,279.51,167.18Z" transform="translate(-2.5 -1.41)" style="fill:#333"/><path d="M286,165.87a2.08,2.08,0,0,1-.47,1.44,1.7,1.7,0,0,1-1.33.52,1.79,1.79,0,0,1-.93-.24,1.62,1.62,0,0,1-.63-.69,2.37,2.37,0,0,1-.22-1,2,2,0,0,1,.48-1.44,1.71,1.71,0,0,1,1.33-.52,1.65,1.65,0,0,1,1.29.53A2,2,0,0,1,286,165.87Zm-2.75,0c0,.87.32,1.31,1,1.31s1-.44,1-1.31-.33-1.3-1-1.3a.8.8,0,0,0-.73.34A1.7,1.7,0,0,0,283.27,165.87Z" transform="translate(-2.5 -1.41)" style="fill:#333"/><path d="M290.27,167.76h-.81v-2.32a1,1,0,0,0-.17-.65.68.68,0,0,0-.56-.22.9.9,0,0,0-.75.3,1.73,1.73,0,0,0-.23,1v1.88H287V164h.62l.12.5h0a1.1,1.1,0,0,1,.48-.42,1.63,1.63,0,0,1,.7-.15,1.22,1.22,0,0,1,1.36,1.39Z" transform="translate(-2.5 -1.41)" style="fill:#333"/><path d="M295.42,163.39a1.36,1.36,0,0,0-1.11.5,2.63,2.63,0,0,0,0,2.77,1.34,1.34,0,0,0,1.12.47,3,3,0,0,0,.61-.06c.2,0,.41-.1.62-.16v.7a3.67,3.67,0,0,1-1.33.22,2.16,2.16,0,0,1-1.69-.66,2.81,2.81,0,0,1-.58-1.91,3.06,3.06,0,0,1,.28-1.36,2,2,0,0,1,.83-.89,2.47,2.47,0,0,1,1.27-.32,3.05,3.05,0,0,1,1.41.33l-.29.67c-.17-.07-.35-.14-.54-.2A1.92,1.92,0,0,0,295.42,163.39Z" transform="translate(-2.5 -1.41)" style="fill:#333"/><path d="M298.45,167.76h-.81v-5.32h.81Z" transform="translate(-2.5 -1.41)" style="fill:#333"/><path d="M303,165.87a2,2,0,0,1-.48,1.44,1.67,1.67,0,0,1-1.32.52,1.83,1.83,0,0,1-.94-.24,1.54,1.54,0,0,1-.62-.69,2.23,2.23,0,0,1-.22-1,2.06,2.06,0,0,1,.47-1.44,1.74,1.74,0,0,1,1.33-.52,1.67,1.67,0,0,1,1.3.53A2,2,0,0,1,303,165.87Zm-2.75,0c0,.87.32,1.31,1,1.31s1-.44,1-1.31-.32-1.3-1-1.3a.83.83,0,0,0-.74.34A1.71,1.71,0,0,0,300.2,165.87Z" transform="translate(-2.5 -1.41)" style="fill:#333"/><path d="M306.54,167.76l-.12-.49h0a1.18,1.18,0,0,1-.47.41,1.64,1.64,0,0,1-.71.15,1.35,1.35,0,0,1-1-.34,1.4,1.4,0,0,1-.34-1V164h.81v2.33a1.05,1.05,0,0,0,.17.65.68.68,0,0,0,.56.22.9.9,0,0,0,.75-.3,1.73,1.73,0,0,0,.23-1V164h.81v3.78Z" transform="translate(-2.5 -1.41)" style="fill:#333"/><path d="M309.59,167.83a1.31,1.31,0,0,1-1.1-.51,2.26,2.26,0,0,1-.4-1.44,2.31,2.31,0,0,1,.4-1.45,1.35,1.35,0,0,1,1.11-.52,1.33,1.33,0,0,1,1.14.55h0a4.58,4.58,0,0,1-.06-.64v-1.38h.81v5.32h-.63l-.14-.49h0A1.29,1.29,0,0,1,309.59,167.83Zm.21-.65a.87.87,0,0,0,.73-.28,1.48,1.48,0,0,0,.23-.9v-.11a1.74,1.74,0,0,0-.23-1,.87.87,0,0,0-.73-.3.73.73,0,0,0-.65.34,2.2,2.2,0,0,0,0,1.94A.75.75,0,0,0,309.8,167.18Z" transform="translate(-2.5 -1.41)" style="fill:#333"/><path d="M314.89,163.39a1.36,1.36,0,0,0-1.11.5,2.14,2.14,0,0,0-.4,1.38,2.19,2.19,0,0,0,.38,1.39,1.37,1.37,0,0,0,1.13.47,3.08,3.08,0,0,0,.61-.06c.2,0,.41-.1.62-.16v.7a3.71,3.71,0,0,1-1.33.22,2.16,2.16,0,0,1-1.69-.66,2.81,2.81,0,0,1-.58-1.91,3.06,3.06,0,0,1,.28-1.36,2,2,0,0,1,.83-.89,2.46,2.46,0,0,1,1.26-.32,3.09,3.09,0,0,1,1.42.33l-.29.67c-.17-.07-.35-.14-.54-.2A2,2,0,0,0,314.89,163.39Z" transform="translate(-2.5 -1.41)" style="fill:#333"/><path d="M319.48,167.76l-.16-.52h0a1.64,1.64,0,0,1-.55.47,1.81,1.81,0,0,1-.71.12,1.21,1.21,0,0,1-.87-.3,1.11,1.11,0,0,1-.31-.85,1,1,0,0,1,.43-.88,2.5,2.5,0,0,1,1.32-.33l.66,0v-.2a.78.78,0,0,0-.17-.54.71.71,0,0,0-.53-.18,2.1,2.1,0,0,0-.56.08,5.49,5.49,0,0,0-.51.21l-.26-.58a2.88,2.88,0,0,1,.68-.24,2.84,2.84,0,0,1,.69-.09,1.6,1.6,0,0,1,1.08.32,1.22,1.22,0,0,1,.37,1v2.54Zm-1.2-.54a1,1,0,0,0,.7-.25.87.87,0,0,0,.27-.68V166l-.49,0a1.62,1.62,0,0,0-.82.19.57.57,0,0,0-.26.52.51.51,0,0,0,.15.39A.65.65,0,0,0,318.28,167.22Z" transform="translate(-2.5 -1.41)" style="fill:#333"/><path d="M324.5,167.76h-.81v-2.32a1.05,1.05,0,0,0-.17-.65.68.68,0,0,0-.56-.22.9.9,0,0,0-.75.3,1.65,1.65,0,0,0-.23,1v1.88h-.81V164h.63l.11.5h0a1.1,1.1,0,0,1,.48-.42,1.6,1.6,0,0,1,.7-.15,1.22,1.22,0,0,1,1.36,1.39Z" transform="translate(-2.5 -1.41)" style="fill:#333"/><path d="M325.29,166.23v-.69H327v.69Z" transform="translate(-2.5 -1.41)" style="fill:#333"/><path d="M211.19,176.16h-.81v-2.32a1,1,0,0,0-.17-.66.7.7,0,0,0-.56-.21.9.9,0,0,0-.75.3,1.73,1.73,0,0,0-.23,1v1.88h-.8v-3.78h.62l.12.5h0a1.1,1.1,0,0,1,.48-.42,1.63,1.63,0,0,1,.7-.15,1.21,1.21,0,0,1,1.36,1.39Z" transform="translate(-2.5 -1.41)" style="fill:#333"/><path d="M215.66,174.27a2.1,2.1,0,0,1-.47,1.44,1.7,1.7,0,0,1-1.33.52,1.79,1.79,0,0,1-.93-.24,1.62,1.62,0,0,1-.63-.69,2.37,2.37,0,0,1-.22-1,2.06,2.06,0,0,1,.47-1.44,1.74,1.74,0,0,1,1.33-.52,1.67,1.67,0,0,1,1.3.53A2,2,0,0,1,215.66,174.27Zm-2.75,0c0,.87.32,1.3,1,1.3s1-.43,1-1.3-.32-1.3-1-1.3a.8.8,0,0,0-.73.34A1.7,1.7,0,0,0,212.91,174.27Z" transform="translate(-2.5 -1.41)" style="fill:#333"/><path d="M219.91,176.16h-.81v-2.32a1.11,1.11,0,0,0-.17-.66.7.7,0,0,0-.56-.21.9.9,0,0,0-.75.3,1.73,1.73,0,0,0-.23,1v1.88h-.81v-3.78h.63l.12.5h0a1.1,1.1,0,0,1,.48-.42,1.6,1.6,0,0,1,.7-.15,1.21,1.21,0,0,1,1.36,1.39Z" transform="translate(-2.5 -1.41)" style="fill:#333"/><path d="M226,176.16l-.49-1.76c-.06-.19-.17-.62-.32-1.3h0c-.14.61-.24,1.05-.32,1.31l-.5,1.75h-.89l-1.06-3.78h.82l.48,1.87c.11.46.19.85.24,1.18h0a5.46,5.46,0,0,1,.1-.58q.08-.32.12-.48l.58-2h.88l.55,2a4.5,4.5,0,0,1,.13.51,4.25,4.25,0,0,1,.09.54h0a8.66,8.66,0,0,1,.24-1.17l.49-1.87h.81l-1.07,3.78Z" transform="translate(-2.5 -1.41)" style="fill:#333"/><path d="M231.89,176.16h-.81v-2.32a1.11,1.11,0,0,0-.17-.66.7.7,0,0,0-.56-.21.87.87,0,0,0-.74.3,1.66,1.66,0,0,0-.24,1v1.87h-.81v-5.32h.81v1.35c0,.22,0,.45,0,.7h0a1.16,1.16,0,0,1,.45-.43,1.52,1.52,0,0,1,.69-.15,1.22,1.22,0,0,1,1.37,1.39Z" transform="translate(-2.5 -1.41)" style="fill:#333"/><path d="M233,171.38a.42.42,0,0,1,.45-.45.42.42,0,0,1,.33.12.45.45,0,0,1,.12.33.41.41,0,0,1-.12.32.42.42,0,0,1-.33.12.45.45,0,0,1-.33-.12A.41.41,0,0,1,233,171.38Zm.85,4.78H233v-3.78h.8Z" transform="translate(-2.5 -1.41)" style="fill:#333"/><path d="M236.48,176.23a1.67,1.67,0,0,1-1.3-.5,2.07,2.07,0,0,1-.45-1.44,2.1,2.1,0,0,1,.47-1.46,1.71,1.71,0,0,1,1.35-.52,2.52,2.52,0,0,1,1.08.23l-.25.64a2.5,2.5,0,0,0-.84-.2c-.65,0-1,.44-1,1.31a1.5,1.5,0,0,0,.25,1,.84.84,0,0,0,.71.32,2,2,0,0,0,1-.27V176a2,2,0,0,1-.46.18A3.37,3.37,0,0,1,236.48,176.23Z" transform="translate(-2.5 -1.41)" style="fill:#333"/><path d="M241.75,176.16h-.81v-2.32a1,1,0,0,0-.17-.66.7.7,0,0,0-.56-.21.87.87,0,0,0-.74.3,1.66,1.66,0,0,0-.24,1v1.87h-.8v-5.32h.8v1.35c0,.22,0,.45,0,.7h.05a1.16,1.16,0,0,1,.45-.43,1.52,1.52,0,0,1,.69-.15,1.22,1.22,0,0,1,1.37,1.39Z" transform="translate(-2.5 -1.41)" style="fill:#333"/><path d="M246.21,176.23a1.65,1.65,0,0,1-1.3-.5,2.07,2.07,0,0,1-.45-1.44,2.1,2.1,0,0,1,.47-1.46,1.71,1.71,0,0,1,1.35-.52,2.47,2.47,0,0,1,1.07.23l-.24.64a2.5,2.5,0,0,0-.84-.2c-.65,0-1,.44-1,1.31a1.56,1.56,0,0,0,.24,1,.86.86,0,0,0,.72.32,2,2,0,0,0,1-.27V176a1.7,1.7,0,0,1-.46.18A3.25,3.25,0,0,1,246.21,176.23Z" transform="translate(-2.5 -1.41)" style="fill:#333"/><path d="M251.51,174.27a2.05,2.05,0,0,1-.48,1.44,1.7,1.7,0,0,1-1.32.52,1.83,1.83,0,0,1-.94-.24,1.54,1.54,0,0,1-.62-.69,2.23,2.23,0,0,1-.22-1,2,2,0,0,1,.47-1.44,1.72,1.72,0,0,1,1.33-.52,1.67,1.67,0,0,1,1.3.53A2,2,0,0,1,251.51,174.27Zm-2.76,0c0,.87.33,1.3,1,1.3s1-.43,1-1.3-.32-1.3-1-1.3a.81.81,0,0,0-.73.34A1.7,1.7,0,0,0,248.75,174.27Z" transform="translate(-2.5 -1.41)" style="fill:#333"/><path d="M255.61,176.16h-.8v-2.33a1.07,1.07,0,0,0-.17-.65.61.61,0,0,0-.51-.21.78.78,0,0,0-.68.3,1.74,1.74,0,0,0-.22,1v1.88h-.8v-3.78h.63l.11.5h0a1.1,1.1,0,0,1,.46-.42,1.45,1.45,0,0,1,.66-.15,1.14,1.14,0,0,1,1.15.6h.06a1.11,1.11,0,0,1,.47-.44,1.53,1.53,0,0,1,.69-.16,1.27,1.27,0,0,1,1,.35,1.47,1.47,0,0,1,.31,1v2.46h-.8v-2.33a1.07,1.07,0,0,0-.17-.65.61.61,0,0,0-.51-.21.82.82,0,0,0-.69.29,1.57,1.57,0,0,0-.22.9Z" transform="translate(-2.5 -1.41)" style="fill:#333"/><path d="M262.31,176.16h-.81v-2.33a1.08,1.08,0,0,0-.16-.65.62.62,0,0,0-.52-.21.79.79,0,0,0-.68.3,1.82,1.82,0,0,0-.22,1v1.88h-.8v-3.78h.63l.11.5h0a1.1,1.1,0,0,1,.46-.42,1.45,1.45,0,0,1,.66-.15,1.14,1.14,0,0,1,1.15.6h.06a1.17,1.17,0,0,1,.47-.44,1.54,1.54,0,0,1,.7-.16,1.24,1.24,0,0,1,1,.35,1.47,1.47,0,0,1,.31,1v2.46h-.8v-2.33a1.07,1.07,0,0,0-.17-.65.61.61,0,0,0-.51-.21.83.83,0,0,0-.69.29,1.57,1.57,0,0,0-.21.9Z" transform="translate(-2.5 -1.41)" style="fill:#333"/><path d="M265.77,171.38a.44.44,0,0,1,.11-.33.45.45,0,0,1,.34-.12.42.42,0,0,1,.45.45.41.41,0,0,1-.12.32.45.45,0,0,1-.33.12.45.45,0,0,1-.34-.12A.4.4,0,0,1,265.77,171.38Zm.85,4.78h-.81v-3.78h.81Z" transform="translate(-2.5 -1.41)" style="fill:#333"/><path d="M269.17,175.58a2,2,0,0,0,.59-.09v.6a1.25,1.25,0,0,1-.34.1,2.12,2.12,0,0,1-.44,0q-1.14,0-1.14-1.2v-2h-.52v-.35l.56-.3.27-.8h.5v.84h1.07V173h-1.07v2a.58.58,0,0,0,.14.43A.51.51,0,0,0,269.17,175.58Z" transform="translate(-2.5 -1.41)" style="fill:#333"/><path d="M273.06,175.09a1,1,0,0,1-.41.84,1.9,1.9,0,0,1-1.15.3,2.79,2.79,0,0,1-1.22-.23v-.69a3.09,3.09,0,0,0,1.24.31q.75,0,.75-.45a.32.32,0,0,0-.09-.24.78.78,0,0,0-.27-.2,3.39,3.39,0,0,0-.52-.23,2.41,2.41,0,0,1-.88-.51.91.91,0,0,1-.23-.65.87.87,0,0,1,.39-.76,1.83,1.83,0,0,1,1.06-.27,3,3,0,0,1,1.26.27l-.26.61a2.73,2.73,0,0,0-1-.25c-.43,0-.64.12-.64.36a.36.36,0,0,0,.17.3,4.16,4.16,0,0,0,.72.34,3.31,3.31,0,0,1,.68.33.86.86,0,0,1,.31.35A1,1,0,0,1,273.06,175.09Z" transform="translate(-2.5 -1.41)" style="fill:#333"/><path d="M278.11,176.16l-.16-.52h0a1.64,1.64,0,0,1-.55.47,1.78,1.78,0,0,1-.71.12,1.21,1.21,0,0,1-.87-.3,1.11,1.11,0,0,1-.31-.85,1,1,0,0,1,.43-.88,2.5,2.5,0,0,1,1.32-.33l.66,0v-.2a.78.78,0,0,0-.17-.54.71.71,0,0,0-.53-.18,1.77,1.77,0,0,0-.56.09,3.59,3.59,0,0,0-.51.2l-.26-.58a2.49,2.49,0,0,1,.68-.24,2.84,2.84,0,0,1,.69-.09,1.65,1.65,0,0,1,1.09.32,1.25,1.25,0,0,1,.36,1v2.54Zm-1.2-.54a1,1,0,0,0,.7-.25.87.87,0,0,0,.27-.68v-.33l-.49,0a1.65,1.65,0,0,0-.82.19.57.57,0,0,0-.26.52.51.51,0,0,0,.15.39A.65.65,0,0,0,276.91,175.62Z" transform="translate(-2.5 -1.41)" style="fill:#333"/><path d="M283.13,176.16h-.81v-2.32a1.11,1.11,0,0,0-.17-.66.7.7,0,0,0-.56-.21.9.9,0,0,0-.75.3,1.73,1.73,0,0,0-.23,1v1.88h-.81v-3.78h.63l.11.5h0a1.1,1.1,0,0,1,.48-.42,1.6,1.6,0,0,1,.7-.15,1.21,1.21,0,0,1,1.36,1.39Z" transform="translate(-2.5 -1.41)" style="fill:#333"/><path d="M285.52,176.23a1.31,1.31,0,0,1-1.1-.51,2.26,2.26,0,0,1-.4-1.44,2.31,2.31,0,0,1,.4-1.45,1.35,1.35,0,0,1,1.12-.52,1.32,1.32,0,0,1,1.13.55h0a4.58,4.58,0,0,1-.06-.64v-1.38h.81v5.32h-.63l-.14-.49h0A1.28,1.28,0,0,1,285.52,176.23Zm.22-.65a.86.86,0,0,0,.72-.28,1.41,1.41,0,0,0,.23-.9v-.11a1.74,1.74,0,0,0-.23-1,.87.87,0,0,0-.73-.3.73.73,0,0,0-.65.34,2.2,2.2,0,0,0,0,1.94A.75.75,0,0,0,285.74,175.58Z" transform="translate(-2.5 -1.41)" style="fill:#333"/><path d="M292.34,176.23a1.31,1.31,0,0,1-1.11-.52h-.05c0,.32.05.52.05.59v1.54h-.8v-5.46h.65c0,.07.05.24.11.51h0a1.27,1.27,0,0,1,1.13-.58,1.29,1.29,0,0,1,1.1.52,2.33,2.33,0,0,1,.39,1.44,2.3,2.3,0,0,1-.4,1.44A1.3,1.3,0,0,1,292.34,176.23Zm-.19-3.26a.83.83,0,0,0-.7.28,1.45,1.45,0,0,0-.22.9v.12a1.74,1.74,0,0,0,.22,1,.81.81,0,0,0,.71.3.74.74,0,0,0,.65-.34,1.74,1.74,0,0,0,.22-1,1.68,1.68,0,0,0-.22-1A.75.75,0,0,0,292.15,173Z" transform="translate(-2.5 -1.41)" style="fill:#333"/><path d="M297.45,176.16l-.11-.49h0a1.14,1.14,0,0,1-.48.41,1.57,1.57,0,0,1-.7.15,1.39,1.39,0,0,1-1-.34,1.44,1.44,0,0,1-.34-1v-2.47h.81v2.33a1,1,0,0,0,.18.65.68.68,0,0,0,.56.22.88.88,0,0,0,.74-.3,1.65,1.65,0,0,0,.24-1v-1.89h.81v3.78Z" transform="translate(-2.5 -1.41)" style="fill:#333"/><path d="M301.77,175.09a1,1,0,0,1-.4.84,1.93,1.93,0,0,1-1.16.3A2.74,2.74,0,0,1,299,176v-.69a3.06,3.06,0,0,0,1.24.31c.49,0,.74-.15.74-.45a.36.36,0,0,0-.08-.24,1,1,0,0,0-.27-.2,3.91,3.91,0,0,0-.52-.23,2.47,2.47,0,0,1-.89-.51,1,1,0,0,1-.23-.65.87.87,0,0,1,.39-.76,1.86,1.86,0,0,1,1.07-.27,3,3,0,0,1,1.26.27l-.26.61a2.77,2.77,0,0,0-1-.25c-.42,0-.64.12-.64.36a.36.36,0,0,0,.17.3,4.16,4.16,0,0,0,.72.34,3.06,3.06,0,0,1,.68.33.91.91,0,0,1,.42.82Z" transform="translate(-2.5 -1.41)" style="fill:#333"/><path d="M306,176.16h-.8v-2.32a1,1,0,0,0-.18-.66.69.69,0,0,0-.56-.21.89.89,0,0,0-.74.3,1.66,1.66,0,0,0-.24,1v1.87h-.8v-5.32h.8v1.35a5.8,5.8,0,0,1,0,.7h.05a1.12,1.12,0,0,1,.46-.43,1.45,1.45,0,0,1,.68-.15A1.22,1.22,0,0,1,306,173.7Z" transform="translate(-2.5 -1.41)" style="fill:#333"/><path d="M308.73,176.23a1.86,1.86,0,0,1-1.38-.51,2,2,0,0,1-.49-1.42,2.15,2.15,0,0,1,.46-1.46,1.61,1.61,0,0,1,1.27-.53,1.57,1.57,0,0,1,1.18.46,1.73,1.73,0,0,1,.43,1.25v.43h-2.52a1.23,1.23,0,0,0,.3.85,1,1,0,0,0,.79.3,3,3,0,0,0,.62-.07,2.84,2.84,0,0,0,.62-.21V176a2.17,2.17,0,0,1-.59.2A3.54,3.54,0,0,1,308.73,176.23Zm-.14-3.31a.8.8,0,0,0-.62.25,1.15,1.15,0,0,0-.27.7h1.71a1.06,1.06,0,0,0-.22-.71A.78.78,0,0,0,308.59,172.92Z" transform="translate(-2.5 -1.41)" style="fill:#333"/><path d="M313.65,175.09a1,1,0,0,1-.4.84,1.9,1.9,0,0,1-1.15.3,2.79,2.79,0,0,1-1.22-.23v-.69a3.09,3.09,0,0,0,1.24.31q.75,0,.75-.45a.32.32,0,0,0-.09-.24.78.78,0,0,0-.27-.2,3.39,3.39,0,0,0-.52-.23,2.41,2.41,0,0,1-.88-.51.91.91,0,0,1-.23-.65.87.87,0,0,1,.39-.76,1.83,1.83,0,0,1,1.06-.27,3,3,0,0,1,1.26.27l-.26.61a2.73,2.73,0,0,0-1-.25q-.63,0-.63.36a.34.34,0,0,0,.17.3,4.16,4.16,0,0,0,.72.34,3.31,3.31,0,0,1,.68.33.94.94,0,0,1,.31.35A1,1,0,0,1,313.65,175.09Z" transform="translate(-2.5 -1.41)" style="fill:#333"/><path d="M317.75,175.58a2,2,0,0,0,.59-.09v.6a1.34,1.34,0,0,1-.35.1,2,2,0,0,1-.43,0q-1.14,0-1.14-1.2v-2h-.52v-.35l.55-.3.28-.8h.49v.84h1.08V173h-1.08v2a.55.55,0,0,0,.15.43A.5.5,0,0,0,317.75,175.58Z" transform="translate(-2.5 -1.41)" style="fill:#333"/><path d="M322.45,174.27a2.05,2.05,0,0,1-.48,1.44,1.7,1.7,0,0,1-1.32.52,1.8,1.8,0,0,1-.94-.24,1.54,1.54,0,0,1-.62-.69,2.23,2.23,0,0,1-.22-1,2,2,0,0,1,.47-1.44,1.72,1.72,0,0,1,1.33-.52,1.67,1.67,0,0,1,1.3.53A2,2,0,0,1,322.45,174.27Zm-2.76,0c0,.87.33,1.3,1,1.3s1-.43,1-1.3-.32-1.3-1-1.3a.81.81,0,0,0-.73.34A1.7,1.7,0,0,0,319.69,174.27Z" transform="translate(-2.5 -1.41)" style="fill:#333"/><path d="M224.12,181.85H226v2.51a5,5,0,0,1-.87.21,6.13,6.13,0,0,1-.89.06,2.24,2.24,0,0,1-1.75-.67,2.72,2.72,0,0,1-.62-1.9,2.48,2.48,0,0,1,.7-1.88,2.59,2.59,0,0,1,1.91-.69,3.73,3.73,0,0,1,1.48.3l-.29.68a3,3,0,0,0-1.21-.28,1.63,1.63,0,0,0-1.27.51,1.93,1.93,0,0,0-.46,1.37,2.08,2.08,0,0,0,.41,1.39,1.53,1.53,0,0,0,1.21.48,3.77,3.77,0,0,0,.85-.1v-1.29h-1Z" transform="translate(-2.5 -1.41)" style="fill:#333"/><path d="M227,179.78a.45.45,0,0,1,.12-.33.43.43,0,0,1,.33-.12.42.42,0,0,1,.45.45.41.41,0,0,1-.12.32.45.45,0,0,1-.33.12.43.43,0,0,1-.33-.12A.41.41,0,0,1,227,179.78Zm.85,4.78h-.81v-3.78h.81Z" transform="translate(-2.5 -1.41)" style="fill:#333"/><path d="M230.43,184a2,2,0,0,0,.59-.09v.6a1.25,1.25,0,0,1-.34.1,2.12,2.12,0,0,1-.44,0q-1.14,0-1.14-1.2v-2h-.51V181l.55-.3.27-.8h.5v.84H231v.61h-1.07v2a.58.58,0,0,0,.14.43A.51.51,0,0,0,230.43,184Z" transform="translate(-2.5 -1.41)" style="fill:#333"/><path d="M235.8,184.56H235v-2.25h-2.3v2.25h-.82v-5h.82v2H235v-2h.82Z" transform="translate(-2.5 -1.41)" style="fill:#333"/><path d="M239.7,184.56l-.11-.49h0a1.14,1.14,0,0,1-.48.41,1.61,1.61,0,0,1-.71.15,1.37,1.37,0,0,1-1-.34,1.4,1.4,0,0,1-.34-1v-2.47h.81v2.33a1,1,0,0,0,.18.66.69.69,0,0,0,.56.21.89.89,0,0,0,.74-.3,1.65,1.65,0,0,0,.24-1v-1.89h.8v3.78Z" transform="translate(-2.5 -1.41)" style="fill:#333"/><path d="M243.41,180.71a1.32,1.32,0,0,1,1.1.52,2.79,2.79,0,0,1,0,2.88,1.46,1.46,0,0,1-2.23,0h-.05l-.15.45h-.6v-5.32h.8v1.27c0,.09,0,.23,0,.42s0,.3,0,.35h0A1.28,1.28,0,0,1,243.41,180.71Zm-.21.66a.82.82,0,0,0-.7.29,1.7,1.7,0,0,0-.22,1v.06a1.74,1.74,0,0,0,.22,1,.82.82,0,0,0,.71.3.72.72,0,0,0,.65-.33,1.78,1.78,0,0,0,.22-1C244.08,181.8,243.79,181.37,243.2,181.37Z" transform="translate(-2.5 -1.41)" style="fill:#333"/><path d="M247.61,179.78a.42.42,0,0,1,.45-.45.42.42,0,0,1,.33.12.45.45,0,0,1,.12.33.41.41,0,0,1-.12.32.42.42,0,0,1-.33.12.45.45,0,0,1-.33-.12A.41.41,0,0,1,247.61,179.78Zm.85,4.78h-.8v-3.78h.8Z" transform="translate(-2.5 -1.41)" style="fill:#333"/><path d="M252.94,184.56h-.81v-2.32a1,1,0,0,0-.18-.65.65.65,0,0,0-.56-.22.88.88,0,0,0-.74.3,1.65,1.65,0,0,0-.24,1v1.88h-.8v-3.78h.63l.11.5h0a1.19,1.19,0,0,1,.49-.42,1.58,1.58,0,0,1,.69-.15,1.22,1.22,0,0,1,1.37,1.39Z" transform="translate(-2.5 -1.41)" style="fill:#333"/><path d="M257.28,184a2,2,0,0,0,.59-.09v.6a1.34,1.34,0,0,1-.35.1,2,2,0,0,1-.43,0q-1.14,0-1.14-1.2v-2h-.52V181l.55-.3.28-.8h.49v.84h1.08v.61h-1.08v2a.55.55,0,0,0,.15.43A.5.5,0,0,0,257.28,184Z" transform="translate(-2.5 -1.41)" style="fill:#333"/><path d="M262,184.56h-.81v-2.32a1.05,1.05,0,0,0-.17-.65.68.68,0,0,0-.56-.22.9.9,0,0,0-.75.3,1.67,1.67,0,0,0-.23,1v1.87h-.81v-5.32h.81v1.36a5.89,5.89,0,0,1-.05.69h.06a1.16,1.16,0,0,1,.45-.43,1.62,1.62,0,0,1,.68-.15A1.23,1.23,0,0,1,262,182.1Z" transform="translate(-2.5 -1.41)" style="fill:#333"/><path d="M264.72,184.63a1.83,1.83,0,0,1-1.38-.51,2,2,0,0,1-.5-1.42,2.15,2.15,0,0,1,.46-1.46,1.61,1.61,0,0,1,1.27-.53,1.57,1.57,0,0,1,1.18.46,1.73,1.73,0,0,1,.44,1.25v.43h-2.52a1.28,1.28,0,0,0,.29.85,1,1,0,0,0,.79.3,3,3,0,0,0,1.25-.28v.65a2.35,2.35,0,0,1-.6.2A3.51,3.51,0,0,1,264.72,184.63Zm-.15-3.31a.76.76,0,0,0-.61.25,1.1,1.1,0,0,0-.28.7h1.72a1.06,1.06,0,0,0-.23-.71A.75.75,0,0,0,264.57,181.32Z" transform="translate(-2.5 -1.41)" style="fill:#333"/><path d="M270.85,180.71a1.32,1.32,0,0,1,1.1.52,2.79,2.79,0,0,1,0,2.88,1.46,1.46,0,0,1-2.23,0h-.05l-.15.45h-.6v-5.32h.8v1.27c0,.09,0,.23,0,.42s0,.3,0,.35h0A1.28,1.28,0,0,1,270.85,180.71Zm-.21.66a.82.82,0,0,0-.7.29,1.7,1.7,0,0,0-.22,1v.06a1.74,1.74,0,0,0,.22,1,.82.82,0,0,0,.71.3.73.73,0,0,0,.65-.33,1.78,1.78,0,0,0,.22-1C271.52,181.8,271.23,181.37,270.64,181.37Z" transform="translate(-2.5 -1.41)" style="fill:#333"/><path d="M275.64,184.56l-.16-.52h0a1.75,1.75,0,0,1-.55.47,1.87,1.87,0,0,1-.72.12,1.21,1.21,0,0,1-.87-.3,1.15,1.15,0,0,1-.31-.85,1,1,0,0,1,.44-.88,2.5,2.5,0,0,1,1.32-.33l.65,0v-.2a.73.73,0,0,0-.17-.54.68.68,0,0,0-.52-.18,1.73,1.73,0,0,0-.56.09,2.85,2.85,0,0,0-.51.2l-.26-.58a2.43,2.43,0,0,1,.67-.24,3,3,0,0,1,.69-.09,1.63,1.63,0,0,1,1.09.32,1.22,1.22,0,0,1,.37,1v2.54Zm-1.19-.54a1,1,0,0,0,.7-.25.87.87,0,0,0,.27-.68v-.33l-.49,0a1.69,1.69,0,0,0-.83.19.57.57,0,0,0-.25.52.51.51,0,0,0,.15.39A.65.65,0,0,0,274.45,184Z" transform="translate(-2.5 -1.41)" style="fill:#333"/><path d="M278.86,184.63a1.67,1.67,0,0,1-1.3-.5,2.07,2.07,0,0,1-.45-1.44,2.1,2.1,0,0,1,.47-1.46,1.74,1.74,0,0,1,1.35-.52,2.52,2.52,0,0,1,1.08.23l-.25.64a2.5,2.5,0,0,0-.84-.2c-.65,0-1,.44-1,1.31a1.5,1.5,0,0,0,.25.95.84.84,0,0,0,.71.32,2,2,0,0,0,1-.27v.71a2,2,0,0,1-.46.18A3.37,3.37,0,0,1,278.86,184.63Z" transform="translate(-2.5 -1.41)" style="fill:#333"/><path d="M281.58,182.57,282,182l1.14-1.22h.92l-1.52,1.63,1.62,2.15h-.94L282,182.91l-.44.36v1.29h-.79v-5.32h.79v2.6l0,.73Z" transform="translate(-2.5 -1.41)" style="fill:#333"/><path d="M288,180.78v.44l-.65.12a1.05,1.05,0,0,1,.15.3,1.1,1.1,0,0,1,.06.37,1.17,1.17,0,0,1-.4.92,1.72,1.72,0,0,1-1.12.33,1.58,1.58,0,0,1-.32,0,.45.45,0,0,0-.26.38.2.2,0,0,0,.12.19.92.92,0,0,0,.44.07h.66a1.44,1.44,0,0,1,.95.27.91.91,0,0,1,.33.76,1.15,1.15,0,0,1-.53,1,2.8,2.8,0,0,1-1.53.34,2.12,2.12,0,0,1-1.18-.27.88.88,0,0,1-.41-.78.83.83,0,0,1,.22-.58,1.2,1.2,0,0,1,.62-.33.64.64,0,0,1-.27-.22.66.66,0,0,1-.1-.32.54.54,0,0,1,.12-.36,1.23,1.23,0,0,1,.36-.29,1.08,1.08,0,0,1-.48-.42,1.21,1.21,0,0,1-.18-.66,1.24,1.24,0,0,1,.38-1,1.67,1.67,0,0,1,1.11-.34l.34,0,.26,0Zm-3,4.37a.45.45,0,0,0,.23.4,1.35,1.35,0,0,0,.66.14,1.93,1.93,0,0,0,1-.19.56.56,0,0,0,.32-.5.38.38,0,0,0-.18-.35,1.37,1.37,0,0,0-.65-.1h-.61a.86.86,0,0,0-.55.16A.56.56,0,0,0,285,185.15Zm.35-3.14a.75.75,0,0,0,.18.54.67.67,0,0,0,.52.19c.47,0,.7-.24.7-.74a.86.86,0,0,0-.17-.57.68.68,0,0,0-.53-.2.69.69,0,0,0-.53.2A.82.82,0,0,0,285.38,182Z" transform="translate(-2.5 -1.41)" style="fill:#333"/><path d="M290.62,180.71a2.15,2.15,0,0,1,.4,0l-.08.75a1.37,1.37,0,0,0-.36,0,1,1,0,0,0-.78.31,1.13,1.13,0,0,0-.3.82v2h-.8v-3.78h.63l.11.67h0a1.42,1.42,0,0,1,.49-.54A1.18,1.18,0,0,1,290.62,180.71Z" transform="translate(-2.5 -1.41)" style="fill:#333"/><path d="M295.07,182.67a2.08,2.08,0,0,1-.47,1.44,1.7,1.7,0,0,1-1.33.52,1.79,1.79,0,0,1-.93-.24,1.62,1.62,0,0,1-.63-.69,2.37,2.37,0,0,1-.22-1,2.06,2.06,0,0,1,.47-1.44,1.74,1.74,0,0,1,1.33-.52,1.67,1.67,0,0,1,1.3.53A2,2,0,0,1,295.07,182.67Zm-2.75,0c0,.87.32,1.3,1,1.3s.95-.43.95-1.3-.32-1.3-1-1.3a.8.8,0,0,0-.73.34A1.7,1.7,0,0,0,292.32,182.67Z" transform="translate(-2.5 -1.41)" style="fill:#333"/><path d="M298.66,184.56l-.11-.49h0a1.14,1.14,0,0,1-.48.41,1.61,1.61,0,0,1-.71.15,1.37,1.37,0,0,1-1-.34,1.4,1.4,0,0,1-.34-1v-2.47h.81v2.33a1,1,0,0,0,.18.66.69.69,0,0,0,.56.21.89.89,0,0,0,.74-.3,1.65,1.65,0,0,0,.24-1v-1.89h.8v3.78Z" transform="translate(-2.5 -1.41)" style="fill:#333"/><path d="M303.76,184.56H303v-2.32a1,1,0,0,0-.18-.65.66.66,0,0,0-.56-.22.87.87,0,0,0-.74.3,1.65,1.65,0,0,0-.24,1v1.88h-.8v-3.78h.63l.11.5h0a1.13,1.13,0,0,1,.49-.42,1.58,1.58,0,0,1,.69-.15,1.22,1.22,0,0,1,1.36,1.39Z" transform="translate(-2.5 -1.41)" style="fill:#333"/><path d="M306.16,184.63a1.33,1.33,0,0,1-1.11-.51,2.84,2.84,0,0,1,0-2.89,1.35,1.35,0,0,1,1.11-.52,1.29,1.29,0,0,1,1.13.56h.05a4.84,4.84,0,0,1-.06-.65v-1.38h.8v5.32h-.62l-.14-.49h0A1.3,1.3,0,0,1,306.16,184.63Zm.21-.65a.86.86,0,0,0,.72-.28,1.47,1.47,0,0,0,.24-.9v-.11a1.66,1.66,0,0,0-.24-1,.85.85,0,0,0-.73-.3.73.73,0,0,0-.65.34,1.8,1.8,0,0,0-.23,1,1.7,1.7,0,0,0,.23,1A.74.74,0,0,0,306.37,184Z" transform="translate(-2.5 -1.41)" style="fill:#333"/><path d="M92.05,165.22a2.49,2.49,0,0,1-.69,1.89,2.78,2.78,0,0,1-2,.65H88v-5h1.54a2.56,2.56,0,0,1,1.86.64A2.41,2.41,0,0,1,92.05,165.22Zm-.86,0c0-1.19-.56-1.79-1.68-1.79H88.8v3.63h.58A1.61,1.61,0,0,0,91.19,165.24Z" transform="translate(-2.5 -1.41)" style="fill:#333"/><path d="M94.69,167.83a1.83,1.83,0,0,1-1.38-.51,2,2,0,0,1-.5-1.42,2.2,2.2,0,0,1,.46-1.46,1.61,1.61,0,0,1,1.27-.53,1.57,1.57,0,0,1,1.18.46,1.73,1.73,0,0,1,.44,1.25v.43H93.64a1.23,1.23,0,0,0,.3.85,1,1,0,0,0,.79.29,2.78,2.78,0,0,0,1.24-.27v.65a2.29,2.29,0,0,1-.59.2A3.62,3.62,0,0,1,94.69,167.83Zm-.15-3.31a.78.78,0,0,0-.61.25,1.1,1.1,0,0,0-.28.7h1.72a1.06,1.06,0,0,0-.23-.71A.75.75,0,0,0,94.54,164.52Z" transform="translate(-2.5 -1.41)" style="fill:#333"/><path d="M97.93,167.76,96.5,164h.84l.77,2.2a3.57,3.57,0,0,1,.24.9h0a5.61,5.61,0,0,1,.24-.9l.77-2.2h.85l-1.44,3.78Z" transform="translate(-2.5 -1.41)" style="fill:#333"/><path d="M102.47,167.83a1.83,1.83,0,0,1-1.38-.51,2,2,0,0,1-.5-1.42,2.2,2.2,0,0,1,.46-1.46,1.61,1.61,0,0,1,1.27-.53,1.57,1.57,0,0,1,1.18.46,1.73,1.73,0,0,1,.44,1.25v.43h-2.52a1.23,1.23,0,0,0,.3.85,1,1,0,0,0,.79.29,2.78,2.78,0,0,0,1.24-.27v.65a2.23,2.23,0,0,1-.6.2A3.44,3.44,0,0,1,102.47,167.83Zm-.15-3.31a.78.78,0,0,0-.61.25,1.1,1.1,0,0,0-.28.7h1.72a1.06,1.06,0,0,0-.23-.71A.75.75,0,0,0,102.32,164.52Z" transform="translate(-2.5 -1.41)" style="fill:#333"/><path d="M105.65,167.76h-.8v-5.32h.8Z" transform="translate(-2.5 -1.41)" style="fill:#333"/><path d="M110.15,165.87a2,2,0,0,1-.47,1.44,1.7,1.7,0,0,1-1.32.52,1.8,1.8,0,0,1-.94-.24,1.62,1.62,0,0,1-.63-.69,2.37,2.37,0,0,1-.21-1,2,2,0,0,1,.47-1.44,1.72,1.72,0,0,1,1.33-.52,1.69,1.69,0,0,1,1.3.53A2,2,0,0,1,110.15,165.87Zm-2.75,0c0,.87.33,1.31,1,1.31s1-.44,1-1.31-.32-1.3-1-1.3a.81.81,0,0,0-.73.34A1.7,1.7,0,0,0,107.4,165.87Z" transform="translate(-2.5 -1.41)" style="fill:#333"/><path d="M113,167.83a1.33,1.33,0,0,1-1.12-.52h0c0,.32,0,.52,0,.59v1.54h-.8V164h.65c0,.07,0,.24.11.51h0a1.25,1.25,0,0,1,1.13-.58,1.32,1.32,0,0,1,1.1.52,2.33,2.33,0,0,1,.4,1.44,2.28,2.28,0,0,1-.41,1.44A1.29,1.29,0,0,1,113,167.83Zm-.2-3.26a.83.83,0,0,0-.7.28,1.45,1.45,0,0,0-.22.9v.12a1.69,1.69,0,0,0,.22,1,.81.81,0,0,0,.71.32.74.74,0,0,0,.65-.35,1.76,1.76,0,0,0,.22-1,1.66,1.66,0,0,0-.22-1A.75.75,0,0,0,112.8,164.57Z" transform="translate(-2.5 -1.41)" style="fill:#333"/><path d="M117.09,167.83a1.83,1.83,0,0,1-1.38-.51,2,2,0,0,1-.5-1.42,2.2,2.2,0,0,1,.46-1.46,1.62,1.62,0,0,1,1.27-.53,1.59,1.59,0,0,1,1.19.46,1.73,1.73,0,0,1,.43,1.25v.43H116a1.23,1.23,0,0,0,.3.85,1,1,0,0,0,.79.29,2.78,2.78,0,0,0,1.24-.27v.65a2.17,2.17,0,0,1-.59.2A3.54,3.54,0,0,1,117.09,167.83Zm-.15-3.31a.78.78,0,0,0-.61.25,1.16,1.16,0,0,0-.28.7h1.72a1,1,0,0,0-.23-.71A.75.75,0,0,0,116.94,164.52Z" transform="translate(-2.5 -1.41)" style="fill:#333"/><path d="M121.39,163.91a2.15,2.15,0,0,1,.4,0l-.08.75a1.34,1.34,0,0,0-.35,0,1,1,0,0,0-.79.31,1.17,1.17,0,0,0-.29.82v2h-.81V164h.63l.11.67h0a1.42,1.42,0,0,1,.49-.54A1.18,1.18,0,0,1,121.39,163.91Z" transform="translate(-2.5 -1.41)" style="fill:#333"/><path d="M125,166.69a1,1,0,0,1-.4.84,1.93,1.93,0,0,1-1.16.3,2.61,2.61,0,0,1-1.21-.23v-.69a3.06,3.06,0,0,0,1.24.31c.49,0,.74-.15.74-.45a.36.36,0,0,0-.08-.24,1,1,0,0,0-.27-.2,3.91,3.91,0,0,0-.52-.23,2.47,2.47,0,0,1-.89-.51,1,1,0,0,1-.23-.65.87.87,0,0,1,.39-.76,1.86,1.86,0,0,1,1.07-.27,3,3,0,0,1,1.26.27l-.26.61a2.77,2.77,0,0,0-1-.25c-.42,0-.64.12-.64.36a.36.36,0,0,0,.17.3,4.16,4.16,0,0,0,.72.34,3.31,3.31,0,0,1,.68.33,1.05,1.05,0,0,1,.32.35A1,1,0,0,1,125,166.69Z" transform="translate(-2.5 -1.41)" style="fill:#333"/><path d="M129.63,167.83a1.31,1.31,0,0,1-1.11-.52h-.05c0,.32.05.52.05.59v1.54h-.8V164h.65c0,.07,0,.24.11.51h0a1.25,1.25,0,0,1,1.13-.58,1.32,1.32,0,0,1,1.1.52,2.33,2.33,0,0,1,.39,1.44,2.28,2.28,0,0,1-.4,1.44A1.3,1.3,0,0,1,129.63,167.83Zm-.19-3.26a.83.83,0,0,0-.7.28,1.45,1.45,0,0,0-.22.9v.12a1.69,1.69,0,0,0,.22,1,.8.8,0,0,0,.71.32.75.75,0,0,0,.65-.35,1.76,1.76,0,0,0,.22-1,1.66,1.66,0,0,0-.22-1A.75.75,0,0,0,129.44,164.57Z" transform="translate(-2.5 -1.41)" style="fill:#333"/><path d="M134.74,167.76l-.11-.49h0a1.14,1.14,0,0,1-.48.41,1.57,1.57,0,0,1-.7.15,1.39,1.39,0,0,1-1-.34,1.44,1.44,0,0,1-.34-1V164h.81v2.33a1,1,0,0,0,.18.65.68.68,0,0,0,.56.22.88.88,0,0,0,.74-.3,1.65,1.65,0,0,0,.24-1V164h.81v3.78Z" transform="translate(-2.5 -1.41)" style="fill:#333"/><path d="M137.32,167.76h-.8v-5.32h.8Z" transform="translate(-2.5 -1.41)" style="fill:#333"/><path d="M139.28,167.76h-.81v-5.32h.81Z" transform="translate(-2.5 -1.41)" style="fill:#333"/><path d="M143.77,167.83a1.69,1.69,0,0,1-1.31-.5,2.12,2.12,0,0,1-.44-1.44,2.1,2.1,0,0,1,.46-1.46,1.74,1.74,0,0,1,1.35-.52,2.52,2.52,0,0,1,1.08.23l-.24.64a2.5,2.5,0,0,0-.84-.2c-.66,0-1,.44-1,1.31a1.56,1.56,0,0,0,.25,1,.84.84,0,0,0,.71.32,2,2,0,0,0,1-.27v.71a1.83,1.83,0,0,1-.46.18A3.25,3.25,0,0,1,143.77,167.83Z" transform="translate(-2.5 -1.41)" style="fill:#333"/><path d="M149,167.76h-.8v-2.32a1,1,0,0,0-.18-.65.66.66,0,0,0-.56-.22.89.89,0,0,0-.74.3,1.66,1.66,0,0,0-.24,1v1.87h-.8v-5.32h.8v1.35a5.8,5.8,0,0,1,0,.7h.05a1.12,1.12,0,0,1,.46-.43,1.45,1.45,0,0,1,.68-.15A1.22,1.22,0,0,1,149,165.3Z" transform="translate(-2.5 -1.41)" style="fill:#333"/><path d="M152.52,167.76l-.16-.52h0a1.64,1.64,0,0,1-.55.47,1.81,1.81,0,0,1-.71.12,1.21,1.21,0,0,1-.87-.3,1.11,1.11,0,0,1-.31-.85,1,1,0,0,1,.43-.88,2.5,2.5,0,0,1,1.32-.33l.65,0v-.2a.77.77,0,0,0-.16-.54.71.71,0,0,0-.53-.18,2.1,2.1,0,0,0-.56.08,5.49,5.49,0,0,0-.51.21l-.26-.58a3.29,3.29,0,0,1,1.37-.33,1.6,1.6,0,0,1,1.08.32,1.22,1.22,0,0,1,.37,1v2.54Zm-1.2-.54a1,1,0,0,0,.7-.25.87.87,0,0,0,.27-.68V166l-.49,0a1.62,1.62,0,0,0-.82.19.57.57,0,0,0-.26.52.51.51,0,0,0,.15.39A.65.65,0,0,0,151.32,167.22Z" transform="translate(-2.5 -1.41)" style="fill:#333"/><path d="M157.54,167.76h-.81v-2.32a1.05,1.05,0,0,0-.17-.65.68.68,0,0,0-.56-.22.9.9,0,0,0-.75.3,1.65,1.65,0,0,0-.23,1v1.88h-.81V164h.63l.11.5H155a1.1,1.1,0,0,1,.48-.42,1.6,1.6,0,0,1,.7-.15,1.22,1.22,0,0,1,1.36,1.39Z" transform="translate(-2.5 -1.41)" style="fill:#333"/><path d="M161.85,164v.44l-.65.12a1.05,1.05,0,0,1,.15.3,1.1,1.1,0,0,1,.06.37,1.14,1.14,0,0,1-.41.92,1.71,1.71,0,0,1-1.11.33,1.51,1.51,0,0,1-.32,0,.45.45,0,0,0-.26.38.2.2,0,0,0,.12.19.92.92,0,0,0,.44.07h.66a1.44,1.44,0,0,1,.95.27.91.91,0,0,1,.33.76,1.15,1.15,0,0,1-.53,1,2.84,2.84,0,0,1-1.53.34,2.12,2.12,0,0,1-1.18-.27.88.88,0,0,1-.41-.78.79.79,0,0,1,.22-.58,1.16,1.16,0,0,1,.62-.33.64.64,0,0,1-.27-.22.58.58,0,0,1-.1-.33.53.53,0,0,1,.12-.35,1.32,1.32,0,0,1,.35-.29,1.12,1.12,0,0,1-.47-.42,1.14,1.14,0,0,1-.19-.66,1.21,1.21,0,0,1,.39-1,1.67,1.67,0,0,1,1.11-.34,1.93,1.93,0,0,1,.33,0l.27,0Zm-3,4.37a.45.45,0,0,0,.23.4,1.35,1.35,0,0,0,.66.14,2,2,0,0,0,1-.19.56.56,0,0,0,.32-.5.38.38,0,0,0-.18-.35,1.37,1.37,0,0,0-.65-.1h-.61a.86.86,0,0,0-.55.16A.56.56,0,0,0,158.88,168.35Zm.34-3.14a.71.71,0,0,0,.19.54.67.67,0,0,0,.52.19c.47,0,.7-.24.7-.74a.86.86,0,0,0-.17-.57.68.68,0,0,0-.53-.2.69.69,0,0,0-.53.2A.82.82,0,0,0,159.22,165.21Z" transform="translate(-2.5 -1.41)" style="fill:#333"/><path d="M164.2,167.83a1.83,1.83,0,0,1-1.38-.51,2,2,0,0,1-.5-1.42,2.2,2.2,0,0,1,.46-1.46,1.62,1.62,0,0,1,1.27-.53,1.59,1.59,0,0,1,1.19.46,1.77,1.77,0,0,1,.43,1.25v.43h-2.52a1.23,1.23,0,0,0,.3.85,1,1,0,0,0,.79.29,2.78,2.78,0,0,0,1.24-.27v.65a2.17,2.17,0,0,1-.59.2A3.54,3.54,0,0,1,164.2,167.83Zm-.15-3.31a.78.78,0,0,0-.61.25,1.16,1.16,0,0,0-.28.7h1.72a1,1,0,0,0-.23-.71A.75.75,0,0,0,164.05,164.52Z" transform="translate(-2.5 -1.41)" style="fill:#333"/><path d="M169.12,166.69a1,1,0,0,1-.4.84,1.93,1.93,0,0,1-1.16.3,2.61,2.61,0,0,1-1.21-.23v-.69a3.06,3.06,0,0,0,1.24.31c.5,0,.74-.15.74-.45a.36.36,0,0,0-.08-.24.78.78,0,0,0-.27-.2,3.91,3.91,0,0,0-.52-.23,2.47,2.47,0,0,1-.89-.51,1,1,0,0,1-.23-.65.87.87,0,0,1,.39-.76,1.88,1.88,0,0,1,1.07-.27,3,3,0,0,1,1.26.27l-.26.61a2.77,2.77,0,0,0-1-.25q-.63,0-.63.36a.35.35,0,0,0,.16.3,4.16,4.16,0,0,0,.72.34,3.06,3.06,0,0,1,.68.33.91.91,0,0,1,.42.82Z" transform="translate(-2.5 -1.41)" style="fill:#333"/><path d="M173.71,164.59h-.93v3.17H172v-3.17h-.63v-.38L172,164v-.25a1.37,1.37,0,0,1,.31-1,1.31,1.31,0,0,1,1-.32,2.37,2.37,0,0,1,.83.14l-.21.61a1.66,1.66,0,0,0-.56-.1.46.46,0,0,0-.4.17.8.8,0,0,0-.13.51V164h.93Z" transform="translate(-2.5 -1.41)" style="fill:#333"/><path d="M176.27,163.91a2.15,2.15,0,0,1,.4,0l-.08.75a1.47,1.47,0,0,0-.36,0,1,1,0,0,0-.78.31,1.13,1.13,0,0,0-.3.82v2h-.8V164H175l.1.67h0a1.51,1.51,0,0,1,.49-.54A1.22,1.22,0,0,1,176.27,163.91Z" transform="translate(-2.5 -1.41)" style="fill:#333"/><path d="M180.72,165.87a2,2,0,0,1-.48,1.44,1.67,1.67,0,0,1-1.32.52,1.85,1.85,0,0,1-.94-.24,1.54,1.54,0,0,1-.62-.69,2.23,2.23,0,0,1-.22-1,2.06,2.06,0,0,1,.47-1.44,1.74,1.74,0,0,1,1.33-.52,1.67,1.67,0,0,1,1.3.53A2,2,0,0,1,180.72,165.87Zm-2.75,0c0,.87.32,1.31,1,1.31s1-.44,1-1.31-.32-1.3-1-1.3a.83.83,0,0,0-.74.34A1.71,1.71,0,0,0,178,165.87Z" transform="translate(-2.5 -1.41)" style="fill:#333"/><path d="M184.83,167.76H184v-2.33a1.08,1.08,0,0,0-.16-.65.62.62,0,0,0-.52-.21.79.79,0,0,0-.68.3,1.82,1.82,0,0,0-.22,1v1.88h-.8V164h.63l.11.5h0a1.1,1.1,0,0,1,.46-.42,1.45,1.45,0,0,1,.66-.15,1.14,1.14,0,0,1,1.15.6h.06a1.17,1.17,0,0,1,.47-.44,1.57,1.57,0,0,1,.7-.16,1.24,1.24,0,0,1,1,.35,1.47,1.47,0,0,1,.31,1v2.46h-.8v-2.33a1.07,1.07,0,0,0-.17-.65.61.61,0,0,0-.51-.21.83.83,0,0,0-.69.29,1.57,1.57,0,0,0-.21.9Z" transform="translate(-2.5 -1.41)" style="fill:#333"/><path d="M128.32,173.45h1.84V176a5,5,0,0,1-.87.21,6.13,6.13,0,0,1-.89.06,2.24,2.24,0,0,1-1.75-.67,2.72,2.72,0,0,1-.62-1.9,2.48,2.48,0,0,1,.7-1.88,2.59,2.59,0,0,1,1.91-.69,3.73,3.73,0,0,1,1.48.3l-.29.68a3,3,0,0,0-1.21-.28,1.63,1.63,0,0,0-1.27.51,1.93,1.93,0,0,0-.46,1.37,2,2,0,0,0,.42,1.39,1.51,1.51,0,0,0,1.2.48,3.77,3.77,0,0,0,.85-.1v-1.29h-1Z" transform="translate(-2.5 -1.41)" style="fill:#333"/><path d="M131.23,171.38a.45.45,0,0,1,.12-.33.43.43,0,0,1,.33-.12.42.42,0,0,1,.45.45.41.41,0,0,1-.12.32.45.45,0,0,1-.33.12.43.43,0,0,1-.33-.12A.41.41,0,0,1,131.23,171.38Zm.85,4.78h-.8v-3.78h.8Z" transform="translate(-2.5 -1.41)" style="fill:#333"/><path d="M134.64,175.58a2,2,0,0,0,.58-.09v.6a1.25,1.25,0,0,1-.34.1,2.12,2.12,0,0,1-.44,0q-1.14,0-1.14-1.2v-2h-.51v-.35l.55-.3.27-.8h.5v.84h1.08V173h-1.08v2a.58.58,0,0,0,.14.43A.52.52,0,0,0,134.64,175.58Z" transform="translate(-2.5 -1.41)" style="fill:#333"/><path d="M140,176.16h-.82v-2.25h-2.31v2.25h-.82v-5h.82v2h2.31v-2H140Z" transform="translate(-2.5 -1.41)" style="fill:#333"/><path d="M143.9,176.16l-.11-.49h0a1.14,1.14,0,0,1-.48.41,1.57,1.57,0,0,1-.7.15,1.21,1.21,0,0,1-1.37-1.38v-2.47H142v2.33a1,1,0,0,0,.18.65.66.66,0,0,0,.56.22.89.89,0,0,0,.74-.3,1.65,1.65,0,0,0,.24-1v-1.89h.8v3.78Z" transform="translate(-2.5 -1.41)" style="fill:#333"/><path d="M147.61,172.31a1.29,1.29,0,0,1,1.1.52,2.26,2.26,0,0,1,.4,1.44,2.33,2.33,0,0,1-.4,1.44,1.46,1.46,0,0,1-2.23,0h0l-.15.45h-.6v-5.32h.8v1.27c0,.09,0,.23,0,.42s0,.3,0,.35h0A1.28,1.28,0,0,1,147.61,172.31Zm-.21.66a.84.84,0,0,0-.7.29,1.7,1.7,0,0,0-.22,1v.06a1.83,1.83,0,0,0,.22,1,.84.84,0,0,0,.72.3.71.71,0,0,0,.64-.33,1.8,1.8,0,0,0,.22-1C148.28,173.4,148,173,147.4,173Z" transform="translate(-2.5 -1.41)" style="fill:#333"/><path d="M19.05,67.94c-5.11,0-16.55,2.72-16.55,17.38A37,37,0,0,0,5,97.74a81.09,81.09,0,0,0,28.14,0A37,37,0,0,0,35.6,85.32C35.6,70.66,24.17,67.94,19.05,67.94Z" transform="translate(-2.5 -1.41)" style="fill:#9d6e48"/><path d="M2.5,85.32A37,37,0,0,0,5,97.74a81.26,81.26,0,0,0,12.54,1.19s-6.57-15.64-3-30.38C9.08,70,2.5,74.2,2.5,85.32Z" transform="translate(-2.5 -1.41)" style="fill:#8d5f3d"/><path d="M34.4,113.13l-1-7.43a4.11,4.11,0,0,0-2.25-3.15l-1.78-.89a.51.51,0,0,0-.7.23l-3.53-1.29A1.65,1.65,0,0,1,24,99V96.36l3.56-1.49a5,5,0,0,0,3.06-4.58h0a2.49,2.49,0,0,0,0-5V82.84A4.14,4.14,0,0,0,26.5,78.7H11.6a4.13,4.13,0,0,0-4.13,4.14v2.48a2.49,2.49,0,1,0,0,5h0a5,5,0,0,0,3.05,4.58l3.57,1.49V99A1.66,1.66,0,0,1,13,100.6l-3.52,1.29a.52.52,0,0,0-.7-.23l-1.63.81a4.22,4.22,0,0,0-2.41,3.23l0,.3h0l-1,7.13a2.48,2.48,0,0,0,2.46,2.81H31.94A2.48,2.48,0,0,0,34.4,113.13Z" transform="translate(-2.5 -1.41)" style="fill:#ffd7a3"/><path d="M14.09,96.29V99a1.65,1.65,0,0,1-.81,1.41A11.23,11.23,0,0,0,24,96.29Z" transform="translate(-2.5 -1.41)" style="fill:#fdc88e"/><path d="M30.64,85.32V82.84A4.14,4.14,0,0,0,26.5,78.7H11.6a4.13,4.13,0,0,0-4.13,4.14v2.48a2.49,2.49,0,1,0,0,5h0a5,5,0,0,0,3.05,4.58l5.35,2.23a8.28,8.28,0,0,0,3.18.64h0a8.25,8.25,0,0,0,3.18-.64l5.35-2.23a5,5,0,0,0,3.06-4.58h0a2.49,2.49,0,0,0,0-5Z" transform="translate(-2.5 -1.41)" style="fill:#ffe1b2"/><path d="M13.26,87.8h0a.83.83,0,0,1-.83-.82v-.83a.83.83,0,0,1,.83-.83h0a.83.83,0,0,1,.83.83V87A.83.83,0,0,1,13.26,87.8Z" transform="translate(-2.5 -1.41)" style="fill:#623f33"/><path d="M24.84,87.8h0A.82.82,0,0,1,24,87v-.83a.83.83,0,0,1,.82-.83h0a.83.83,0,0,1,.83.83V87A.83.83,0,0,1,24.84,87.8Z" transform="translate(-2.5 -1.41)" style="fill:#623f33"/><path d="M19.05,93.62a6.87,6.87,0,0,1-3.77-1,.83.83,0,1,1,.93-1.37,5.32,5.32,0,0,0,2.84.71,5.35,5.35,0,0,0,2.85-.71.82.82,0,0,1,1.15.22.83.83,0,0,1-.22,1.15A6.93,6.93,0,0,1,19.05,93.62Z" transform="translate(-2.5 -1.41)" style="fill:#e4b07b"/><path d="M7.47,85.32a2.49,2.49,0,1,0,0,5,5,5,0,0,0,3.05,4.58l5.35,2.23a7.58,7.58,0,0,0,.8.28,34.78,34.78,0,0,1-4.86-4.22,3.89,3.89,0,0,1-1-2.66v-6c2.54.08,8,.29,12.72-2.21V79.12h-16Z" transform="translate(-2.5 -1.41)" style="fill:#ffd7a3"/><path d="M31.16,102.55l-1.78-.89a.53.53,0,0,0-.75.34,9.93,9.93,0,0,1-19.16,0,.53.53,0,0,0-.74-.34l-1.63.81a4.22,4.22,0,0,0-2.41,3.23l-1,7.43a2.48,2.48,0,0,0,2.46,2.81H31.94a2.48,2.48,0,0,0,2.46-2.81l-1-7.43A4.11,4.11,0,0,0,31.16,102.55Z" transform="translate(-2.5 -1.41)" style="fill:#8db9e2"/><path d="M5.07,104.47a4.09,4.09,0,0,0-.38,1.23l-1,7.43a2.48,2.48,0,0,0,2.46,2.81H10v-3.31a5,5,0,0,0-1-3Z" transform="translate(-2.5 -1.41)" style="fill:#6aa2de"/><path d="M33,104.47a4.09,4.09,0,0,1,.38,1.23l1,7.43a2.48,2.48,0,0,1-2.46,2.81H28.16v-3.31a4.94,4.94,0,0,1,1-3Z" transform="translate(-2.5 -1.41)" style="fill:#6aa2de"/><path d="M7.16,78.8V82a22.39,22.39,0,0,0,9.34.83l.85-3.31.85,3.31A8.86,8.86,0,0,0,21.6,82l.85-1.65.85,2.48A17.94,17.94,0,0,0,28.4,82l.85-1.65L31,84.49V78.6s-3.51-5-12.22-5S7.16,78.8,7.16,78.8Z" transform="translate(-2.5 -1.41)" style="fill:#9d6e48"/><path d="M16.09,73.8c-6.63.9-8.93,5-8.93,5V82a19.41,19.41,0,0,0,6,.94S13.11,77.49,16.09,73.8Z" transform="translate(-2.5 -1.41)" style="fill:#8d5f3d"/><path d="M30.62,79.53a.83.83,0,0,1-.7-.38c-1.75-2.74-6.11-4.59-10.87-4.59S9.93,76.41,8.19,79.15A.85.85,0,0,1,7,79.4a.83.83,0,0,1-.25-1.14c2.07-3.25,6.88-5.35,12.26-5.35s10.2,2.1,12.26,5.35a.82.82,0,0,1-.25,1.14A.8.8,0,0,1,30.62,79.53Z" transform="translate(-2.5 -1.41)" style="fill:#ffc84a"/><path d="M31,84.08H22.36a1.25,1.25,0,0,0-1.24,1.24v.05a2.87,2.87,0,0,0-4.14,0v-.05a1.24,1.24,0,0,0-1.24-1.24H7.16a.42.42,0,1,0,0,.83H9.61a1.15,1.15,0,0,0-.08.41V87.8a1.25,1.25,0,0,0,1.25,1.25h5A1.24,1.24,0,0,0,17,87.8v-.41a2.07,2.07,0,1,1,4.14,0v.41a1.25,1.25,0,0,0,1.24,1.25h5a1.25,1.25,0,0,0,1.24-1.25V85.32a1.41,1.41,0,0,0-.07-.41H31a.42.42,0,0,0,0-.83ZM16.16,87.8a.42.42,0,0,1-.42.42h-5a.42.42,0,0,1-.42-.42V85.32a.41.41,0,0,1,.42-.41h5a.41.41,0,0,1,.42.41Zm11.58-2.48V87.8a.41.41,0,0,1-.41.42h-5A.41.41,0,0,1,22,87.8V85.32a.41.41,0,0,1,.41-.41h5A.41.41,0,0,1,27.74,85.32Z" transform="translate(-2.5 -1.41)" style="fill:#734a3e"/><path d="M394.28,111.46l-.08-.72a.51.51,0,0,0-.56-.45h-.05l-.76-6.13a3.52,3.52,0,0,0-2.36-2.88l-4.26-1.42a1.75,1.75,0,0,0-1.68.32l-1.26-.42a1.75,1.75,0,0,1-1.19-1.66V95.29l3.76-1.57a5.23,5.23,0,0,0,3.22-4.83V88a2.62,2.62,0,0,0,.91-5.08l.43-7.63a7,7,0,0,0-7-7.37H370.26a7,7,0,0,0-7,7.37l.42,7.63a2.62,2.62,0,0,0,.92,5.08v.87a5.23,5.23,0,0,0,3.22,4.83l3.76,1.57V98.1a1.75,1.75,0,0,1-1.2,1.66l-1.25.42a1.75,1.75,0,0,0-1.68-.32l-4.26,1.42a3.52,3.52,0,0,0-2.36,2.88l-.76,6.13h-.05a.52.52,0,0,0-.57.45l-.08.72a.51.51,0,0,0,.46.56l1.27.15v2a1.75,1.75,0,0,0,1.75,1.74h27.93a1.74,1.74,0,0,0,1.74-1.74v-2l1.28-.15A.51.51,0,0,0,394.28,111.46Z" transform="translate(-2.5 -1.41)" style="fill:#a2795c"/><path d="M363.29,75.31l.46,8.34h26.18l.47-8.34a7,7,0,0,0-7-7.37H370.26A7,7,0,0,0,363.29,75.31Z" transform="translate(-2.5 -1.41)" style="fill:#623f33"/><path d="M386.44,115.94v-4.36h7.31l-.92-7.42a3.52,3.52,0,0,0-2.36-2.88l-4.26-1.42a1.73,1.73,0,0,0-2,.68,8.71,8.71,0,0,1-14.73,0,1.74,1.74,0,0,0-2-.68l-4.26,1.42a3.52,3.52,0,0,0-2.36,2.88L360,110.8l7.21.78v4.36Z" transform="translate(-2.5 -1.41)" style="fill:#ffc84a"/><path d="M382.08,95.22H371.61V98.1a1.73,1.73,0,0,1-.88,1.49A11.86,11.86,0,0,0,382.08,95.22Z" transform="translate(-2.5 -1.41)" style="fill:#8f6951"/><path d="M389.06,82.78V79.29a4.37,4.37,0,0,0-4.36-4.37H369a4.37,4.37,0,0,0-4.36,4.37v3.49a2.62,2.62,0,0,0,0,5.24v.87a5.23,5.23,0,0,0,3.22,4.83l5.64,2.35a8.75,8.75,0,0,0,3.35.67h0a8.76,8.76,0,0,0,3.36-.67l5.64-2.35a5.23,5.23,0,0,0,3.22-4.83V88a2.62,2.62,0,1,0,0-5.24Z" transform="translate(-2.5 -1.41)" style="fill:#ad8366"/><path d="M370.73,86.27h0a.87.87,0,0,1-.87-.87v-.88a.87.87,0,0,1,.87-.87h0a.88.88,0,0,1,.88.87v.88A.88.88,0,0,1,370.73,86.27Z" transform="translate(-2.5 -1.41)" style="fill:#623f33"/><path d="M383,86.27h0a.87.87,0,0,1-.87-.87v-.88a.87.87,0,0,1,.87-.87h0a.88.88,0,0,1,.88.87v.88A.88.88,0,0,1,383,86.27Z" transform="translate(-2.5 -1.41)" style="fill:#623f33"/><path d="M376.84,92.4a7.32,7.32,0,0,1-4-1,.88.88,0,0,1-.23-1.22.87.87,0,0,1,1.21-.23,6.37,6.37,0,0,0,6,0,.88.88,0,0,1,1.22.23.89.89,0,0,1-.23,1.22A7.33,7.33,0,0,1,376.84,92.4Z" transform="translate(-2.5 -1.41)" style="fill:#8f6951"/><path d="M367.24,112.24v-2a3.46,3.46,0,0,0-.85-2.28l-4.8-5.55a3.48,3.48,0,0,0-.73,1.73l-.91,7.29Z" transform="translate(-2.5 -1.41)" style="fill:#95b995"/><path d="M367.24,111.09l-7.19-.8a.52.52,0,0,0-.57.45l-.08.72a.51.51,0,0,0,.46.56l7.38.82Z" transform="translate(-2.5 -1.41)" style="fill:#80a68b"/><path d="M386.44,112.24v-2a3.47,3.47,0,0,1,.86-2.28l4.8-5.55a3.57,3.57,0,0,1,.73,1.73l.91,7.29Z" transform="translate(-2.5 -1.41)" style="fill:#95b995"/><path d="M386.44,111.09l7.2-.8a.51.51,0,0,1,.56.45l.08.72a.51.51,0,0,1-.45.56l-7.39.82Z" transform="translate(-2.5 -1.41)" style="fill:#80a68b"/><path d="M369.21,91.91a4.08,4.08,0,0,1-1.09-2.79V75a4.37,4.37,0,0,0-3.49,4.28v3.49a2.62,2.62,0,0,0,0,5.24v.87a5.23,5.23,0,0,0,3.22,4.83l5.64,2.35a6,6,0,0,0,.84.3A36.29,36.29,0,0,1,369.21,91.91Z" transform="translate(-2.5 -1.41)" style="fill:#a2795c"/></svg>