<svg viewBox="0 0 1427 383.4" xmlns="http://www.w3.org/2000/svg"><path d="m1102.06 347.88q30.09 2.3 60.09 5v-352.88h-60.09zm-966.69-130.88-78.26-217h-57.11v383.4q30-4.27 60.09-8.18v-208.48l69.59 199.91q32.83-3.81 65.78-7.2v-359.45h-60.09zm117.88 136.86q83.08-7.55 166.92-12.4v-59.21q-53.57 3.1-106.83 7.3v-89.65c23.3-.23 54-.94 81.15-.61v-59.2c-21.71-.05-56.61.3-81.15.62v-80.93h106.83v-59.78h-166.92zm205.44-294.09h62.89v276.88q30-1.13 60.09-1.9v-275h62.89v-59.75h-185.87zm224.4 273.36h60.09v-136.71h81.46v-59.21h-81.46v-77.43h107.66v-59.78h-167.75zm743.91-333.13h-66l-43.51 100.85-39.1-100.85h-65l69.86 180.21-76.25 176.79q31.65 3.09 63.16 6.57l44.36-102.79 43.93 113.31q34.32 4.41 68.49 9.26h.09l-78.28-201.89zm-477.55 0h-60.09v336.07q81.92 2.82 163.15 8.25v-59.21q-51.39-3.43-103.06-5.83z" fill="#e50914"/></svg>