
<svg id="Layer_1" data-name="Layer 1" xmlns="http://www.w3.org/2000/svg" viewBox="0 0 93 32"><defs><style>.cls-1{fill:#fff;}</style></defs><title>logo-twitch-2</title><path class="cls-1" d="M88,5H82V0H73L67,5H61.5L59,7.5V5H54V0H36V5H16L11,0H0V22l5,5.25L14,32h6V30.5L23,32H35l2-3,1,3h7V29l3,3h8l.5-3L59,32H69l3-3v3h4l3-3v3h7l7-6V10ZM13,13H8v6h5v6H6L2,21V2H8V7h5Zm23,8.5L32.5,25H15V7h6V19h2V7h6V19h2V7h5ZM44,25H38V7h6ZM44,5H38V2h6Zm13,8H52v6h5v6H50l-4-4V2h6V7h5Zm15,0H65v6h7v6H63l-4-4V11l4-4h9ZM91,25H85V13H80V25H74V2h6V7h7l4,4Z"/></svg>