<?xml version="1.0" encoding="utf-8"?>
<!-- Generator: Adobe Illustrator 22.0.1, SVG Export Plug-In . SVG Version: 6.00 Build 0)  -->
<svg version="1.1" id="b1dfe96f-fe37-4185-8264-ce8c2a4cb4b9"
	 xmlns="http://www.w3.org/2000/svg" xmlns:xlink="http://www.w3.org/1999/xlink" x="0px" y="0px" viewBox="0 0 1073 742"
	 style="enable-background:new 0 0 1073 742;" xml:space="preserve">
<style type="text/css">
	.st0{opacity:0.5;fill:none;stroke:#5D596A;stroke-width:3;stroke-miterlimit:10;enable-background:new    ;}
	.st1{fill:url(#SVGID_1_);}
	.st2{fill:#EFB4B6;}
	.st3{fill:#C17174;}
	.st4{fill:#5D596A;}
	.st5{opacity:0.1;enable-background:new    ;}
	.st6{fill:#9F9EFF;}
	.st7{fill:#4285F4;}
	.st8{fill:none;stroke:#535461;stroke-miterlimit:10;}
	.st9{fill:none;stroke:#535461;stroke-width:2;stroke-miterlimit:10;}
	.st10{opacity:0.25;enable-background:new    ;}
	.st11{opacity:0.1;fill:#1355B7;enable-background:new    ;}
	.st12{fill:#1B50AF;}
</style>
<title>ethereum desire</title>
<path class="st0" d="M66,161.5c0,0,185.6,155.3,248.8,248.8s222.7,77.6,222.7,77.6"/>
<linearGradient id="SVGID_1_" gradientUnits="userSpaceOnUse" x1="695.387" y1="-77.9566" x2="695.387" y2="451.0945" gradientTransform="matrix(0.9997 -2.338528e-02 -2.338528e-02 -0.9997 -37.3228 676.2269)">
	<stop  offset="0" style="stop-color:#808080;stop-opacity:0.25"/>
	<stop  offset="0.54" style="stop-color:#808080;stop-opacity:0.12"/>
	<stop  offset="1" style="stop-color:#808080;stop-opacity:0.1"/>
</linearGradient>
<path class="st1" d="M801.5,717.6c-1.2-5.2-4.5-7-11.8-6.1c-7.9,1-15.8,1.9-25.5-4.9c-5.1-3.6-9.1-6.8-11.7-9l0.4-0.1
	c0,0-19.6-24.5-18.3-38.6s-9.1-50.5-9.1-50.5s-0.6-23.8-6-37.6c-1.5-3.6-2.6-7.4-3.3-11.2c-3.2-17.4-12.9-63.5-28.6-83.8l-1-40.6
	v-1.6l0.4,0.4c1.5-1.6,2.7-3.4,3.5-5.4c4.6,2.4,14.5,7.3,19.9,8.3c7.2,1.4,16,7.4,16,7.4s20.3,23.7,35.9,13.2s-29.2-27.4-29.2-27.4
	s-15.2-8.2-21.6-10.4c-4.5-1.5-13.9-7.7-19-11.1c-0.1-0.6-0.2-1.1-0.3-1.7c-2.9-15.2-7.2-21-5.5-30.4c0.5-2.4,1.2-4.8,2.2-7
	c6-14.2-19-33.9-19-33.9s-17-14.4-10.8-22.4c0,0,9.5-1,1.4-8.6c-1.4-1.3-2.8-2.5-4.3-3.6c0.1-0.2,0.1-0.4,0.2-0.6
	c1.7-5.2,4.3-10.1,7.8-14.3c0.5-0.7,1.1-1.3,1.7-2c13.6-3.6,22.9-16,22.7-30.1c-0.2-7.4-3.1-14.5-8.2-19.9c1.9-1.7,2.9-4.3,2.6-6.8
	c0.8-9.9-19-19.9-27.3-18.4c-4.7,0.8-9,3.4-13.7,4.2c-4.9,0.9-10-0.1-15,0c-6.7,0.1-13.2,2-18.9,5.5c-1.4,0.8-2.6,1.9-3.5,3.3
	c-0.7,1.6-1,3.4-1,5.1c-1.4,18.2-14.6,33.4-28.6,45.3c-1.9,1.4-3.5,3.2-4.7,5.1c-1.4,2.7-1.4,5.9-1.4,8.9
	c-0.2,30.2-10.9,61.9-35.2,80.3c0.4,0.2,0.8,0.5,1.2,0.7c-0.4,0.3-0.7,0.6-1.1,0.9c7.9,5.1,19.8,2.6,25-5c-1.9,8.4-5.3,16.3-10,23.5
	l1,0c-0.3,0.5-0.7,1.1-1,1.6c10.8-0.2,18.8-9.7,25.2-18.3c0.1,0.8,0.1,1.7,0.2,2.5c0,9.3-2.5,18.4-7.3,26.4l1-0.1
	c-0.3,0.6-0.6,1.1-1,1.7c1.6-0.1,3.2-0.3,4.8-0.5c-6.4,13-16.4,36.7-16.4,36.7l-3.7,9.2c-2,4.9-4.9,9.5-8.6,13.3
	c-4,4.2-9.2,9.4-11.3,10.7c-3.9,2.4-13.5,33.9,3.8,28.8s23.9-29.4,23.9-29.4c0.5-4,2.1-7.8,4.5-11c1.3-1.8,2.4-3.8,3.3-5.9
	c4.8-10.6,10.2-20.9,16.1-30.9c3.4-5.6,6.3-11.6,8.6-17.8c1.3-3.5,3-6.9,5.1-10c3.9-1.6,7.6-3.7,11-6.1c2.9-2,5.4-4.6,7.4-7.5
	c1.2,4.9,2.7,9.8,4.5,14.5c4.2,11.4,11.9,37.7,0.8,55.2c-10.2,16.1-10.4,24-9.7,27.2c0,0.2-0.1,0.3-0.2,0.5
	c-1.9,7.2-1,14.9,2.5,21.4c1.9,3.7,3,7.8,3.1,11.9v1.2c0.1,2.8-0.3,5.5-1.1,8.1c-2.2,7.4-6.7,23.6-8.2,35.3
	c-2,15.7-15.1,30.8-15.1,30.8S557.2,624,544,668c0,0-7.5,18.9-12.9,22.9c0,0-10.4,6.2-12.1,18c0,0.3-0.1,0.6-0.1,1l-2.2,5.5
	c0,0,19.3,10.5,23.3,10.4l2.3-4.7l20.2,15.1l30.1-0.7c0.8-0.5,1.6-1.2,2.2-2c1.4-1.9,2.3-4.8-2.3-7.9c-2.3-1.5-5-2-7.7-1.6
	c-3.9,0.6-11.3-0.7-18.2-15.2l-3.8-7.1l0.5,0.2c0,0-6.6-10.8,6.5-25.1s32-52.3,32-52.3s25.6-20.9,30.1-34.3c0,0,17.1-28.9,27-46
	c1.7,3.6,3,6.3,3,6.3s20.4,27.6,23.3,48.6s22.3,72.8,30.5,86.7s8.4,19.3,8.4,19.3s-5.1,13.1-1.9,23.9l0.1,0.3l0.2,6.2l23,0.2
	l-0.1-3.1l29.3,0.9c0,0,28.3-8.5,27.4-14.7C801.7,718.5,801.6,718,801.5,717.6z"/>
<path class="st2" d="M673.6,284.6c-3.6,2.5-6.8,5.5-9.6,8.9c-3.3,4.2-5.9,8.9-7.5,14c-1.4,4.1-2.1,8.4-2,12.7l-14.8-12.7l-19,4.3
	c4-3.8,7.4-8.1,10.2-12.9c2.5-4.2,4.5-8.8,6-13.5c1-3,1.7-6.2,2.1-9.3C638.9,276.2,693.9,270.3,673.6,284.6z"/>
<path class="st3" d="M596.6,732.5c-0.6,0.8-1.3,1.4-2.1,2l-29.1,0.7l-19.5-14.9l-2.2,4.7c-3.8,0.1-22.5-10.2-22.5-10.2l2.2-5.4
	c0-0.3,0.1-0.6,0.1-1c1.7-11.7,11.7-17.7,11.7-17.7l3.8-1.6l23.1,5.6l7.2,13.6c6.7,14.2,13.9,15.5,17.6,14.9
	c2.6-0.4,5.2,0.1,7.4,1.6C598.8,727.7,598,730.6,596.6,732.5z"/>
<path class="st3" d="M797.1,718.2c0.9,6.1-26.5,14.4-26.5,14.4l-28.4-0.9l0.1,3.1l-22.2-0.2l-0.1-6.1l-0.1-0.3
	c-3.1-10.6,1.8-23.5,1.8-23.5l2.2-3.9l22-6.6c4.7,4.3,9.6,8.3,14.8,11.9c9.3,6.7,17,5.7,24.6,4.8c7-0.9,10.2,1,11.4,6
	C796.9,717.3,797,717.7,797.1,718.2z"/>
<path class="st4" d="M664.9,535.2c-0.7,1.6-3.1,5.9-6.3,11.5c-9.5,16.8-26.1,45.1-26.1,45.1c-4.2,13.1-29,33.6-29,33.6
	s-18.3,37.2-31,51.3s-6.3,24.7-6.3,24.7l-30.9-10.8c5.3-4,12.5-22.5,12.5-22.5c12.8-43.2,46.4-80,46.4-80s12.7-14.8,14.6-30.2
	c1.5-11.5,5.8-27.4,7.9-34.7c0.7-2.6,1.1-5.3,1-8v-1.2c-0.1-4.1-1.1-8.1-3-11.7c-3.4-6.4-4.3-13.9-2.5-21c0.6-2.5,1.6-4.9,3-7.1
	l7.5-2.2l26.7-7.8c0,0,1.7,5.8,3.9,14.1C658.5,497.9,667,530.9,664.9,535.2z"/>
<path class="st5" d="M664.9,535.2c-0.7,1.6-3.1,5.9-6.3,11.5c-9.5,16.8-26.1,45.1-26.1,45.1c-4.2,13.1-29,33.6-29,33.6
	s-18.3,37.2-31,51.3s-6.3,24.7-6.3,24.7l-30.9-10.8c5.3-4,12.5-22.5,12.5-22.5c12.8-43.2,46.4-80,46.4-80s12.7-14.8,14.6-30.2
	c1.5-11.5,5.8-27.4,7.9-34.7c0.7-2.6,1.1-5.3,1-8v-1.2c-0.1-4.1-1.1-8.1-3-11.7c-3.4-6.4-4.3-13.9-2.5-21c0.6-2.5,1.6-4.9,3-7.1
	l7.5-2.2l26.7-7.8c0,0,1.7,5.8,3.9,14.1C658.5,497.9,667,530.9,664.9,535.2z"/>
<path class="st4" d="M749.9,697.1l-28.2,7.5c0,0-0.1-5.4-8.1-19s-26.8-64.5-29.6-85.1s-22.6-47.7-22.6-47.7s-1.3-2.7-2.9-6.2
	c-1.5-3.2-3.2-7.2-4.4-10.5c-2.5-6.8-13.4-16.5-13.4-16.5c-20-11.1-24-24.4-24.2-32.8c-0.1-2.7,0.2-5.4,1.1-8l5.1-6.7l9.7-12.8
	l32.9-35.2l20,4.1l1.2,51.3c15.2,19.9,24.6,65.1,27.7,82.2c0.7,3.8,1.8,7.4,3.2,11c5.3,13.5,5.8,36.9,5.8,36.9s10,35.8,8.8,49.6
	S749.9,697.1,749.9,697.1z"/>
<path class="st2" d="M688,411.4c0,0,15.6,11.1,21.8,13.3s20.9,10.2,20.9,10.2s43.3,16.6,28.2,26.9s-34.8-13-34.8-13
	s-8.6-5.9-15.5-7.3S687,432,687,432L688,411.4z"/>
<path class="st5" d="M673.6,284.6c-3.6,2.5-6.8,5.5-9.6,8.9c-1.8,0.4-3.7,0.6-5.5,0.6c-8.4,0.2-12.8-9-18.3-14.5
	c1.8-5.6-1.2-3.4-1.2-3.4S693.9,270.3,673.6,284.6z"/>
<ellipse transform="matrix(0.9997 -2.338528e-02 2.338528e-02 0.9997 -5.9651 15.4534)" class="st2" cx="657.7" cy="262.8" rx="29.9" ry="29.9"/>
<path class="st5" d="M654.5,320.3l-14.8-12.7l-19,4.3c4-3.8,7.4-8.2,10.2-12.9h0.1c6.4-1.2,13,0,18.5,3.5c2.4,1.5,4.8,3.2,7.1,5
	C655.1,311.6,654.4,315.9,654.5,320.3z"/>
<path class="st5" d="M685.4,428.3l0.3,11.5c-2.3-2.3-13.8-13.2-10.7,2.6c3.5,17.5-16.9,30.3-16.9,30.3c-1.5,2-3.1,4-4.7,5.9
	c-16.2,17.9-30.5,12.5-36.8,8.5c-1.2-0.7-2.4-1.6-3.4-2.6c-0.6-0.9-1-1.9-1-2.9c0.6-2.5,1.6-4.9,3-7.1l7.5-2.2l9.8-12.8l32.9-35.2
	L685.4,428.3z"/>
<path class="st6" d="M686,438.6c0,0-14.5-15.4-11,2.2S658,471,658,471c-23.7,32.7-44.9,11.8-44.9,11.8s-5.5-6,8.5-28.5
	c10.7-17.3,3.3-43.1-0.8-54.2c-1.7-4.8-3.2-9.7-4.4-14.7l-1-4l-2.3-9.4c-2.7-10.9-3.5-22.2-2.5-33.4c0.7-7.5,2.2-14.9,4.7-22
	c1.5-4.6,3.3-8.5,5.1-10.8c2.7-3.2,6.4-5.3,10.5-6c6.4-1.2,13,0.1,18.5,3.6c3.9,2.4,7.6,5.2,11,8.4c7.8,7.5-1.3,8.5-1.3,8.5
	c-5.9,7.8,10.5,22,10.5,22s24.2,19.3,18.4,33.3s-0.3,18.4,3.2,36.7S686,438.6,686,438.6z"/>
<path class="st5" d="M655.8,219.2c-4.6,0.8-8.7,3.3-13.3,4.2c-4.8,0.9-9.6-0.1-14.5,0c-6.5,0.1-12.8,1.9-18.3,5.4
	c-1.4,0.8-2.6,1.9-3.4,3.2c-0.7,1.6-1,3.3-1,5c-1.3,17.9-14.1,32.7-27.6,44.5c-1.8,1.4-3.4,3.1-4.6,5c-1.4,2.6-1.3,5.7-1.4,8.7
	c-0.2,29.6-10.5,60.7-34,78.8c7.9,5.2,20,2.4,24.8-5.8c-1.7,9.1-5.2,17.7-10.1,25.5c10.5-0.2,18.2-9.5,24.4-17.9
	c0.9,10.5-1.6,20.9-7,29.9c14-1.2,28.3-4.2,39.6-12.5c5.2-3.8,9.9-9.3,9.8-15.7c-0.1-3.7-1.7-7.1-2.9-10.6c-3-9.1-2.3-20.5,5.2-26.4
	c1.4-0.9,2.8-2,4-3.2c1.7-1.9,2.3-4.6,2.7-7.2c0.9-6.3,0.5-12.7-0.9-18.8c-0.4-1.3-0.6-2.6-0.6-4c0.2-2.8,2.3-5.2,4.7-6.7
	s5.2-2.3,7.8-3.5c9-4.4,14.7-13.5,14.9-23.5c0-2.9-0.4-6.1,1.4-8.3c2.7-3.3,8.3-2.2,11.5-4.9c3-2.6,2.7-7.5,4.8-10.9
	c1.8-2.8,5-4.3,7.4-6.5C691.1,232,665.4,217.5,655.8,219.2z"/>
<path class="st5" d="M653.3,332.4v0.2l-18.9,25.6l-11.6,15.7c0,0-3.2,3-7.4,7.5l-2.3-9.4c-2.7-10.9-3.5-22.2-2.5-33.4
	c4.4-8.7,9.1-14.6,13.5-18.5c7.2-6.4,18.3-5.8,24.7,1.5C651.5,324.5,653.1,328.4,653.3,332.4z"/>
<path class="st3" d="M655.7,217.7c-4.6,0.8-8.7,3.3-13.3,4.2c-4.8,0.9-9.6-0.1-14.5,0c-6.5,0.1-12.8,1.9-18.3,5.4
	c-1.4,0.8-2.6,1.9-3.4,3.2c-0.7,1.6-1,3.3-1,5c-1.3,17.9-14.1,32.7-27.6,44.5c-1.8,1.4-3.4,3.1-4.6,5c-1.4,2.6-1.3,5.7-1.4,8.7
	c-0.2,29.6-10.5,60.7-34,78.8c7.9,5.2,20,2.4,24.8-5.8c-1.7,9.1-5.2,17.7-10.1,25.5c10.5-0.2,18.2-9.5,24.4-17.9
	c0.9,10.5-1.6,20.9-7,29.9c14-1.2,28.3-4.2,39.6-12.5c5.2-3.8,9.9-9.3,9.8-15.7c-0.1-3.7-1.7-7.1-2.9-10.6c-3-9.1-2.3-20.5,5.2-26.4
	c1.4-0.9,2.8-2,4-3.2c1.7-1.9,2.3-4.6,2.7-7.2c0.9-6.3,0.5-12.7-0.9-18.8c-0.4-1.3-0.6-2.6-0.6-4c0.2-2.8,2.3-5.2,4.7-6.7
	s5.2-2.3,7.8-3.5c9-4.4,14.7-13.5,14.9-23.5c0-2.9-0.4-6.1,1.4-8.3c2.7-3.3,8.3-2.2,11.5-4.9c3-2.6,2.7-7.5,4.8-10.9
	c1.8-2.8,5-4.3,7.4-6.5C691,230.4,665.3,216,655.7,217.7z"/>
<path class="st2" d="M651.7,330.9v0.2l-18.9,25.6l-11.6,15.7c0,0-21.8,20.4-27.5,36.6c-2.2,6.1-5,11.9-8.3,17.4
	c-5.7,9.8-10.9,19.9-15.6,30.3c-0.8,2-1.9,4-3.2,5.8c-2.3,3.2-3.8,6.9-4.3,10.8c0,0-6.3,23.9-23.1,28.9s-7.5-25.9-3.7-28.2
	c2.1-1.3,7.1-6.4,11-10.5c3.6-3.8,6.4-8.2,8.3-13.1l3.7-9.1c0,0,17.4-41.8,20.4-44.1c0.9-0.8,1.6-1.7,2.2-2.7
	c2.4-3.9,4.9-7.8,7.4-11.7c3.3-5,8.5-15.1,16.1-35.3c0.5-1.4,1.1-2.8,1.6-4.1c5.1-12.3,11-20,16.4-24.8c7.2-6.4,18.3-5.7,24.7,1.5
	C650,323.1,651.5,326.9,651.7,330.9z"/>
<path class="st6" d="M651.7,330.9v0.2l-18.9,25.6l-26.6-13.3c5.1-12.3,11-20,16.4-24.8c7.2-6.4,18.3-5.8,24.7,1.5
	C650,323,651.5,326.9,651.7,330.9z"/>
<path class="st5" d="M628.3,310.5c0,0,20.4,8.7,30.4,9.3"/>
<path class="st5" d="M797.1,718.2c0.9,6.1-26.5,14.4-26.5,14.4l-28.4-0.9l0.1,3.1l-22.2-0.2l-0.1-6.1l-0.1-0.3l51,1.1l25.9-12.3
	C796.9,717.3,797,717.7,797.1,718.2z"/>
<path class="st5" d="M596.6,732.5c-0.6,0.8-1.3,1.4-2.1,2l-29.1,0.7l-19.5-14.9l-2.2,4.7c-3.8,0.1-22.5-10.2-22.5-10.2l2.2-5.4
	c0-0.3,0.1-0.6,0.1-1l22.7,10l19.5,14.1L596.6,732.5z"/>
<path class="st5" d="M616.5,478.5c0,0,10.9-23.2,22.3-30.4"/>
<path class="st5" d="M660,374.9c0,0,6.4,12,25.8,7.4"/>
<path class="st7" d="M840,632.1c0,0-67.6,40.8,57,103.6c0,0,27.5-51-2.9-92.6c-12.2-16.8-35-21.8-53.1-11.6L840,632.1z"/>
<path class="st8" d="M840.8,631.2c0,0,57.9,44.3,56.2,104.5"/>
<path class="st9" d="M900.3,736.4c0,0-21.2-72,4-124.9c10.7-22.1,13.9-47.2,9.2-71.3c-2.3-11.4-5.7-22.6-10.1-33.5"/>
<path class="st7" d="M919,473.3c0,8.8-16,34.4-16,34.4s-16-25.6-16-34.4c0.6-8.8,8.2-15.5,17-14.9C912,458.9,918.4,465.3,919,473.3
	L919,473.3z"/>
<path class="st7" d="M945.4,522.1c-4.8,7.4-32.1,20.2-32.1,20.2s0.5-30.1,5.3-37.5c4.3-7.7,14.1-10.5,21.8-6.2
	c7.7,4.3,10.5,14.1,6.2,21.8C946.2,521,945.8,521.6,945.4,522.1L945.4,522.1z"/>
<path class="st7" d="M944.3,605.6c-7.9,4-37.9,1.2-37.9,1.2s15.6-25.8,23.5-29.7c7.6-4.5,17.4-2,21.9,5.7c4.5,7.6,2,17.4-5.7,21.9
	C945.5,605,944.9,605.3,944.3,605.6L944.3,605.6z"/>
<path class="st7" d="M929.2,668.5c-7.1,5.2-37.1,7.6-37.1,7.6s11.1-28,18.2-33.3c7.4-4.8,17.3-2.7,22.1,4.7
	C936.7,654.4,935.3,663.3,929.2,668.5L929.2,668.5z"/>
<path class="st7" d="M879.8,544c6.3,6.1,35.8,12.5,35.8,12.5s-7.2-29.3-13.5-35.4c-6.7-5.7-16.8-4.9-22.6,1.8
	C874.3,529,874.4,538,879.8,544z"/>
<path class="st7" d="M863.1,617.9c7.9,4,37.9,1.2,37.9,1.2s-15.6-25.8-23.5-29.8c-7.6-4.5-17.4-2-21.9,5.7c-4.5,7.6-2,17.4,5.7,21.9
	C861.9,617.3,862.5,617.6,863.1,617.9L863.1,617.9z"/>
<path class="st7" d="M856.7,691.9c7.1,5.2,37.1,7.6,37.1,7.6s-11.1-28-18.2-33.3c-6.8-5.7-16.9-4.8-22.5,1.9
	c-5.7,6.8-4.8,16.9,1.9,22.5C855.6,691.1,856.1,691.5,856.7,691.9L856.7,691.9z"/>
<path class="st10" d="M919,473.3c0,8.8-16,34.4-16,34.4s-16-25.6-16-34.4c0.6-8.8,8.2-15.5,17-14.9C912,458.9,918.4,465.3,919,473.3
	L919,473.3z"/>
<path class="st10" d="M945.4,522.1c-4.8,7.4-32.1,20.2-32.1,20.2s0.5-30.1,5.3-37.5c4.3-7.7,14.1-10.5,21.8-6.2
	c7.7,4.3,10.5,14.1,6.2,21.8C946.2,521,945.8,521.6,945.4,522.1L945.4,522.1z"/>
<path class="st10" d="M944.3,605.6c-7.9,4-37.9,1.2-37.9,1.2s15.6-25.8,23.5-29.7c7.6-4.5,17.4-2,21.9,5.7c4.5,7.6,2,17.4-5.7,21.9
	C945.5,605,944.9,605.3,944.3,605.6L944.3,605.6z"/>
<path class="st10" d="M929.2,668.5c-7.1,5.2-37.1,7.6-37.1,7.6s11.1-28,18.2-33.3c7.4-4.8,17.3-2.7,22.1,4.7
	C936.7,654.4,935.3,663.3,929.2,668.5L929.2,668.5z"/>
<path class="st10" d="M879.8,544c6.3,6.1,35.8,12.5,35.8,12.5s-7.2-29.3-13.5-35.4c-6.7-5.7-16.8-4.9-22.6,1.8
	C874.3,529,874.4,538,879.8,544z"/>
<path class="st10" d="M863.1,617.9c7.9,4,37.9,1.2,37.9,1.2s-15.6-25.8-23.5-29.8c-7.6-4.5-17.4-2-21.9,5.7
	c-4.5,7.6-2,17.4,5.7,21.9C861.9,617.3,862.5,617.6,863.1,617.9L863.1,617.9z"/>
<path class="st10" d="M856.7,691.9c7.1,5.2,37.1,7.6,37.1,7.6s-11.1-28-18.2-33.3c-6.8-5.7-16.9-4.8-22.5,1.9
	c-5.7,6.8-4.8,16.9,1.9,22.5C855.6,691.1,856.1,691.5,856.7,691.9L856.7,691.9z"/>
<path class="st9" d="M949.3,737.8c0,0-21.2-72,4-124.9c10.7-22.1,13.9-47.2,9.2-71.3c-2.3-11.4-5.7-22.6-10.1-33.5"/>
<path class="st7" d="M968.1,474.6c0,8.8-16,34.4-16,34.4s-16-25.6-16-34.4c0.6-8.8,8.2-15.5,17-14.9
	C961.1,460.3,967.5,466.6,968.1,474.6L968.1,474.6z"/>
<path class="st7" d="M994.5,523.5c-4.8,7.4-32.1,20.2-32.1,20.2s0.5-30.1,5.3-37.5c4.3-7.7,14.1-10.5,21.8-6.2
	c7.7,4.3,10.5,14.1,6.2,21.8C995.3,522.4,994.9,522.9,994.5,523.5L994.5,523.5z"/>
<path class="st7" d="M993.3,607c-7.9,4-37.9,1.2-37.9,1.2s15.6-25.8,23.5-29.7c7.6-4.5,17.4-2,21.9,5.6c4.5,7.6,2,17.4-5.6,21.9
	C994.6,606.4,994,606.7,993.3,607z"/>
<path class="st7" d="M978.2,669.9c-7.1,5.2-37.1,7.6-37.1,7.6s11.1-28,18.2-33.3c7.4-4.8,17.3-2.7,22.1,4.7
	C985.7,655.7,984.4,664.7,978.2,669.9L978.2,669.9z"/>
<path class="st7" d="M928.8,545.4c6.3,6.1,35.8,12.5,35.8,12.5s-7.2-29.3-13.5-35.4c-6.7-5.7-16.8-4.9-22.6,1.8
	C923.3,530.4,923.5,539.4,928.8,545.4L928.8,545.4z"/>
<path class="st7" d="M912.1,619.2c7.9,4,37.9,1.2,37.9,1.2s-15.6-25.8-23.5-29.8c-8.1-3.5-17.5,0.3-21,8.5
	C902.4,606.6,905.2,615.2,912.1,619.2L912.1,619.2z"/>
<path class="st7" d="M905.7,693.3c7.1,5.2,37.1,7.6,37.1,7.6s-11.1-28-18.2-33.3c-6.8-5.7-16.9-4.8-22.5,1.9
	c-5.7,6.8-4.8,16.9,1.9,22.5C904.6,692.5,905.1,692.9,905.7,693.3L905.7,693.3z"/>
<path class="st11" d="M973.3,331.8C970.9,213.2,884.6,118,778.5,118c-51.9,0-99,22.8-134,60c-72.7,7.6-133.7,60-161.1,132.4
	C400.3,335.3,339,420.6,339,522c0,121,87.2,219,194.8,219c31.6,0,62.6-8.5,89.8-24.6c51.8,29.2,114.9,30.2,167.6,2.6
	c26.5,15,56.4,22.9,86.9,23c107.6,0,194.8-98,194.8-219C1073,440.8,1032.8,369.3,973.3,331.8z"/>
<path class="st7" d="M139.7,83.9l-61.5-53l-1.3,2v193.4l1.3,6.7L139.7,83.9z"/>
<path class="st12" d="M78.1,231.9l1.3-6.7V31.8l-1.3-2l-61.5,53L78.1,231.9z"/>
</svg>
