<?xml version="1.0" encoding="utf-8"?>
<!-- Generator: Adobe Illustrator 22.0.1, SVG Export Plug-In . SVG Version: 6.00 Build 0)  -->
<svg version="1.1" id="f1a3512c-954b-43cd-b4a7-b2a657bfa049"
	 xmlns="http://www.w3.org/2000/svg" xmlns:xlink="http://www.w3.org/1999/xlink" x="0px" y="0px" viewBox="0 0 1135.2 863.7"
	 style="enable-background:new 0 0 1135.2 863.7;" xml:space="preserve">
<style type="text/css">
	.st0{fill:#407AFC;}
	.st1{opacity:0.7;}
	.st2{fill:url(#SVGID_1_);}
	.st3{opacity:0.2;enable-background:new    ;}
	.st4{fill:#FFFFFF;}
	.st5{fill:url(#SVGID_2_);}
	.st6{fill:url(#SVGID_3_);}
	.st7{fill:#535461;}
	.st8{opacity:0.1;}
	.st9{fill:#E0E0E0;}
	.st10{fill:url(#SVGID_4_);}
	.st11{fill:url(#SVGID_5_);}
	.st12{fill:url(#SVGID_6_);}
	.st13{fill:url(#SVGID_7_);}
	.st14{fill:#EEEEEE;}
	.st15{fill:url(#SVGID_8_);}
	.st16{opacity:0.1;enable-background:new    ;}
	.st17{fill:url(#SVGID_9_);}
	.st18{fill:none;}
</style>
<title>Outer space</title>
<path class="st0" d="M991,738.9c-9.2,0.9-18.5,0.8-27.7-0.4c-101.1-13.2-238.8-9.4-351.1,72.5C457,924.4,213.7,827.4,106.4,774.6
	c-82-40.3-124.6-139.1-99-231.8c0.4-1.3,0.7-2.6,1.1-3.9c16.1-55.1,47.9-98.2,87.2-121.1c34.3-19.9,84.3-61.5,106.6-141.4
	c9.2-33,21.8-64.1,38.2-91.1C284.4,112.8,376.3,4.8,534.3,5.5c27.7,0.2,55.2,5.6,81.4,16.2c57.7,23.2,109.9,70.3,149.6,135.7
	c25.4,41.7,63.4,80.4,117.8,83.6c75.5,4.4,147.6,45.9,201.7,119.6c1.6,2.1,3.1,4.3,4.6,6.4C1185.8,502.3,1118.9,725.8,991,738.9z"/>
<g class="st1">
	
		<linearGradient id="SVGID_1_" gradientUnits="userSpaceOnUse" x1="277.46" y1="168.3923" x2="277.46" y2="195.9923" gradientTransform="matrix(1 0 0 -1 0 915.0046)">
		<stop  offset="0" style="stop-color:#808080;stop-opacity:0.25"/>
		<stop  offset="0.54" style="stop-color:#808080;stop-opacity:0.12"/>
		<stop  offset="1" style="stop-color:#808080;stop-opacity:0.1"/>
	</linearGradient>
	<circle class="st2" cx="277.5" cy="732.8" r="13.8"/>
</g>
<circle class="st3" cx="277.5" cy="732.8" r="13.2"/>
<circle class="st4" cx="203.1" cy="463.6" r="5.1"/>
<circle class="st4" cx="567.1" cy="759.6" r="5.1"/>
<circle class="st4" cx="352.1" cy="785.6" r="2.8"/>
<circle class="st4" cx="983.1" cy="647.6" r="2.8"/>
<circle class="st4" cx="820.1" cy="391.6" r="2.8"/>
<circle class="st4" cx="1051.1" cy="516.6" r="2.8"/>
<circle class="st4" cx="293.1" cy="296.6" r="5.1"/>
<polygon class="st4" points="152.9,641.7 148.4,641.7 148.4,637.2 146.6,637.2 146.6,641.7 142,641.7 142,643.6 146.6,643.6 
	146.6,648.1 148.4,648.1 148.4,643.6 152.9,643.6 "/>
<polygon class="st4" points="266.9,639.7 262.4,639.7 262.4,635.2 260.5,635.2 260.5,639.7 256,639.7 256,641.6 260.5,641.6 
	260.5,646.1 262.4,646.1 262.4,641.6 266.9,641.6 "/>
<polygon class="st4" points="429.9,731.7 425.4,731.7 425.4,727.2 423.5,727.2 423.5,731.7 419,731.7 419,733.6 423.5,733.6 
	423.5,738.1 425.4,738.1 425.4,733.6 429.9,733.6 "/>
<polygon class="st4" points="657,180.2 654.9,180.2 654.9,178.1 654.1,178.1 654.1,180.2 652,180.2 652,181.1 654.1,181.1 
	654.1,183.1 654.9,183.1 654.9,181.1 657,181.1 "/>
<polygon class="st4" points="952,370.2 949.9,370.2 949.9,368.1 949.1,368.1 949.1,370.2 947,370.2 947,371.1 949.1,371.1 
	949.1,373.1 949.9,373.1 949.9,371.1 952,371.1 "/>
<polygon class="st4" points="778,494.2 775.9,494.2 775.9,492.1 775.1,492.1 775.1,494.2 773,494.2 773,495.1 775.1,495.1 
	775.1,497.1 775.9,497.1 775.9,495.1 778,495.1 "/>
<polygon class="st4" points="70,572.2 67.9,572.2 67.9,570.1 67.1,570.1 67.1,572.2 65,572.2 65,573.1 67.1,573.1 67.1,575.1 
	67.9,575.1 67.9,573.1 70,573.1 "/>
<polygon class="st4" points="155,742.2 152.9,742.2 152.9,740.1 152.1,740.1 152.1,742.2 150,742.2 150,743.1 152.1,743.1 
	152.1,745.1 152.9,745.1 152.9,743.1 155,743.1 "/>
<polygon class="st4" points="422,205.2 419.9,205.2 419.9,203.1 419.1,203.1 419.1,205.2 417,205.2 417,206.1 419.1,206.1 
	419.1,208.1 419.9,208.1 419.9,206.1 422,206.1 "/>
<polygon class="st4" points="296,504.2 293.9,504.2 293.9,502.1 293.1,502.1 293.1,504.2 291,504.2 291,505.1 293.1,505.1 
	293.1,507.1 293.9,507.1 293.9,505.1 296,505.1 "/>
<polygon class="st4" points="323,418.2 320.9,418.2 320.9,416.1 320.1,416.1 320.1,418.2 318,418.2 318,419.1 320.1,419.1 
	320.1,421.1 320.9,421.1 320.9,419.1 323,419.1 "/>
<g class="st1">
	
		<linearGradient id="SVGID_2_" gradientUnits="userSpaceOnUse" x1="748.15" y1="298.3323" x2="748.15" y2="321.3723" gradientTransform="matrix(1 0 0 -1 0 915.0046)">
		<stop  offset="0" style="stop-color:#808080;stop-opacity:0.25"/>
		<stop  offset="0.54" style="stop-color:#808080;stop-opacity:0.12"/>
		<stop  offset="1" style="stop-color:#808080;stop-opacity:0.1"/>
	</linearGradient>
	<circle class="st5" cx="748.2" cy="605.2" r="11.5"/>
</g>
<circle class="st3" cx="748.2" cy="605.2" r="10.7"/>
<circle class="st3" cx="776.9" cy="680.3" r="11.9"/>
<g class="st1">
	
		<linearGradient id="SVGID_3_" gradientUnits="userSpaceOnUse" x1="556.95" y1="158.3723" x2="556.95" y2="822.5985" gradientTransform="matrix(1 0 0 -1 -32.41 872.1146)">
		<stop  offset="0" style="stop-color:#808080;stop-opacity:0.25"/>
		<stop  offset="0.54" style="stop-color:#808080;stop-opacity:0.12"/>
		<stop  offset="1" style="stop-color:#808080;stop-opacity:0.1"/>
	</linearGradient>
	<path class="st6" d="M670,356.5c0.1-25.1-5.9-49.8-17.5-72c-5.5-10.4-10.5-16.9-14.4-20.9c-3-3.2-7.7-4.1-11.7-2.3
		c-1.6,0.6-3,1.5-4.1,2.7c-5.2,5.4-9.9,12.5-14,20.1c-12.2,22.8-18.5,48.2-18.4,74v15.5H580v-180c0-37.7-8.4-74.9-25-107.9
		c-7.8-15.6-15-25.4-20.5-31.3c-5.2-5.9-14.1-6.5-20-1.3c-0.5,0.4-0.9,0.8-1.3,1.3c-7.4,8.1-14.2,18.8-20,30.2
		c-17.4,33.7-26.2,72-26.2,110.8v178.2h-8.6v-16.2c0.1-25.8-6.2-51.2-18.4-73.9c-4.1-7.6-8.8-14.7-14-20.1c-3.1-3.3-8-4.2-12-2.2
		l0.4,0.2c-1.3,0.6-2.4,1.4-3.4,2.3c-3.9,4-8.9,10.5-14.4,20.9c-11.6,22.2-17.6,46.9-17.5,72v269h30.6l-3.4,22.1v66.1h25.1v-66.1
		l-3.4-22.1h30.2v-245h8.6v243.9h24.5l-3.5,23.2v66.1h25.1v-66.1l-3.5-23.2h33l-3.5,23.2v66.1h25.1v-66.1l-3.5-23.2h19.5V380.5h9.9
		v245.4h8v-0.4h26.6l-3.3,22.1v66.1h25.1v-66.1l-3.3-22.1H670V356.5z"/>
</g>
<polygon class="st7" points="436.4,634.8 412.7,634.8 416.9,605.9 432.2,605.9 "/>
<g class="st8">
	<polygon points="415.7,617.4 433.3,617.4 432.2,609.3 416.9,609.3 	"/>
</g>
<polygon class="st7" points="639.8,634.8 616,634.8 620.3,605.9 635.5,605.9 "/>
<g class="st8">
	<polygon points="619.1,617.4 636.7,617.4 635.5,609.3 620.3,609.3 	"/>
</g>
<polygon class="st7" points="513.5,634.8 489.8,634.8 494,605.9 509.3,605.9 "/>
<g class="st8">
	<polygon points="492.8,617.4 510.5,617.4 509.3,609.3 494,609.3 	"/>
</g>
<polygon class="st7" points="561.8,634.8 538.1,634.8 542.3,605.9 557.6,605.9 "/>
<g class="st8">
	<polygon points="541.1,617.4 558.8,617.4 557.6,609.3 542.3,609.3 	"/>
</g>
<rect x="436.4" y="367.9" class="st7" width="169.5" height="6.8"/>
<path class="st9" d="M632.1,260.8c-3.5-3.9-9.6-4.2-13.5-0.7c-0.2,0.2-0.5,0.4-0.7,0.7c-4.9,5.3-9.4,12.2-13.3,19.6
	c-11.5,22.2-17.5,46.9-17.4,72v260.8h75V351.3c0.1-24.4-5.6-48.4-16.6-70.1C640.4,271,635.7,264.6,632.1,260.8z"/>
<path class="st9" d="M417,260.8c3.5-3.9,9.6-4.2,13.5-0.7c0.2,0.2,0.5,0.4,0.7,0.7c4.9,5.3,9.4,12.2,13.3,19.6
	c11.5,22.2,17.5,46.9,17.4,72v260.8h-75V351.3c-0.1-24.4,5.6-48.4,16.6-70.1C408.6,271,413.3,264.6,417,260.8z"/>
<polygon class="st7" points="387.2,356.8 405,356.9 405,378.9 387.2,378.9 "/>
<polygon class="st7" points="444,356.8 461.8,356.9 461.8,378.9 444,378.9 "/>
<polygon class="st7" points="587.2,356.8 605,356.9 605,378.9 587.2,378.9 "/>
<polygon class="st7" points="644,356.8 661.8,356.9 661.8,378.9 644,378.9 "/>
<g class="st8">
	<path d="M444.4,280c-3.9-7.4-8.4-14.3-13.3-19.6c-2.9-3.2-7.5-4.1-11.3-2.1c1.1,0.5,2,1.3,2.9,2.1c4.9,5.3,9.4,12.2,13.3,19.6
		c11.5,22.2,17.5,46.9,17.4,72v260.8h8.5V352C461.9,327,456,302.3,444.4,280z"/>
</g>
<g class="st8">
	<path d="M611.4,280.8c3.9-7.4,8.3-14.3,13.3-19.6c0.9-1,2-1.8,3.3-2.3c-3.8-1.6-8.1-0.7-10.9,2.3c-4.9,5.3-9.4,12.2-13.3,19.6
		c-11.5,22.2-17.5,46.9-17.4,72v260.9h7.6V352.8C593.9,327.7,599.8,303,611.4,280.8z"/>
</g>
<linearGradient id="SVGID_4_" gradientUnits="userSpaceOnUse" x1="456.945" y1="237.3623" x2="456.945" y2="172.9623" gradientTransform="matrix(1 0 0 -1 -32.41 872.1146)">
	<stop  offset="0" style="stop-color:#E0E0E0"/>
	<stop  offset="0.31" style="stop-color:#FCCC63"/>
	<stop  offset="0.77" style="stop-color:#F55F44"/>
</linearGradient>
<path class="st10" d="M424.9,699.2h-0.6c-6.4,0-11.5-5.2-11.5-11.5v-52.9h23.7v52.9C436.4,694,431.2,699.2,424.9,699.2z"/>
<linearGradient id="SVGID_5_" gradientUnits="userSpaceOnUse" x1="534.05" y1="237.3623" x2="534.05" y2="172.9623" gradientTransform="matrix(1 0 0 -1 -32.41 872.1146)">
	<stop  offset="0" style="stop-color:#E0E0E0"/>
	<stop  offset="0.31" style="stop-color:#FCCC63"/>
	<stop  offset="0.77" style="stop-color:#F55F44"/>
</linearGradient>
<path class="st11" d="M502,699.2h-0.7c-6.4,0-11.5-5.2-11.5-11.5v-52.9h23.7v52.9C513.5,694,508.3,699.1,502,699.2z"/>
<linearGradient id="SVGID_6_" gradientUnits="userSpaceOnUse" x1="582.35" y1="237.3623" x2="582.35" y2="172.9623" gradientTransform="matrix(1 0 0 -1 -32.41 872.1146)">
	<stop  offset="0" style="stop-color:#E0E0E0"/>
	<stop  offset="0.31" style="stop-color:#FCCC63"/>
	<stop  offset="0.77" style="stop-color:#F55F44"/>
</linearGradient>
<path class="st12" d="M550.3,699.2h-0.7c-6.4,0-11.5-5.2-11.5-11.5v-52.9h23.7v52.9C561.8,694,556.6,699.2,550.3,699.2z"/>
<linearGradient id="SVGID_7_" gradientUnits="userSpaceOnUse" x1="660.3" y1="237.3623" x2="660.3" y2="172.9623" gradientTransform="matrix(1 0 0 -1 -32.41 872.1146)">
	<stop  offset="0" style="stop-color:#E0E0E0"/>
	<stop  offset="0.31" style="stop-color:#FCCC63"/>
	<stop  offset="0.77" style="stop-color:#F55F44"/>
</linearGradient>
<path class="st13" d="M628.2,699.2h-0.6c-6.4,0-11.5-5.1-11.6-11.5c0,0,0,0,0,0v-52.9h23.7v52.9C639.8,694,634.6,699.1,628.2,699.2z
	"/>
<path class="st14" d="M533.9,56.3c-4.7-5.6-13-6.3-18.6-1.6c-0.6,0.5-1.1,1-1.6,1.6c-7,7.9-13.4,18.3-19,29.4
	c-16.5,32.8-24.8,70.1-24.8,107.9v418.6h107V191.9c0-36.7-8-73-23.6-105.1C545.9,71.5,539.1,62.1,533.9,56.3z"/>
<path class="st7" d="M505.8,102.8h33.8c6.1,0,11,4.9,11,11v3.6c0,6.1-4.9,11-11,11h-33.8c-6.1,0-11-4.9-11-11v-3.6
	C494.8,107.7,499.7,102.8,505.8,102.8z"/>
<g class="st8">
	<rect x="470.5" y="207.9" width="105.9" height="4.1"/>
</g>
<linearGradient id="SVGID_8_" gradientUnits="userSpaceOnUse" x1="766.0677" y1="456.2123" x2="766.0677" y2="524.8781" gradientTransform="matrix(1 0 0 -1 -32.41 872.1146)">
	<stop  offset="0" style="stop-color:#808080;stop-opacity:0.25"/>
	<stop  offset="0.54" style="stop-color:#808080;stop-opacity:0.12"/>
	<stop  offset="1" style="stop-color:#808080;stop-opacity:0.1"/>
</linearGradient>
<path class="st15" d="M761,360.8L761,360.8c-2.8-3.6-6.3-6.7-10.2-9l0,0c-16.4-9.5-37.4-3.8-46.9,12.6s-3.8,37.4,12.6,46.9
	c5.2,3,11.1,4.6,17.1,4.6c0.7,0,1.5,0,2.2-0.1c18.9-1.2,33.3-17.5,32.1-36.4C767.5,372.7,765.1,366.3,761,360.8L761,360.8z"/>
<path class="st3" d="M766.1,381.5c0,17.1-13.3,31.3-30.4,32.4c-0.7,0-1.4,0.1-2,0.1c-17.9,0-32.5-14.5-32.5-32.4
	c0-17.9,14.5-32.5,32.4-32.5c5.7,0,11.3,1.5,16.3,4.4l0,0c3.8,2.2,7,5.1,9.7,8.6l0,0C763.8,367.6,766.1,374.5,766.1,381.5z"/>
<path class="st16" d="M725.7,360.9c-1.7,0.7-3.3,1.6-4.8,2.5c-1,0.6-1.9,1.4-2.6,2.3c-0.7,1-0.7,2.3-0.1,3.3
	c0.8,1.1,2.3,1.2,3.7,1.3c1.4,0.2,2.8,0,4.2-0.4c0.9-0.4,1.7-1,2.4-1.8l2.8-2.5c1-0.9,2-2.1,1.6-3.3c-0.5-0.9-1.4-1.5-2.4-1.6
	c-2.4-0.5-4.9,0-7,1.2"/>
<g class="st8">
	<circle cx="714" cy="394.3" r="1.7"/>
</g>
<g class="st8">
	<circle cx="748.7" cy="383.5" r="6.3"/>
</g>
<g class="st8">
	<path d="M759.6,362L759.6,362c-0.1,4.7-3.9,8.5-8.6,8.4c-4.7-0.1-8.5-3.9-8.4-8.6c0-4.2,3.2-7.8,7.4-8.4l0,0
		C753.7,355.6,757,358.5,759.6,362z"/>
</g>
<g class="st8">
	<path d="M760.2,400.2c-5.7,8-14.7,13.1-24.5,13.7c0-0.5-0.1-0.9-0.1-1.4c0-8.5,6.9-15.4,15.4-15.4
		C754.3,397.2,757.5,398.2,760.2,400.2L760.2,400.2z"/>
</g>
<linearGradient id="SVGID_9_" gradientUnits="userSpaceOnUse" x1="330.9103" y1="287.6519" x2="330.9103" y2="335.5619" gradientTransform="matrix(1 0 0 -1 -32.41 872.1146)">
	<stop  offset="0" style="stop-color:#808080;stop-opacity:0.25"/>
	<stop  offset="0.54" style="stop-color:#808080;stop-opacity:0.12"/>
	<stop  offset="1" style="stop-color:#808080;stop-opacity:0.1"/>
</linearGradient>
<path class="st17" d="M317.8,546.1L317.8,546.1c-1.9-2.6-4.4-4.7-7.1-6.3l0,0c-11.4-6.7-26.1-2.9-32.8,8.6s-2.9,26.1,8.6,32.8
	c3.7,2.2,8,3.3,12.3,3.3c0.5,0,1,0,1.5,0c13.2-0.9,23.2-12.3,22.3-25.6C322.2,554.2,320.5,549.8,317.8,546.1L317.8,546.1z"/>
<path class="st3" d="M321.3,560.5c0,11.9-9.3,21.8-21.2,22.6c-0.5,0-1,0-1.4,0c-12.5,0-22.6-10.1-22.6-22.6s10.1-22.6,22.6-22.6
	c4,0,7.9,1,11.3,3l0,0c2.6,1.5,4.9,3.6,6.7,6l0,0C319.7,550.8,321.3,555.6,321.3,560.5z"/>
<path class="st16" d="M293.1,546.2c-1.2,0.5-2.3,1.1-3.4,1.8c-0.7,0.4-1.3,1-1.8,1.6c-0.5,0.7-0.5,1.6,0,2.3c0.7,0.7,1.6,1,2.5,0.9
	c1,0.1,2,0,2.9-0.3c0.6-0.3,1.2-0.7,1.7-1.2l1.9-1.8c0.7-0.6,1.4-1.5,1.1-2.3c-0.3-0.6-0.9-1.1-1.6-1.1c-1.7-0.3-3.4,0-4.9,0.9"/>
<g class="st8">
	<circle cx="284.9" cy="569.4" r="1.2"/>
</g>
<g class="st8">
	<circle cx="309.2" cy="561.9" r="4.4"/>
</g>
<g class="st8">
	<path d="M316.7,546.9L316.7,546.9c0,3.3-2.7,6-6,6c-3.3,0-6-2.7-6-6c0-3,2.3-5.5,5.2-5.9l0,0C312.6,542.4,314.9,544.4,316.7,546.9z
		"/>
</g>
<g class="st8">
	<path d="M317.1,573.5c-3.9,5.6-10.2,9.1-17.1,9.6c0-0.3,0-0.6,0-1c0-5.9,4.8-10.7,10.7-10.7C313.1,571.4,315.3,572.1,317.1,573.5
		L317.1,573.5z"/>
</g>
<polyline class="st18" points="837.7,588.9 859.5,600.5 842.5,619.6 "/>
<circle class="st4" cx="954.9" cy="477.7" r="1.8"/>
</svg>
