<?xml version="1.0" encoding="utf-8"?>
<!-- Generator: Adobe Illustrator 22.0.1, SVG Export Plug-In . SVG Version: 6.00 Build 0)  -->
<svg version="1.1" id="ffa0e257-4b46-4632-a8d6-93195cbf254d"
	 xmlns="http://www.w3.org/2000/svg" xmlns:xlink="http://www.w3.org/1999/xlink" x="0px" y="0px" viewBox="0 0 895.7 517.5"
	 style="enable-background:new 0 0 895.7 517.5;" xml:space="preserve">
<style type="text/css">
	.st0{fill:#F5F5F5;}
	.st1{fill:url(#SVGID_1_);}
	.st2{fill:#FF5252;}
	.st3{fill:#FFFF00;}
	.st4{fill:#69F0AE;}
	.st5{fill:url(#SVGID_2_);}
	.st6{fill:#407AFC;}
	.st7{fill:url(#SVGID_3_);}
	.st8{fill:#FF9800;}
	.st9{opacity:0.4;fill:#407AFC;enable-background:new    ;}
	.st10{fill:url(#SVGID_4_);}
	.st11{fill:url(#SVGID_5_);}
	.st12{fill:url(#SVGID_6_);}
	.st13{fill:url(#SVGID_7_);}
	.st14{fill:#FFFFFF;}
	.st15{fill:url(#SVGID_8_);}
	.st16{fill:url(#SVGID_9_);}
	.st17{fill:url(#SVGID_10_);}
	.st18{fill:url(#SVGID_11_);}
	.st19{fill:#00C809;}
	.st20{fill:url(#SVGID_12_);}
	.st21{opacity:0.2;enable-background:new    ;}
</style>
<title>safe</title>
<rect x="640.1" y="-141.3" transform="matrix(0.1502 -0.9887 0.9887 0.1502 459.5586 722.3762)" class="st0" width="19.9" height="470.4"/>
<linearGradient id="SVGID_1_" gradientUnits="userSpaceOnUse" x1="941.8592" y1="-46.6596" x2="941.8592" y2="329.3404" gradientTransform="matrix(0.9887 0.1502 0.1502 -0.9887 -327.3493 261.7181)">
	<stop  offset="0" style="stop-color:#808080;stop-opacity:0.25"/>
	<stop  offset="0.54" style="stop-color:#808080;stop-opacity:0.12"/>
	<stop  offset="1" style="stop-color:#808080;stop-opacity:0.1"/>
</linearGradient>
<polygon class="st1" points="354.4,412.5 410.9,40.8 895.7,114.4 839.2,486.2 "/>
<rect x="451.3" y="38" transform="matrix(0.1502 -0.9887 0.9887 0.1502 259.1166 847.8016)" class="st0" width="342.9" height="470.4"/>
<ellipse transform="matrix(0.1502 -0.9887 0.9887 0.1502 304.8336 475.1449)" class="st2" cx="428.8" cy="60.2" rx="4.9" ry="4.9"/>
<ellipse transform="matrix(0.1502 -0.9887 0.9887 0.1502 314.0814 489.9078)" class="st3" cx="442" cy="62.2" rx="4.9" ry="4.9"/>
<circle class="st4" cx="455.2" cy="64.3" r="4.9"/>
<linearGradient id="SVGID_2_" gradientUnits="userSpaceOnUse" x1="936.8942" y1="147.9604" x2="936.8942" y2="272.1904" gradientTransform="matrix(0.9887 0.1502 0.1502 -0.9887 -327.3482 261.7141)">
	<stop  offset="0" style="stop-color:#808080;stop-opacity:0.25"/>
	<stop  offset="0.54" style="stop-color:#808080;stop-opacity:0.12"/>
	<stop  offset="1" style="stop-color:#808080;stop-opacity:0.1"/>
</linearGradient>
<polygon class="st5" points="412.3,224.5 431,101.6 848.6,165.1 829.9,287.9 "/>
<rect x="573.3" y="-11.4" transform="matrix(0.1502 -0.9887 0.9887 0.1502 343.0525 789.5964)" class="st6" width="115.1" height="413.3"/>
<linearGradient id="SVGID_3_" gradientUnits="userSpaceOnUse" x1="811.8442" y1="75.9105" x2="811.8442" y2="99.9305" gradientTransform="matrix(0.9887 0.1502 0.1502 -0.9887 -327.3537 261.7064)">
	<stop  offset="0" style="stop-color:#808080;stop-opacity:0.25"/>
	<stop  offset="0.54" style="stop-color:#808080;stop-opacity:0.12"/>
	<stop  offset="1" style="stop-color:#808080;stop-opacity:0.1"/>
</linearGradient>
<polygon class="st7" points="472.8,306.5 476.4,282.8 504.2,287 500.6,310.7 "/>
<rect x="479" y="283.1" transform="matrix(0.1502 -0.9887 0.9887 0.1502 122.4896 735.3078)" class="st6" width="19.9" height="26.5"/>
<rect x="473.9" y="316.7" transform="matrix(0.1502 -0.9887 0.9887 0.1502 84.9525 758.7789)" class="st2" width="19.9" height="26.5"/>
<rect x="468.8" y="350.3" transform="matrix(0.1502 -0.9887 0.9887 0.1502 47.4308 782.2708)" class="st8" width="19.9" height="26.5"/>
<rect x="645.3" y="214.2" transform="matrix(0.1502 -0.9887 0.9887 0.1502 235.9005 916.5118)" class="st9" width="11.6" height="213.7"/>
<rect x="640.2" y="247.8" transform="matrix(0.1502 -0.9887 0.9887 0.1502 198.3704 939.994)" class="st9" width="11.6" height="213.7"/>
<rect x="635.1" y="281.3" transform="matrix(0.1502 -0.9887 0.9887 0.1502 160.8487 963.486)" class="st9" width="11.6" height="213.7"/>
<rect x="7" y="63.3" transform="matrix(0.9759 -0.2181 0.2181 0.9759 -9.7318 57.9109)" class="st0" width="500.8" height="19.6"/>
<linearGradient id="SVGID_4_" gradientUnits="userSpaceOnUse" x1="197.659" y1="-150.8092" x2="197.659" y2="219.1908" gradientTransform="matrix(0.9759 -0.2181 -0.2181 -0.9759 109.6257 313.9597)">
	<stop  offset="0" style="stop-color:#808080;stop-opacity:0.25"/>
	<stop  offset="0.54" style="stop-color:#808080;stop-opacity:0.12"/>
	<stop  offset="1" style="stop-color:#808080;stop-opacity:0.1"/>
</linearGradient>
<polygon class="st10" points="0,113.9 509.4,0 590.1,361.1 80.7,475 "/>
<rect x="45.9" y="78.5" transform="matrix(0.9759 -0.2181 0.2181 0.9759 -46.7931 70.5985)" class="st0" width="500.8" height="337.4"/>
<ellipse transform="matrix(0.9759 -0.2181 0.2181 0.9759 -26.6644 8.4533)" class="st2" cx="25" cy="125" rx="5.2" ry="4.8"/>
<ellipse transform="matrix(0.9759 -0.2181 0.2181 0.9759 -25.6547 11.4086)" class="st3" cx="38.8" cy="121.9" rx="5.2" ry="4.8"/>
<ellipse transform="matrix(0.9759 -0.2181 0.2181 0.9759 -24.6435 14.3616)" class="st4" cx="52.7" cy="118.8" rx="5.2" ry="4.8"/>
<linearGradient id="SVGID_5_" gradientUnits="userSpaceOnUse" x1="192.3691" y1="40.7108" x2="192.3691" y2="162.9608" gradientTransform="matrix(0.9759 -0.2181 -0.2181 -0.9759 109.6267 313.9739)">
	<stop  offset="0" style="stop-color:#808080;stop-opacity:0.25"/>
	<stop  offset="0.54" style="stop-color:#808080;stop-opacity:0.12"/>
	<stop  offset="1" style="stop-color:#808080;stop-opacity:0.1"/>
</linearGradient>
<polygon class="st11" points="42.4,162 481.2,63.9 507.9,183.2 69,281.3 "/>
<rect x="55.7" y="116.3" transform="matrix(0.9759 -0.2181 0.2181 0.9759 -31.0826 64.3)" class="st6" width="440" height="113.3"/>
<linearGradient id="SVGID_6_" gradientUnits="userSpaceOnUse" x1="59.229" y1="-30.1792" x2="59.229" y2="-6.5492" gradientTransform="matrix(0.9759 -0.2181 -0.2181 -0.9759 109.6323 313.9742)">
	<stop  offset="0" style="stop-color:#808080;stop-opacity:0.25"/>
	<stop  offset="0.54" style="stop-color:#808080;stop-opacity:0.12"/>
	<stop  offset="1" style="stop-color:#808080;stop-opacity:0.1"/>
</linearGradient>
<polygon class="st12" points="154.2,310.7 183.5,304.2 188.6,327.2 159.4,333.8 "/>
<rect x="159.9" y="310.1" transform="matrix(0.9757 -0.219 0.219 0.9757 -65.8567 45.8921)" class="st6" width="28.3" height="19.6"/>
<rect x="165" y="341.3" transform="matrix(0.9759 -0.2181 0.2181 0.9759 -72.2759 47.519)" class="st2" width="28.2" height="19.6"/>
<rect x="174.6" y="375.6" transform="matrix(0.9757 -0.219 0.219 0.9757 -79.8359 50.7162)" class="st8" width="28.3" height="19.6"/>
<rect x="228.4" y="274.7" transform="matrix(0.9759 -0.2181 0.2181 0.9759 -52.9259 81.3924)" class="st9" width="227.5" height="11.4"/>
<rect x="235.7" y="307.3" transform="matrix(0.9759 -0.2181 0.2181 0.9759 -59.865 83.7677)" class="st9" width="227.5" height="11.4"/>
<rect x="243" y="339.9" transform="matrix(0.9759 -0.2181 0.2181 0.9759 -66.8019 86.1428)" class="st9" width="227.5" height="11.4"/>
<rect x="170.1" y="18.5" class="st0" width="568" height="24"/>
<linearGradient id="SVGID_7_" gradientUnits="userSpaceOnUse" x1="455.07" y1="55.52" x2="455.07" y2="509.52" gradientTransform="matrix(1 0 0 -1 0 520)">
	<stop  offset="0" style="stop-color:#808080;stop-opacity:0.25"/>
	<stop  offset="0.54" style="stop-color:#808080;stop-opacity:0.12"/>
	<stop  offset="1" style="stop-color:#808080;stop-opacity:0.1"/>
</linearGradient>
<rect x="159.1" y="10.5" class="st13" width="592" height="454"/>
<rect x="170.1" y="42.5" class="st14" width="568" height="414"/>
<circle class="st2" cx="183.9" cy="30.5" r="5.9"/>
<circle class="st3" cx="200.1" cy="30.5" r="5.9"/>
<circle class="st4" cx="216.2" cy="30.5" r="5.9"/>
<linearGradient id="SVGID_8_" gradientUnits="userSpaceOnUse" x1="449.07" y1="290.52" x2="449.07" y2="440.52" gradientTransform="matrix(1 0 0 -1 0 520)">
	<stop  offset="0" style="stop-color:#808080;stop-opacity:0.25"/>
	<stop  offset="0.54" style="stop-color:#808080;stop-opacity:0.12"/>
	<stop  offset="1" style="stop-color:#808080;stop-opacity:0.1"/>
</linearGradient>
<rect x="194.1" y="79.5" class="st15" width="510" height="150"/>
<rect x="200.1" y="85.5" class="st6" width="499" height="139"/>
<linearGradient id="SVGID_9_" gradientUnits="userSpaceOnUse" x1="298.07" y1="203.52" x2="298.07" y2="232.52" gradientTransform="matrix(1 0 0 -1 0 520)">
	<stop  offset="0" style="stop-color:#808080;stop-opacity:0.25"/>
	<stop  offset="0.54" style="stop-color:#808080;stop-opacity:0.12"/>
	<stop  offset="1" style="stop-color:#808080;stop-opacity:0.1"/>
</linearGradient>
<rect x="281.1" y="287.5" class="st16" width="34" height="29"/>
<rect x="282.6" y="289.5" class="st6" width="32" height="24"/>
<rect x="282.6" y="330.5" class="st2" width="32" height="24"/>
<rect x="282.6" y="371.5" class="st8" width="32" height="24"/>
<rect x="367.6" y="294.5" class="st9" width="258" height="14"/>
<rect x="367.6" y="335.5" class="st9" width="258" height="14"/>
<rect x="367.6" y="376.5" class="st9" width="258" height="14"/>
<linearGradient id="SVGID_10_" gradientUnits="userSpaceOnUse" x1="457.07" y1="2.52" x2="457.07" y2="155.52" gradientTransform="matrix(1 0 0 -1 0 520)">
	<stop  offset="0" style="stop-color:#808080;stop-opacity:0.25"/>
	<stop  offset="0.54" style="stop-color:#808080;stop-opacity:0.12"/>
	<stop  offset="1" style="stop-color:#808080;stop-opacity:0.1"/>
</linearGradient>
<rect x="364.1" y="364.5" class="st17" width="186" height="153"/>
<linearGradient id="SVGID_11_" gradientUnits="userSpaceOnUse" x1="611.235" y1="-44.74" x2="611.235" y2="55.26" gradientTransform="matrix(1 0 0 -1 -152.16 328.74)">
	<stop  offset="0" style="stop-color:#808080;stop-opacity:0.25"/>
	<stop  offset="0.54" style="stop-color:#808080;stop-opacity:0.12"/>
	<stop  offset="1" style="stop-color:#808080;stop-opacity:0.1"/>
</linearGradient>
<path class="st18" d="M407,340.1c0-28.8,23.3-52.1,52.1-52.1c28.8,0,52.1,23.3,52.1,52.1v33.3h14.6v-33.3c0.5-36.8-29-67-65.8-67.5
	c-36.8-0.5-67,29-67.5,65.8c0,0.5,0,1.1,0,1.6v33.3H407V340.1z"/>
<path class="st14" d="M409.1,339.5c0-27.6,22.4-50,50-50s50,22.4,50,50v32h14v-32c0-35.3-28.7-64-64-64s-64,28.7-64,64v32h14V339.5z
	"/>
<rect x="372.1" y="369.5" class="st6" width="174" height="142"/>
<rect x="372.1" y="369.5" class="st14" width="174" height="142"/>
<rect x="372.1" y="397.5" class="st19" width="174" height="86"/>
<linearGradient id="SVGID_12_" gradientUnits="userSpaceOnUse" x1="611.2402" y1="-140.736" x2="611.2402" y2="-82.6802" gradientTransform="matrix(1 0 0 -1 -152.16 328.74)">
	<stop  offset="0" style="stop-color:#808080;stop-opacity:0.25"/>
	<stop  offset="0.54" style="stop-color:#808080;stop-opacity:0.12"/>
	<stop  offset="1" style="stop-color:#808080;stop-opacity:0.1"/>
</linearGradient>
<path class="st20" d="M471.8,424.2c0-7-5.7-12.8-12.7-12.8c-7,0-12.8,5.7-12.8,12.7c0,3.3,1.2,6.5,3.5,8.9v27.2
	c0,5.1,4.2,9.3,9.3,9.3c5.1,0,9.3-4.2,9.3-9.3V433C470.6,430.6,471.9,427.5,471.8,424.2z"/>
<path class="st21" d="M470.1,426.5c0-6.1-4.9-11-11-11c-6.1,0-11,4.9-11,11c0,2.8,1.1,5.5,3,7.6v23.5c0,4.4,3.6,8,8,8s8-3.6,8-8V434
	C469,432,470.1,429.3,470.1,426.5z"/>
</svg>
