<?xml version="1.0" encoding="utf-8"?>
<!-- Generator: Adobe Illustrator 22.0.1, SVG Export Plug-In . SVG Version: 6.00 Build 0)  -->
<svg version="1.1" id="b1f6b045-6249-48ca-b49e-c93dd74e2ee5"
	 xmlns="http://www.w3.org/2000/svg" xmlns:xlink="http://www.w3.org/1999/xlink" x="0px" y="0px" viewBox="0 0 1174.1 700.8"
	 style="enable-background:new 0 0 1174.1 700.8;" xml:space="preserve">
<style type="text/css">
	.st0{fill:#F55F44;}
	.st1{opacity:0.1;}
	.st2{fill:#182B7C;}
	.st3{fill:url(#SVGID_1_);}
	.st4{fill:#407AFC;}
	.st5{fill:none;stroke:#182B7C;stroke-width:5;stroke-miterlimit:10;}
	.st6{fill:none;stroke:#182B7C;stroke-width:5;stroke-linejoin:round;}
	.st7{fill:none;stroke:#182B7C;stroke-width:5;stroke-linecap:round;stroke-linejoin:round;}
	.st8{fill:url(#SVGID_2_);}
	.st9{fill:none;stroke:url(#SVGID_3_);stroke-width:3;stroke-linejoin:round;}
	.st10{fill:none;stroke:#182B7C;stroke-width:3;stroke-linejoin:round;}
	.st11{fill:none;stroke:url(#SVGID_4_);stroke-width:3;stroke-linejoin:round;}
	.st12{fill:none;stroke:#182B7C;stroke-width:3;stroke-miterlimit:10;}
	.st13{fill:none;stroke:url(#SVGID_5_);stroke-width:3;stroke-linejoin:round;}
	.st14{fill:none;stroke:url(#SVGID_6_);stroke-width:3;stroke-linecap:round;stroke-linejoin:round;}
	.st15{fill:none;stroke:#182B7C;stroke-width:3;stroke-linecap:round;stroke-linejoin:round;}
	.st16{fill:#64FFDA;}
	.st17{opacity:0.5;}
	.st18{fill:url(#SVGID_7_);}
	.st19{fill:#4D8AF0;}
	.st20{fill:#3AD29F;}
	.st21{fill:#FDD835;}
	.st22{fill:url(#SVGID_8_);}
	.st23{fill:#182B7C;stroke:#407AFC;stroke-miterlimit:10;}
	.st24{fill:url(#SVGID_9_);}
	.st25{fill:#FFFFFF;}
	.st26{fill:url(#SVGID_10_);}
	.st27{fill:url(#SVGID_11_);}
	.st28{fill:#B5B4B4;}
	.st29{fill:#407AFC;stroke:#407AFC;stroke-miterlimit:10;}
	.st30{fill:#E0E0E0;}
	.st31{opacity:0.1;enable-background:new    ;}
	.st32{opacity:5.000000e-02;enable-background:new    ;}
	.st33{fill:url(#SVGID_12_);}
	.st34{fill:url(#SVGID_13_);}
	.st35{fill:url(#SVGID_14_);}
	.st36{fill:url(#SVGID_15_);}
	.st37{fill:url(#SVGID_16_);}
	.st38{fill:#706A6A;}
	.st39{fill:url(#SVGID_17_);}
	.st40{fill:url(#SVGID_18_);}
</style>
<rect x="519.6" y="299.3" class="st0" width="109.3" height="66.2"/>
<g class="st1">
	<rect x="595" y="298.9" width="14.4" height="66.2"/>
	<rect x="567.1" y="298.9" width="14.4" height="66.2"/>
	<rect x="539.2" y="298.9" width="14.4" height="66.2"/>
</g>
<polygon class="st2" points="186.6,74.6 138.3,74.6 148.8,13.6 176.1,13.6 "/>
<linearGradient id="SVGID_1_" gradientUnits="userSpaceOnUse" x1="186.5315" y1="6" x2="186.5315" y2="92.08" gradientTransform="matrix(1 0 0 -1 0 702)">
	<stop  offset="0" style="stop-color:#808080;stop-opacity:0.25"/>
	<stop  offset="0.54" style="stop-color:#808080;stop-opacity:0.12"/>
	<stop  offset="1" style="stop-color:#808080;stop-opacity:0.1"/>
</linearGradient>
<rect x="102.5" y="609.9" class="st3" width="168" height="86.1"/>
<rect x="110.9" y="609.9" class="st4" width="151.4" height="75.7"/>
<rect x="139.3" y="156.1" class="st5" width="95.7" height="453.8"/>
<polyline class="st6" points="235,307.6 139.3,307.6 234.5,230.8 "/>
<polyline class="st6" points="139.3,383.8 235,383.8 139.8,307.6 "/>
<polyline class="st6" points="235,460.1 139.3,460.1 234.5,383.3 "/>
<polyline class="st6" points="139.3,536.3 235,536.3 138.8,460.1 "/>
<polyline class="st7" points="139.8,156.1 235,231.3 139.3,231.3 "/>
<line class="st5" x1="139.8" y1="609.4" x2="234.5" y2="535.8"/>
<rect x="119.9" y="127.7" class="st2" width="134.1" height="28.4"/>
<rect x="119.3" y="61" class="st2" width="86.2" height="68.4"/>
<rect x="21" y="109.9" class="st5" width="96.8" height="43.1"/>
<polyline class="st6" points="69.4,109.9 69.4,153 117.7,109.9 "/>
<polyline class="st6" points="447.7,153 447.7,110.9 410.1,153 "/>
<polyline class="st6" points="410.1,110.4 410.1,152.4 367,110.9 "/>
<polyline class="st6" points="364.9,154 364.9,111.4 322.8,153 "/>
<polyline class="st6" points="279.2,155.1 279.2,112 322.8,152.4 322.8,111.4 "/>
<polyline class="st6" points="499.5,111.4 499.5,152.4 450.2,110.9 "/>
<polyline class="st6" points="550.5,154 550.5,110.9 499.5,153 "/>
<polyline class="st6" points="601.5,111.4 601.5,152.4 551,110.9 "/>
<linearGradient id="SVGID_2_" gradientUnits="userSpaceOnUse" x1="731.4915" y1="430.42" x2="731.4915" y2="446.82" gradientTransform="matrix(1 0 0 -1 -157.46 602.42)">
	<stop  offset="0" style="stop-color:#808080;stop-opacity:0.25"/>
	<stop  offset="0.54" style="stop-color:#808080;stop-opacity:0.12"/>
	<stop  offset="1" style="stop-color:#808080;stop-opacity:0.1"/>
</linearGradient>
<path class="st8" d="M574,172c15.2,0,27.5-7.3,27.5-16.4h-55C546.5,164.7,558.8,172,574,172z"/>
<path class="st2" d="M574.7,168.2c13.4,0,24.2-5.6,24.2-12.6h-48.4C550.5,162.6,561.3,168.2,574.7,168.2z"/>
<rect x="138.3" y="4.2" class="st2" width="48.4" height="18.9"/>
<line class="st6" x1="21" y1="109.9" x2="69.4" y2="153"/>
<linearGradient id="SVGID_3_" gradientUnits="userSpaceOnUse" x1="81.1965" y1="586.8478" x2="81.1965" y2="689.5222" gradientTransform="matrix(1 0 0 -1 0 702)">
	<stop  offset="0" style="stop-color:#808080;stop-opacity:0.25"/>
	<stop  offset="0.54" style="stop-color:#808080;stop-opacity:0.12"/>
	<stop  offset="1" style="stop-color:#808080;stop-opacity:0.1"/>
</linearGradient>
<line class="st9" x1="141.4" y1="13.6" x2="21" y2="114"/>
<line class="st10" x1="141.4" y1="13.6" x2="21" y2="109.9"/>
<linearGradient id="SVGID_4_" gradientUnits="userSpaceOnUse" x1="283.2177" y1="589.2104" x2="283.2177" y2="689.7195" gradientTransform="matrix(1 0 0 -1 0 702)">
	<stop  offset="0" style="stop-color:#808080;stop-opacity:0.25"/>
	<stop  offset="0.54" style="stop-color:#808080;stop-opacity:0.12"/>
	<stop  offset="1" style="stop-color:#808080;stop-opacity:0.1"/>
</linearGradient>
<line class="st11" x1="182.4" y1="13.6" x2="384" y2="111.4"/>
<line class="st12" x1="182.4" y1="13.6" x2="388.5" y2="109.9"/>
<line class="st6" x1="642.5" y1="108.8" x2="601.5" y2="153"/>
<linearGradient id="SVGID_5_" gradientUnits="userSpaceOnUse" x1="408.3898" y1="589.6232" x2="408.3898" y2="690.3568" gradientTransform="matrix(1 0 0 -1 0 702)">
	<stop  offset="0" style="stop-color:#808080;stop-opacity:0.25"/>
	<stop  offset="0.54" style="stop-color:#808080;stop-opacity:0.12"/>
	<stop  offset="1" style="stop-color:#808080;stop-opacity:0.1"/>
</linearGradient>
<line class="st13" x1="179.8" y1="13.1" x2="637" y2="110.9"/>
<line class="st10" x1="179.8" y1="13.1" x2="645.2" y2="109.7"/>
<linearGradient id="SVGID_6_" gradientUnits="userSpaceOnUse" x1="715.3915" y1="397.39" x2="747.8515" y2="397.39" gradientTransform="matrix(1 0 0 -1 -157.46 602.42)">
	<stop  offset="0" style="stop-color:#808080;stop-opacity:0.25"/>
	<stop  offset="0.54" style="stop-color:#808080;stop-opacity:0.12"/>
	<stop  offset="1" style="stop-color:#808080;stop-opacity:0.1"/>
</linearGradient>
<path class="st14" d="M588.9,237.3c0,8.1-6.6,14.7-14.7,14.7c-8.1,0-14.7-6.6-14.7-14.7c0-8.1,6.6-14.7,14.7-14.7l0,0V158"/>
<path class="st15" d="M587.8,235c0,7.5-6.1,13.7-13.7,13.7c-7.5,0-13.7-6.1-13.7-13.7c0-7.5,6.1-13.7,13.7-13.7l0,0v-59.9"/>
<rect x="110.9" y="609.9" class="st2" width="151.4" height="110.7"/>
<polyline class="st15" points="538.9,300.7 574.6,247.1 610.4,300.7 "/>
<path class="st16" d="M538.5,296.7c-4.7,0-4.7,7.4,0,7.4S543.3,296.7,538.5,296.7z"/>
<path class="st16" d="M610,296.7c-4.7,0-4.7,7.4,0,7.4S614.8,296.7,610,296.7z"/>
<g class="st17">
	
		<linearGradient id="SVGID_7_" gradientUnits="userSpaceOnUse" x1="483.2098" y1="142.37" x2="483.2098" y2="277.35" gradientTransform="matrix(-1 0 0 -1 1243.4431 702)">
		<stop  offset="0" style="stop-color:#808080;stop-opacity:0.25"/>
		<stop  offset="0.54" style="stop-color:#808080;stop-opacity:0.12"/>
		<stop  offset="1" style="stop-color:#808080;stop-opacity:0.1"/>
	</linearGradient>
	<polygon class="st18" points="538.1,425 538.1,492.3 538.1,559.6 649.2,559.6 760.2,559.6 760.2,492.3 761,492.3 761,559.6 
		871.3,559.6 872.1,559.6 982.4,559.6 982.4,492.3 962.5,492.3 962.5,491.9 947.9,491.9 947.9,492.3 934.1,492.3 934.1,491.9 
		919.5,491.9 919.5,492.3 905.7,492.3 905.7,491.9 891.2,491.9 891.2,492.3 872.1,492.3 871.3,492.3 871.3,425 851.4,425 
		851.4,424.6 836.8,424.6 836.8,425 823.1,425 823.1,424.6 808.5,424.6 808.5,425 794.7,425 794.7,424.6 780.1,424.6 780.1,425 
		760.2,425 740.4,425 740.4,424.6 725.8,424.6 725.8,425 712,425 712,424.6 697.4,424.6 697.4,425 683.6,425 683.6,424.6 669,424.6 
		669,425 649.2,425 629.3,425 629.3,424.6 614.7,424.6 614.7,425 600.9,425 600.9,424.6 586.3,424.6 586.3,425 572.6,425 
		572.6,424.6 558,424.6 558,425 	"/>
</g>
<rect x="760.2" y="426.1" class="st0" width="109.3" height="66.2"/>
<rect x="651" y="426.1" class="st19" width="109.3" height="66.2"/>
<rect x="541.7" y="426.1" class="st20" width="109.3" height="66.2"/>
<rect x="761" y="492.3" class="st19" width="109.3" height="66.2"/>
<rect x="869.5" y="492.3" class="st0" width="109.3" height="66.2"/>
<rect x="651" y="492.3" class="st20" width="109.3" height="66.2"/>
<rect x="541.7" y="492.3" class="st21" width="109.3" height="66.2"/>
<g class="st1">
	<rect x="835.6" y="425.7" width="14.4" height="66.2"/>
	<rect x="807.7" y="425.7" width="14.4" height="66.2"/>
	<rect x="779.8" y="425.7" width="14.4" height="66.2"/>
</g>
<g class="st1">
	<rect x="726.3" y="425.7" width="14.4" height="66.2"/>
	<rect x="698.4" y="425.7" width="14.4" height="66.2"/>
	<rect x="670.5" y="425.7" width="14.4" height="66.2"/>
</g>
<g class="st1">
	<rect x="617.1" y="425.7" width="14.4" height="66.2"/>
	<rect x="589.1" y="425.7" width="14.4" height="66.2"/>
	<rect x="561.2" y="425.7" width="14.4" height="66.2"/>
</g>
<g class="st1">
	<rect x="835.6" y="491.9" width="14.4" height="66.2"/>
	<rect x="807.7" y="491.9" width="14.4" height="66.2"/>
	<rect x="779.8" y="491.9" width="14.4" height="66.2"/>
</g>
<g class="st1">
	<rect x="944.9" y="491.9" width="14.4" height="66.2"/>
	<rect x="916.9" y="491.9" width="14.4" height="66.2"/>
	<rect x="889" y="491.9" width="14.4" height="66.2"/>
</g>
<g class="st1">
	<rect x="726.3" y="491.9" width="14.4" height="66.2"/>
	<rect x="698.4" y="491.9" width="14.4" height="66.2"/>
	<rect x="670.5" y="491.9" width="14.4" height="66.2"/>
</g>
<g class="st1">
	<rect x="617.1" y="491.9" width="14.4" height="66.2"/>
	<rect x="589.1" y="491.9" width="14.4" height="66.2"/>
	<rect x="561.2" y="491.9" width="14.4" height="66.2"/>
</g>
<g class="st17">
	
		<linearGradient id="SVGID_8_" gradientUnits="userSpaceOnUse" x1="672.5004" y1="-116.98" x2="672.5004" y2="57.67" gradientTransform="matrix(-1 0 0 -1 1377.2532 575.11)">
		<stop  offset="0" style="stop-color:#808080;stop-opacity:0.25"/>
		<stop  offset="0.54" style="stop-color:#808080;stop-opacity:0.12"/>
		<stop  offset="1" style="stop-color:#808080;stop-opacity:0.1"/>
	</linearGradient>
	<path class="st22" d="M804,553.6L319.8,551c-29.4,108.4,29.4,123.9,29.4,123.9v17.2h663v-20.7c104.5-62.8,84.1-154,84.1-154H866.1
		L804,553.6z"/>
</g>
<path class="st23" d="M801.7,558.5l-473-2.4C300,656.6,357.4,671,357.4,671v16h647.6v-19.1c102.1-58.2,82.1-142.8,82.1-142.8H862.3
	L801.7,558.5z"/>
<g class="st17">
	
		<linearGradient id="SVGID_9_" gradientUnits="userSpaceOnUse" x1="816.5998" y1="94.95" x2="816.5998" y2="115.42" gradientTransform="matrix(-1 0 0 -1 1243.4431 702)">
		<stop  offset="0" style="stop-color:#808080;stop-opacity:0.25"/>
		<stop  offset="0.54" style="stop-color:#808080;stop-opacity:0.12"/>
		<stop  offset="1" style="stop-color:#808080;stop-opacity:0.1"/>
	</linearGradient>
	<path class="st24" d="M457.5,596.4v0.9c0,5.4-4.4,9.8-9.8,9.8h-41.8c-5.4,0-9.8-4.4-9.8-9.8v-0.9c0-5.4,4.4-9.8,9.8-9.8h41.8
		C453.2,586.6,457.5,591,457.5,596.4z"/>
</g>
<path class="st25" d="M455.6,596.4v0.8c0,5.1-4.1,9.2-9.2,9.2h-39.1c-5.1,0-9.2-4.1-9.2-9.2v-0.8c0-5.1,4.1-9.2,9.2-9.2h39.1
	C451.5,587.2,455.6,591.3,455.6,596.4z"/>
<g class="st17">
	
		<linearGradient id="SVGID_10_" gradientUnits="userSpaceOnUse" x1="865.2498" y1="94.42" x2="865.2498" y2="115.95" gradientTransform="matrix(-1 0 0 -1 1243.4431 702)">
		<stop  offset="0" style="stop-color:#808080;stop-opacity:0.25"/>
		<stop  offset="0.54" style="stop-color:#808080;stop-opacity:0.12"/>
		<stop  offset="1" style="stop-color:#808080;stop-opacity:0.1"/>
	</linearGradient>
	<path class="st26" d="M389,596.3v0.9c0,5.7-4.6,10.3-10.3,10.3h-1c-5.7,0-10.3-4.6-10.3-10.3v-0.9c0-5.7,4.6-10.3,10.3-10.3h1
		C384.4,586,389,590.7,389,596.3z"/>
</g>
<path class="st25" d="M387.8,596.4v0.8c0,5.1-4.1,9.2-9.2,9.2h-0.8c-5.1,0-9.2-4.1-9.2-9.2v-0.8c0-5.1,4.1-9.2,9.2-9.2h0.8
	C383.7,587.2,387.8,591.3,387.8,596.4z"/>
<g class="st17">
	
		<linearGradient id="SVGID_11_" gradientUnits="userSpaceOnUse" x1="824.5748" y1="142.27" x2="824.5748" y2="432.59" gradientTransform="matrix(-1 0 0 -1 1243.4431 702)">
		<stop  offset="0" style="stop-color:#808080;stop-opacity:0.25"/>
		<stop  offset="0.54" style="stop-color:#808080;stop-opacity:0.12"/>
		<stop  offset="1" style="stop-color:#808080;stop-opacity:0.1"/>
	</linearGradient>
	<polygon class="st27" points="320.4,473 320.4,487.8 336.4,487.8 336.4,490.6 336.4,559.7 496.2,559.7 496.2,490.6 496.2,487.8 
		517.4,487.8 517.4,473 496.2,473 496.2,453.4 496.2,419.9 496.2,390.4 496.2,354.5 474.2,354.5 474.2,293.9 485.2,293.9 
		485.2,280.9 474.2,280.9 474.2,269.4 460.7,269.4 460.7,280.9 448.9,280.9 448.9,293.9 460.7,293.9 460.7,354.5 388,354.5 
		388,453.4 336.4,453.4 336.4,473 	"/>
</g>
<rect x="342.3" y="452.5" class="st28" width="150.7" height="103.7"/>
<rect x="390.9" y="355.9" class="st28" width="102.1" height="96.5"/>
<rect x="410.1" y="398.2" class="st29" width="35.1" height="54.2"/>
<rect x="459.5" y="273" class="st30" width="12.8" height="82.9"/>
<rect x="448.4" y="284.2" class="st30" width="34.3" height="12.8"/>
<rect x="327.1" y="471.6" class="st30" width="185.8" height="14.4"/>
<circle class="st25" cx="459.5" cy="510.7" r="7.2"/>
<circle class="st25" cx="434" cy="510.7" r="7.2"/>
<circle class="st25" cx="408.5" cy="510.7" r="7.2"/>
<circle class="st25" cx="383" cy="510.7" r="7.2"/>
<rect x="357.9" y="668.2" class="st31" width="647.6" height="19.1"/>
<path class="st31" d="M1088.8,544.2c0.2-6.6-0.3-13.1-1.6-19.6H862.3l-60.6,33.5l-473-2.4c-6,21-8.2,38.2-8,52.4
	c0.2-13.4,2.5-29.3,8-48.4l473,2.4l60.6-33.5h224.9C1088.3,533.8,1088.8,539,1088.8,544.2z"/>
<rect x="342.3" y="486" class="st32" width="150.7" height="2.8"/>
<g class="st17">
	
		<linearGradient id="SVGID_12_" gradientUnits="userSpaceOnUse" x1="194.8848" y1="138.28" x2="194.8848" y2="162.2" gradientTransform="matrix(-1 0 0 -1 1243.4431 702)">
		<stop  offset="0" style="stop-color:#808080;stop-opacity:0.25"/>
		<stop  offset="0.54" style="stop-color:#808080;stop-opacity:0.12"/>
		<stop  offset="1" style="stop-color:#808080;stop-opacity:0.1"/>
	</linearGradient>
	<circle class="st33" cx="1048.6" cy="551.8" r="12"/>
</g>
<g class="st17">
	
		<linearGradient id="SVGID_13_" gradientUnits="userSpaceOnUse" x1="247.5248" y1="138.28" x2="247.5248" y2="162.2" gradientTransform="matrix(-1 0 0 -1 1243.4431 702)">
		<stop  offset="0" style="stop-color:#808080;stop-opacity:0.25"/>
		<stop  offset="0.54" style="stop-color:#808080;stop-opacity:0.12"/>
		<stop  offset="1" style="stop-color:#808080;stop-opacity:0.1"/>
	</linearGradient>
	<circle class="st34" cx="995.9" cy="551.8" r="12"/>
</g>
<g class="st17">
	
		<linearGradient id="SVGID_14_" gradientUnits="userSpaceOnUse" x1="300.1648" y1="138.28" x2="300.1648" y2="162.2" gradientTransform="matrix(-1 0 0 -1 1243.4431 702)">
		<stop  offset="0" style="stop-color:#808080;stop-opacity:0.25"/>
		<stop  offset="0.54" style="stop-color:#808080;stop-opacity:0.12"/>
		<stop  offset="1" style="stop-color:#808080;stop-opacity:0.1"/>
	</linearGradient>
	<circle class="st35" cx="943.3" cy="551.8" r="12"/>
</g>
<g class="st17">
	
		<linearGradient id="SVGID_15_" gradientUnits="userSpaceOnUse" x1="352.8048" y1="138.28" x2="352.8048" y2="162.2" gradientTransform="matrix(-1 0 0 -1 1243.4431 702)">
		<stop  offset="0" style="stop-color:#808080;stop-opacity:0.25"/>
		<stop  offset="0.54" style="stop-color:#808080;stop-opacity:0.12"/>
		<stop  offset="1" style="stop-color:#808080;stop-opacity:0.1"/>
	</linearGradient>
	<circle class="st36" cx="890.6" cy="551.8" r="12"/>
</g>
<circle class="st25" cx="1048.6" cy="551.8" r="9.6"/>
<circle class="st25" cx="995.9" cy="551.8" r="9.6"/>
<circle class="st25" cx="943.3" cy="551.8" r="9.6"/>
<circle class="st25" cx="890.6" cy="551.8" r="9.6"/>
<g class="st17">
	
		<linearGradient id="SVGID_16_" gradientUnits="userSpaceOnUse" x1="476.7248" y1="268.86" x2="476.7248" y2="316.18" gradientTransform="matrix(-1 0 0 -1 1377.2532 575.11)">
		<stop  offset="0" style="stop-color:#808080;stop-opacity:0.25"/>
		<stop  offset="0.54" style="stop-color:#808080;stop-opacity:0.12"/>
		<stop  offset="1" style="stop-color:#808080;stop-opacity:0.1"/>
	</linearGradient>
	<path class="st37" d="M901.1,301.1c-3.6-15-16.4-27.9-31.5-30.9l1.4-6.9c13.3,2.9,24.8,11.2,31.6,22.9c3.9-12.8,14-23.8,27.1-27.4
		l1.8,6.8c-14.4,3.9-24.7,19.5-23.5,34.3c0.4,1.7,0.7,3.4,0.8,5.1l-6.9,1.2C901.5,304.6,901.2,302.8,901.1,301.1z"/>
</g>
<path class="st38" d="M901,298.4c-3.1-12.8-14.1-23.8-27-26.4l1.2-5.9c11.4,2.5,21.2,9.6,27,19.7c3.3-10.9,11.9-20.3,23.2-23.4
	l1.6,5.8c-12.3,3.4-21.1,16.6-20.1,29.3c0.3,1.4,0.6,2.9,0.7,4.3l-5.9,1C901.4,301.4,901.2,299.9,901,298.4z"/>
<g class="st17">
	
		<linearGradient id="SVGID_17_" gradientUnits="userSpaceOnUse" x1="170.9548" y1="514.1" x2="170.9548" y2="648.1" gradientTransform="matrix(-1 0 0 -1 1243.4431 702)">
		<stop  offset="0" style="stop-color:#808080;stop-opacity:0.25"/>
		<stop  offset="0.54" style="stop-color:#808080;stop-opacity:0.12"/>
		<stop  offset="1" style="stop-color:#808080;stop-opacity:0.1"/>
	</linearGradient>
	<circle class="st39" cx="1072.5" cy="120.9" r="67"/>
</g>
<circle class="st21" cx="1072.5" cy="120.9" r="62"/>
<g class="st17">
	
		<linearGradient id="SVGID_18_" gradientUnits="userSpaceOnUse" x1="900.7633" y1="381.385" x2="900.7633" y2="411.915" gradientTransform="matrix(1 0 0 -1 -133.81 575.11)">
		<stop  offset="0" style="stop-color:#808080;stop-opacity:0.25"/>
		<stop  offset="0.54" style="stop-color:#808080;stop-opacity:0.12"/>
		<stop  offset="1" style="stop-color:#808080;stop-opacity:0.1"/>
	</linearGradient>
	<path class="st40" d="M766,193.7l-4.5-0.8c0.1-1.1,0.3-2.2,0.5-3.3c0.8-9.5-5.9-19.6-15.2-22.1l1.2-4.4c8.5,2.3,15,9.4,17.5,17.6
		c4.4-7.6,11.8-12.9,20.4-14.8l0.9,4.4c-9.7,2-18,10.2-20.3,19.9C766.5,191.5,766.3,192.6,766,193.7z"/>
</g>
<path class="st38" d="M964.4,73.7l-2.9-0.5c0.1-0.7,0.2-1.4,0.3-2.1c0.5-6.2-3.8-12.7-9.8-14.4l0.8-2.8c5.5,1.6,9.8,6,11.4,11.5
	c2.9-4.9,7.7-8.4,13.3-9.6l0.6,2.9c-6.5,1.5-11.6,6.5-13.2,12.9C964.8,72.3,964.6,73,964.4,73.7z"/>
<path class="st38" d="M766.3,188.4l-2.9-0.5c0.1-0.7,0.2-1.4,0.3-2.1c0.5-6.2-3.8-12.7-9.8-14.4l0.8-2.8c5.5,1.6,9.8,6,11.4,11.5
	c2.9-4.9,7.7-8.4,13.3-9.6l0.6,2.9c-6.5,1.5-11.6,6.5-13.2,12.9C766.7,186.9,766.5,187.7,766.3,188.4z"/>
<rect x="254.5" y="110.9" class="st5" width="388.1" height="43.1"/>
<path class="st19" d="M272.6,700.8c1.7-4.6,27.3-35.7,30.4-39.2c10.6-12.1,28.4-18.2,44.9-17.5c21.4,0.8,41.3,10.5,60.5,20
	s39,19.3,60.4,20.3c47.5,2.3,87.5-38.1,134.9-42.7c56.3-5.5,106.2,40.4,162.8,42.3c9.9,0.3,20.1-0.8,29.2-4.7
	c8-3.4,14.9-8.8,22.4-13c38-21.6,85.5-13.4,127.5-1.5c25.4,7.2,91.8,22.5,116.2,36"/>
</svg>
